<svg width="34" height="40" viewBox="0 0 34 40" fill="none" xmlns="http://www.w3.org/2000/svg">
<path d="M2.01576 14C1.99474 14.9035 1.99475 15.8018 2.01577 16.7053C2.08114 19.5154 2.11383 20.9204 3.24496 21.9612C4.37608 23.002 5.95033 23.0383 9.09883 23.1108C11.0393 23.1555 12.9607 23.1555 14.9012 23.1108C18.0497 23.0383 19.6239 23.002 20.7551 21.9612C21.8862 20.9204 21.9189 19.5154 21.9842 16.7053C22.0053 15.8018 22.0053 14.9036 21.9842 14" stroke="black" stroke-width="1.5" stroke-linejoin="round"/>
<path d="M2.01576 17.209C1.99474 18.0715 1.99475 18.9288 2.01577 19.7913C2.08114 22.4737 2.11383 23.8148 3.24496 24.8083C4.37608 25.8018 5.95033 25.8364 9.09883 25.9057C11.0393 25.9483 12.9607 25.9483 14.9012 25.9057C18.0497 25.8364 19.6239 25.8018 20.7551 24.8083C21.8862 23.8148 21.9189 22.4737 21.9842 19.7913C22.0053 18.9289 22.0053 18.0715 21.9842 17.209" stroke="black" stroke-width="1.5" stroke-linejoin="round"/>
<path d="M2.01576 19.6475C1.99474 20.551 1.99475 21.4492 2.01577 22.3528C2.08114 25.1628 2.11383 26.5679 3.24496 27.6087C4.37608 28.6495 5.95033 28.6858 9.09883 28.7583C11.0393 28.803 12.9607 28.803 14.9012 28.7583C18.0497 28.6858 19.6239 28.6495 20.7551 27.6087C21.8862 26.5679 21.9189 25.1628 21.9842 22.3528C22.0053 21.4492 22.0053 20.551 21.9842 19.6475" stroke="black" stroke-width="1.5" stroke-linejoin="round"/>
<path d="M2.01576 22C1.99474 22.9035 1.99475 23.8018 2.01577 24.7053C2.08114 27.5154 2.11383 28.9204 3.24496 29.9612C4.37608 31.002 5.95033 31.0383 9.09883 31.1108C11.0393 31.1555 12.9607 31.1555 14.9012 31.1108C18.0497 31.0383 19.6239 31.002 20.7551 29.9612C21.8862 28.9204 21.9189 27.5154 21.9842 24.7053C22.0053 23.8018 22.0053 22.9036 21.9842 22" stroke="black" stroke-width="1.5" stroke-linejoin="round"/>
<path d="M2.01576 24.353C1.99474 25.2566 1.99475 26.1548 2.01577 27.0583C2.08114 29.8684 2.11383 31.2734 3.24496 32.3143C4.37608 33.3551 5.95033 33.3913 9.09883 33.4638C11.0393 33.5085 12.9607 33.5085 14.9012 33.4638C18.0497 33.3913 19.6239 33.3551 20.7551 32.3143C21.8862 31.2734 21.9189 29.8684 21.9842 27.0583C22.0053 26.1548 22.0053 25.2566 21.9842 24.353" stroke="black" stroke-width="1.5" stroke-linejoin="round"/>
<path d="M2.01576 26.7061C1.99474 27.6096 1.99475 28.5078 2.01577 29.4114C2.08114 32.2214 2.11383 33.6265 3.24496 34.6673C4.37608 35.7081 5.95033 35.7444 9.09883 35.8169C11.0393 35.8616 12.9607 35.8616 14.9012 35.8169C18.0497 35.7444 19.6239 35.7081 20.7551 34.6673C21.8862 33.6265 21.9189 32.2214 21.9842 29.4114C22.0053 28.5078 22.0053 27.6096 21.9842 26.7061" stroke="black" stroke-width="1.5" stroke-linejoin="round"/>
<path d="M7 8.5L9.94202 10.2394C11.6572 11.2535 12.3428 11.2535 14.058 10.2394L17 8.5" stroke="black" stroke-width="1.5" stroke-linecap="round" stroke-linejoin="round"/>
<path d="M2.01577 13.4756C2.08114 16.5412 2.11383 18.0739 3.24496 19.2094C4.37608 20.3448 5.95033 20.3843 9.09883 20.4634C11.0393 20.5122 12.9607 20.5122 14.9012 20.4634C18.0497 20.3843 19.6239 20.3448 20.7551 19.2094C21.8862 18.0739 21.9189 16.5412 21.9842 13.4756C22.0053 12.4899 22.0053 11.5101 21.9842 10.5244C21.9189 7.45886 21.8862 5.92609 20.7551 4.79066C19.6239 3.65523 18.0497 3.61568 14.9012 3.53657C12.9607 3.48781 11.0393 3.48781 9.09882 3.53656C5.95033 3.61566 4.37608 3.65521 3.24495 4.79065C2.11382 5.92608 2.08114 7.45885 2.01576 10.5244C1.99474 11.5101 1.99475 12.4899 2.01577 13.4756Z" stroke="black" stroke-width="1.5" stroke-linejoin="round"/>
<path d="M7 8.5L9.94202 10.2394C11.6572 11.2535 12.3428 11.2535 14.058 10.2394L17 8.5" stroke="black" stroke-width="1.5" stroke-linecap="round" stroke-linejoin="round"/>
<path d="M2.01577 13.4756C2.08114 16.5412 2.11383 18.0739 3.24496 19.2094C4.37608 20.3448 5.95033 20.3843 9.09883 20.4634C11.0393 20.5122 12.9607 20.5122 14.9012 20.4634C18.0497 20.3843 19.6239 20.3448 20.7551 19.2094C21.8862 18.0739 21.9189 16.5412 21.9842 13.4756C22.0053 12.4899 22.0053 11.5101 21.9842 10.5244C21.9189 7.45886 21.8862 5.92609 20.7551 4.79066C19.6239 3.65523 18.0497 3.61568 14.9012 3.53657C12.9607 3.48781 11.0393 3.48781 9.09882 3.53656C5.95033 3.61566 4.37608 3.65521 3.24495 4.79065C2.11382 5.92608 2.08114 7.45885 2.01576 10.5244C1.99474 11.5101 1.99475 12.4899 2.01577 13.4756Z" stroke="black" stroke-width="1.5" stroke-linejoin="round"/>
<path d="M27 15.4116L24.058 16.9464C23.2004 17.3938 22.6002 17.6175 22 17.6175" stroke="black" stroke-width="1.5" stroke-linecap="round" stroke-linejoin="round"/>
<path d="M22 11C22.9655 11 23.9309 11.0108 24.9012 11.0323C28.0497 11.1021 29.6239 11.137 30.7551 12.1388C31.8862 13.1407 31.9189 14.4931 31.9842 17.198C32.0053 18.0677 32.0053 18.9323 31.9842 19.802C31.9189 22.5069 31.8862 23.8593 30.7551 24.8612C29.6239 25.863 28.0497 25.8979 24.9012 25.9677C23.9309 25.9893 22.9655 26 22 26" stroke="black" stroke-width="1.5" stroke-linejoin="round"/>
<path d="M31.9842 20.0244C32.0052 21.0101 32.0052 21.99 31.9842 22.9756C31.9188 26.0412 31.8861 27.5739 30.755 28.7094C29.6239 29.8448 28.0496 29.8844 24.9011 29.9635C23.9309 29.9878 21.9655 30 21 30" stroke="black" stroke-width="1.5" stroke-linejoin="round"/>
</svg>
