<svg width="44" height="40" viewBox="0 0 44 40" fill="none" xmlns="http://www.w3.org/2000/svg">
<path d="M12.0158 14C11.9947 14.9035 11.9947 15.8018 12.0158 16.7053C12.0811 19.5154 12.1138 20.9204 13.245 21.9612C14.3761 23.002 15.9503 23.0383 19.0988 23.1108C21.0393 23.1555 22.9607 23.1555 24.9012 23.1108C28.0497 23.0383 29.6239 23.002 30.7551 21.9612C31.8862 20.9204 31.9189 19.5154 31.9842 16.7053C32.0053 15.8018 32.0053 14.9036 31.9842 14" stroke="black" stroke-width="1.5" stroke-linejoin="round"/>
<path d="M12.0158 17.209C11.9947 18.0715 11.9947 18.9288 12.0158 19.7913C12.0811 22.4737 12.1138 23.8148 13.245 24.8083C14.3761 25.8018 15.9503 25.8364 19.0988 25.9057C21.0393 25.9483 22.9607 25.9483 24.9012 25.9057C28.0497 25.8364 29.6239 25.8018 30.7551 24.8083C31.8862 23.8148 31.9189 22.4737 31.9842 19.7913C32.0053 18.9289 32.0053 18.0715 31.9842 17.209" stroke="black" stroke-width="1.5" stroke-linejoin="round"/>
<path d="M12.0158 19.6475C11.9947 20.551 11.9947 21.4492 12.0158 22.3528C12.0811 25.1628 12.1138 26.5679 13.245 27.6087C14.3761 28.6495 15.9503 28.6858 19.0988 28.7583C21.0393 28.803 22.9607 28.803 24.9012 28.7583C28.0497 28.6858 29.6239 28.6495 30.7551 27.6087C31.8862 26.5679 31.9189 25.1628 31.9842 22.3528C32.0053 21.4492 32.0053 20.551 31.9842 19.6475" stroke="black" stroke-width="1.5" stroke-linejoin="round"/>
<path d="M12.0158 22C11.9947 22.9035 11.9947 23.8018 12.0158 24.7053C12.0811 27.5154 12.1138 28.9204 13.245 29.9612C14.3761 31.002 15.9503 31.0383 19.0988 31.1108C21.0393 31.1555 22.9607 31.1555 24.9012 31.1108C28.0497 31.0383 29.6239 31.002 30.7551 29.9612C31.8862 28.9204 31.9189 27.5154 31.9842 24.7053C32.0053 23.8018 32.0053 22.9036 31.9842 22" stroke="black" stroke-width="1.5" stroke-linejoin="round"/>
<path d="M12.0158 24.353C11.9947 25.2566 11.9947 26.1548 12.0158 27.0583C12.0811 29.8684 12.1138 31.2734 13.245 32.3143C14.3761 33.3551 15.9503 33.3913 19.0988 33.4638C21.0393 33.5085 22.9607 33.5085 24.9012 33.4638C28.0497 33.3913 29.6239 33.3551 30.7551 32.3143C31.8862 31.2734 31.9189 29.8684 31.9842 27.0583C32.0053 26.1548 32.0053 25.2566 31.9842 24.353" stroke="black" stroke-width="1.5" stroke-linejoin="round"/>
<path d="M12.0158 26.7061C11.9947 27.6096 11.9947 28.5078 12.0158 29.4114C12.0811 32.2214 12.1138 33.6265 13.245 34.6673C14.3761 35.7081 15.9503 35.7444 19.0988 35.8169C21.0393 35.8616 22.9607 35.8616 24.9012 35.8169C28.0497 35.7444 29.6239 35.7081 30.7551 34.6673C31.8862 33.6265 31.9189 32.2214 31.9842 29.4114C32.0053 28.5078 32.0053 27.6096 31.9842 26.7061" stroke="black" stroke-width="1.5" stroke-linejoin="round"/>
<path d="M17 8.5L19.942 10.2394C21.6572 11.2535 22.3428 11.2535 24.058 10.2394L27 8.5" stroke="black" stroke-width="1.5" stroke-linecap="round" stroke-linejoin="round"/>
<path d="M12.0158 13.4756C12.0811 16.5412 12.1138 18.0739 13.245 19.2094C14.3761 20.3448 15.9503 20.3843 19.0988 20.4634C21.0393 20.5122 22.9607 20.5122 24.9012 20.4634C28.0497 20.3843 29.6239 20.3448 30.7551 19.2094C31.8862 18.0739 31.9189 16.5412 31.9842 13.4756C32.0053 12.4899 32.0053 11.5101 31.9842 10.5244C31.9189 7.45886 31.8862 5.92609 30.7551 4.79066C29.6239 3.65523 28.0497 3.61568 24.9012 3.53657C22.9607 3.48781 21.0393 3.48781 19.0988 3.53656C15.9503 3.61566 14.3761 3.65521 13.245 4.79065C12.1138 5.92608 12.0811 7.45885 12.0158 10.5244C11.9947 11.5101 11.9947 12.4899 12.0158 13.4756Z" stroke="black" stroke-width="1.5" stroke-linejoin="round"/>
<path d="M17 8.5L19.942 10.2394C21.6572 11.2535 22.3428 11.2535 24.058 10.2394L27 8.5" stroke="black" stroke-width="1.5" stroke-linecap="round" stroke-linejoin="round"/>
<path d="M12.0158 13.4756C12.0811 16.5412 12.1138 18.0739 13.245 19.2094C14.3761 20.3448 15.9503 20.3843 19.0988 20.4634C21.0393 20.5122 22.9607 20.5122 24.9012 20.4634C28.0497 20.3843 29.6239 20.3448 30.7551 19.2094C31.8862 18.0739 31.9189 16.5412 31.9842 13.4756C32.0053 12.4899 32.0053 11.5101 31.9842 10.5244C31.9189 7.45886 31.8862 5.92609 30.7551 4.79066C29.6239 3.65523 28.0497 3.61568 24.9012 3.53657C22.9607 3.48781 21.0393 3.48781 19.0988 3.53656C15.9503 3.61566 14.3761 3.65521 13.245 4.79065C12.1138 5.92608 12.0811 7.45885 12.0158 10.5244C11.9947 11.5101 11.9947 12.4899 12.0158 13.4756Z" stroke="black" stroke-width="1.5" stroke-linejoin="round"/>
<path d="M37 15.4116L34.058 16.9464C33.2004 17.3938 32.6002 17.6175 32 17.6175" stroke="black" stroke-width="1.5" stroke-linecap="round" stroke-linejoin="round"/>
<path d="M32 11C32.9655 11 33.9309 11.0108 34.9012 11.0323C38.0497 11.1021 39.6239 11.137 40.7551 12.1388C41.8862 13.1407 41.9189 14.4931 41.9842 17.198C42.0053 18.0677 42.0053 18.9323 41.9842 19.802C41.9189 22.5069 41.8862 23.8593 40.7551 24.8612C39.6239 25.863 38.0497 25.8979 34.9012 25.9677C33.9309 25.9893 32.9655 26 32 26" stroke="black" stroke-width="1.5" stroke-linejoin="round"/>
<path d="M41.9842 20.0244C42.0052 21.0101 42.0052 21.99 41.9842 22.9756C41.9188 26.0412 41.8861 27.5739 40.755 28.7094C39.6239 29.8448 38.0496 29.8844 34.9011 29.9635C33.9309 29.9878 31.9655 30 31 30" stroke="black" stroke-width="1.5" stroke-linejoin="round"/>
<path d="M7 15.4116L9.94202 16.9464C10.7996 17.3938 11.3998 17.6175 12 17.6175" stroke="black" stroke-width="1.5" stroke-linecap="round" stroke-linejoin="round"/>
<path d="M12 11C11.0345 11 10.0691 11.0108 9.09882 11.0323C5.95032 11.1021 4.37608 11.137 3.24495 12.1388C2.11382 13.1407 2.08114 14.4931 2.01576 17.198C1.99474 18.0677 1.99474 18.9323 2.01576 19.802C2.08114 22.5069 2.11382 23.8593 3.24495 24.8612C4.37608 25.863 5.95033 25.8979 9.09882 25.9677C10.0691 25.9893 11.0345 26 12 26" stroke="black" stroke-width="1.5" stroke-linejoin="round"/>
<path d="M2.01582 20.0244C1.9948 21.0101 1.9948 21.99 2.01582 22.9756C2.08119 26.0412 2.11388 27.5739 3.245 28.7094C4.37613 29.8448 5.95038 29.8844 9.09888 29.9635C10.0691 29.9878 12.0345 30 13 30" stroke="black" stroke-width="1.5" stroke-linejoin="round"/>
</svg>
