<svg width="46" height="38" viewBox="0 0 46 38" fill="none" xmlns="http://www.w3.org/2000/svg">
<path d="M13.0158 13.3252C12.9947 14.2287 12.9947 15.127 13.0158 16.0305C13.0811 18.8406 13.1138 20.2456 14.245 21.2864C15.3761 22.3272 16.9503 22.3635 20.0988 22.436C22.0393 22.4807 23.9607 22.4807 25.9012 22.436C29.0497 22.3635 30.6239 22.3272 31.7551 21.2864C32.8862 20.2456 32.9189 18.8406 32.9842 16.0305C33.0053 15.127 33.0053 14.2288 32.9842 13.3252" stroke="black" stroke-width="1.5" stroke-linejoin="round"/>
<path d="M13.0158 16.5342C12.9947 17.3967 12.9947 18.254 13.0158 19.1165C13.0811 21.7989 13.1138 23.14 14.245 24.1335C15.3761 25.127 16.9503 25.1616 20.0988 25.2309C22.0393 25.2735 23.9607 25.2735 25.9012 25.2309C29.0497 25.1616 30.6239 25.127 31.7551 24.1335C32.8862 23.14 32.9189 21.7989 32.9842 19.1165C33.0053 18.254 33.0053 17.3967 32.9842 16.5342" stroke="black" stroke-width="1.5" stroke-linejoin="round"/>
<path d="M13.0158 18.9727C12.9947 19.8762 12.9947 20.7744 13.0158 21.678C13.0811 24.488 13.1138 25.8931 14.245 26.9339C15.3761 27.9747 16.9503 28.011 20.0988 28.0835C22.0393 28.1282 23.9607 28.1282 25.9012 28.0835C29.0497 28.011 30.6239 27.9747 31.7551 26.9339C32.8862 25.8931 32.9189 24.488 32.9842 21.678C33.0053 20.7744 33.0053 19.8762 32.9842 18.9727" stroke="black" stroke-width="1.5" stroke-linejoin="round"/>
<path d="M13.0158 21.3252C12.9947 22.2287 12.9947 23.127 13.0158 24.0305C13.0811 26.8406 13.1138 28.2456 14.245 29.2864C15.3761 30.3272 16.9503 30.3635 20.0988 30.436C22.0393 30.4807 23.9607 30.4807 25.9012 30.436C29.0497 30.3635 30.6239 30.3272 31.7551 29.2864C32.8862 28.2456 32.9189 26.8406 32.9842 24.0305C33.0053 23.127 33.0053 22.2288 32.9842 21.3252" stroke="black" stroke-width="1.5" stroke-linejoin="round"/>
<path d="M13.0158 23.6777C12.9947 24.5813 12.9947 25.4795 13.0158 26.383C13.0811 29.1931 13.1138 30.5981 14.245 31.639C15.3761 32.6798 16.9503 32.716 20.0988 32.7885C22.0393 32.8332 23.9607 32.8332 25.9012 32.7885C29.0497 32.716 30.6239 32.6798 31.7551 31.639C32.8862 30.5981 32.9189 29.1931 32.9842 26.383C33.0053 25.4795 33.0053 24.5813 32.9842 23.6777" stroke="black" stroke-width="1.5" stroke-linejoin="round"/>
<path d="M13.0158 26.0308C12.9947 26.9343 12.9947 27.8325 13.0158 28.7361C13.0811 31.5461 13.1138 32.9512 14.245 33.992C15.3761 35.0328 16.9503 35.0691 20.0988 35.1416C22.0393 35.1863 23.9607 35.1863 25.9012 35.1416C29.0497 35.0691 30.6239 35.0328 31.7551 33.992C32.8862 32.9512 32.9189 31.5461 32.9842 28.7361C33.0053 27.8325 33.0053 26.9343 32.9842 26.0308" stroke="black" stroke-width="1.5" stroke-linejoin="round"/>
<path d="M18 7.8252L20.942 9.56463C22.6572 10.5787 23.3428 10.5787 25.058 9.56463L28 7.8252" stroke="black" stroke-width="1.5" stroke-linecap="round" stroke-linejoin="round"/>
<path d="M13.0158 12.8008C13.0811 15.8664 13.1138 17.3991 14.245 18.5345C15.3761 19.67 16.9503 19.7095 20.0988 19.7886C22.0393 19.8374 23.9607 19.8374 25.9012 19.7886C29.0497 19.7095 30.6239 19.67 31.7551 18.5345C32.8862 17.3991 32.9189 15.8664 32.9842 12.8008C33.0053 11.8151 33.0053 10.8353 32.9842 9.84959C32.9189 6.78406 32.8862 5.25129 31.7551 4.11586C30.6239 2.98043 29.0497 2.94087 25.9012 2.86176C23.9607 2.81301 22.0393 2.81301 20.0988 2.86176C16.9503 2.94086 15.3761 2.98041 14.245 4.11584C13.1138 5.25127 13.0811 6.78404 13.0158 9.84957C12.9947 10.8353 12.9947 11.8151 13.0158 12.8008Z" stroke="black" stroke-width="1.5" stroke-linejoin="round"/>
<path d="M18 7.8252L20.942 9.56463C22.6572 10.5787 23.3428 10.5787 25.058 9.56463L28 7.8252" stroke="black" stroke-width="1.5" stroke-linecap="round" stroke-linejoin="round"/>
<path d="M13.0158 12.8008C13.0811 15.8664 13.1138 17.3991 14.245 18.5345C15.3761 19.67 16.9503 19.7095 20.0988 19.7886C22.0393 19.8374 23.9607 19.8374 25.9012 19.7886C29.0497 19.7095 30.6239 19.67 31.7551 18.5345C32.8862 17.3991 32.9189 15.8664 32.9842 12.8008C33.0053 11.8151 33.0053 10.8353 32.9842 9.84959C32.9189 6.78406 32.8862 5.25129 31.7551 4.11586C30.6239 2.98043 29.0497 2.94087 25.9012 2.86176C23.9607 2.81301 22.0393 2.81301 20.0988 2.86176C16.9503 2.94086 15.3761 2.98041 14.245 4.11584C13.1138 5.25127 13.0811 6.78404 13.0158 9.84957C12.9947 10.8353 12.9947 11.8151 13.0158 12.8008Z" stroke="black" stroke-width="1.5" stroke-linejoin="round"/>
<path d="M38 11.7368L35.058 13.2716C34.2004 13.719 33.6002 13.9427 33 13.9427" stroke="black" stroke-width="1.5" stroke-linecap="round" stroke-linejoin="round"/>
<path d="M33 7.3252C33.9655 7.3252 34.9309 7.33595 35.9012 7.35746C39.0497 7.42726 40.6239 7.46216 41.7551 8.46402C42.8862 9.46587 42.9189 10.8183 42.9842 13.5232C43.0053 14.3929 43.0053 15.2575 42.9842 16.1272C42.9189 18.8321 42.8862 20.1845 41.7551 21.1864C40.6239 22.1882 39.0497 22.2231 35.9012 22.2929C34.9309 22.3144 33.9655 22.3252 33 22.3252" stroke="black" stroke-width="1.5" stroke-linejoin="round"/>
<path d="M42.9842 15.3252C43.0052 16.3109 43.0052 17.2907 42.9842 18.2764C42.9188 21.342 42.8861 22.8747 41.755 24.0102C40.6239 25.1456 39.0496 25.1851 35.9011 25.2642C34.9309 25.2886 32.9655 25.3008 32 25.3008" stroke="black" stroke-width="1.5" stroke-linejoin="round"/>
<path d="M42.9842 18.3252C43.0052 19.3109 43.0052 20.2907 42.9842 21.2764C42.9188 24.342 42.8861 25.8747 41.755 27.0102C40.6239 28.1456 39.0496 28.1851 35.9011 28.2642C34.9309 28.2886 32.9655 28.3008 32 28.3008" stroke="black" stroke-width="1.5" stroke-linejoin="round"/>
<path d="M8 11.7368L10.942 13.2716C11.7996 13.719 12.3998 13.9427 13 13.9427" stroke="black" stroke-width="1.5" stroke-linecap="round" stroke-linejoin="round"/>
<path d="M13 7.3252C12.0345 7.3252 11.0691 7.33595 10.0988 7.35746C6.95032 7.42726 5.37608 7.46216 4.24495 8.46402C3.11382 9.46587 3.08114 10.8183 3.01576 13.5232C2.99474 14.3929 2.99474 15.2575 3.01576 16.1272C3.08114 18.8321 3.11382 20.1845 4.24495 21.1864C5.37608 22.1882 6.95033 22.2231 10.0988 22.2929C11.0691 22.3144 12.0345 22.3252 13 22.3252" stroke="black" stroke-width="1.5" stroke-linejoin="round"/>
<path d="M3.01582 15.3252C2.9948 16.3109 2.9948 17.2907 3.01582 18.2764C3.08119 21.342 3.11388 22.8747 4.245 24.0102C5.37613 25.1456 6.95038 25.1851 10.0989 25.2642C11.0691 25.2886 13.0345 25.3008 14 25.3008" stroke="black" stroke-width="1.5" stroke-linejoin="round"/>
<path d="M3.01582 18.3252C2.9948 19.3109 2.9948 20.2907 3.01582 21.2764C3.08119 24.342 3.11388 25.8747 4.245 27.0102C5.37613 28.1456 6.95038 28.1851 10.0989 28.2642C11.0691 28.2886 13.0345 28.3008 14 28.3008" stroke="black" stroke-width="1.5" stroke-linejoin="round"/>
</svg>
