<svg width="109" height="21" viewBox="0 0 109 21" fill="none" xmlns="http://www.w3.org/2000/svg">
<rect x="0.5" y="0.5" width="30" height="20" rx="2.5" fill="white" stroke="#F4F6F6"/>
<path d="M27.9554 14.1161C27.3729 14.1161 26.7909 14.1137 26.2084 14.1184C26.1107 14.1184 26.0741 14.0936 26.0561 13.9975C25.9978 13.6836 25.9248 13.3724 25.8664 13.0604C25.8522 12.9859 25.8299 12.9587 25.7488 12.9592C24.9459 12.9623 24.1432 12.9623 23.3406 12.9592C23.2614 12.9592 23.2358 12.9901 23.2125 13.0557C23.0973 13.3799 22.9753 13.7028 22.8586 14.0256C22.8406 14.0748 22.8302 14.1193 22.7534 14.1193C22.0836 14.1156 21.4143 14.117 20.7445 14.1161C20.7328 14.1131 20.7216 14.1087 20.7109 14.103C20.7413 14.0285 20.7711 13.9535 20.8029 13.879C21.7633 11.6189 22.7229 9.3584 23.6817 7.0974C23.7522 6.88743 23.8909 6.70628 24.0762 6.58202C24.2615 6.45776 24.4831 6.39729 24.7067 6.41C25.2099 6.41 25.7132 6.41 26.2165 6.40625C26.3066 6.40625 26.3361 6.43437 26.3536 6.51684C26.5952 7.67264 26.8385 8.82657 27.0835 9.97862C27.3681 11.3247 27.6528 12.6708 27.9374 14.0172C27.9374 14.027 27.9517 14.0345 27.9593 14.043L27.9554 14.1161ZM24.9049 8.49702L23.8311 11.3848C24.3784 11.3848 24.9059 11.3848 25.4338 11.3848C25.5154 11.3848 25.5035 11.3525 25.4917 11.2962C25.3826 10.7836 25.2768 10.271 25.1696 9.75792C25.0833 9.34746 24.995 8.93513 24.9049 8.49702Z" fill="#1A1F71"/>
<path d="M19.7425 6.26602C19.9407 6.29882 20.1394 6.32834 20.3368 6.36488C20.5814 6.41078 20.8219 6.47674 21.0555 6.56213C21.1029 6.57947 21.145 6.58838 21.1327 6.66054C21.0459 7.16519 20.9643 7.67076 20.8799 8.17541C20.8756 8.1993 20.8671 8.22229 20.8586 8.25368C20.5816 8.12041 20.2896 8.0202 19.9887 7.95519C19.5251 7.84979 19.0431 7.85253 18.5808 7.96317C18.4185 8.00358 18.2713 8.08912 18.1568 8.20964C18.1121 8.25288 18.0765 8.30441 18.0521 8.3613C18.0276 8.41819 18.0148 8.4793 18.0143 8.5411C18.0139 8.60291 18.0258 8.66417 18.0494 8.72139C18.073 8.77862 18.1079 8.83065 18.152 8.87451C18.3136 9.03474 18.5011 9.16715 18.7069 9.26624C19.0987 9.45475 19.4802 9.66356 19.8497 9.89178C20.316 10.1666 20.6539 10.6119 20.7903 11.1312C20.8874 11.5416 20.8671 11.9706 20.7315 12.3703C20.596 12.7699 20.3506 13.1245 20.0228 13.3943C19.5259 13.8123 18.9156 14.0767 18.2678 14.1548C17.2401 14.3124 16.1889 14.2158 15.2083 13.8737C15.1011 13.8376 15.074 13.7954 15.0944 13.682C15.1845 13.1821 15.2656 12.6807 15.342 12.1784C15.3562 12.0847 15.3866 12.0978 15.4502 12.1278C15.8737 12.3472 16.3304 12.4975 16.8025 12.5729C17.2292 12.6502 17.6675 12.6386 18.0894 12.5387C18.263 12.494 18.4223 12.4061 18.5519 12.2834C18.6085 12.2315 18.6539 12.169 18.6855 12.0995C18.7171 12.0299 18.7343 11.9548 18.7359 11.8786C18.7375 11.8024 18.7235 11.7266 18.6948 11.6558C18.6661 11.5851 18.6233 11.5207 18.5689 11.4667C18.3634 11.2683 18.1236 11.108 17.8608 10.9934C17.4996 10.8267 17.1539 10.6292 16.8277 10.403C16.3808 10.1211 16.0656 9.67549 15.9511 9.16411C15.8867 8.81722 15.91 8.45997 16.0191 8.12416C16.1282 7.78834 16.3196 7.48435 16.5763 7.23922C17.0523 6.78012 17.6579 6.47404 18.3133 6.36114C18.4922 6.34015 18.6695 6.30759 18.8441 6.26367L19.7425 6.26602Z" fill="#1A1F71"/>
<path d="M7.85867 10.4764C7.97678 10.8513 8.01854 11.2421 8.11483 11.6254C8.16227 11.5926 8.16224 11.541 8.18026 11.4984C8.8067 9.83842 9.43151 8.17795 10.0548 6.51704C10.062 6.48223 10.0823 6.45144 10.1116 6.43084C10.141 6.41024 10.1771 6.40135 10.2127 6.40599C10.845 6.4102 11.4768 6.40599 12.1101 6.40599H12.2354C12.1272 6.66979 12.0256 6.92141 11.9227 7.16881C10.9845 9.4423 10.0468 11.716 9.10948 13.9898C9.10009 14.0283 9.07659 14.0621 9.04347 14.0845C9.01035 14.1069 8.97 14.1164 8.93021 14.1111C8.30219 14.1055 7.67409 14.1055 7.04607 14.1111C7.02758 14.1146 7.00859 14.1142 6.99026 14.11C6.97192 14.1058 6.95467 14.0978 6.93965 14.0866C6.92463 14.0753 6.91218 14.0611 6.90305 14.0449C6.89393 14.0286 6.88838 14.0106 6.88673 13.9921C6.30235 11.8086 5.71606 9.62567 5.12789 7.44339C5.12789 7.43543 5.12321 7.42793 5.12036 7.41997C5.15356 7.43637 5.18818 7.44997 5.21949 7.46684C5.67185 7.73477 6.09065 8.05433 6.4674 8.41896C7.06956 9.00288 7.54324 9.70333 7.85867 10.4764Z" fill="#1A1F71"/>
<path d="M12.7971 14.1156C12.5015 14.1156 12.2064 14.1109 11.9109 14.1179C11.8066 14.1203 11.7886 14.0884 11.8047 13.9951C11.9105 13.3691 12.0125 12.7427 12.1154 12.1162C12.2859 11.0775 12.4563 10.0389 12.6267 9.00022C12.7627 8.17179 12.8977 7.34306 13.0318 6.51401C13.0441 6.43857 13.0674 6.40481 13.1556 6.40528C13.7586 6.40965 14.3616 6.40965 14.9647 6.40528C15.0539 6.40528 15.0724 6.42124 15.0572 6.51401C14.754 8.34018 14.4536 10.1676 14.156 11.9962C14.0455 12.6714 13.9344 13.3462 13.8282 14.0219C13.8154 14.1015 13.7841 14.1198 13.7082 14.1189C13.4046 14.1132 13.1011 14.1156 12.7971 14.1156Z" fill="#1A1F71"/>
<path d="M7.85872 10.4763C7.54284 9.70453 7.0693 9.0054 6.46756 8.42258C6.09079 8.05798 5.67187 7.73842 5.21953 7.47046C5.18775 7.45172 5.15361 7.43765 5.1204 7.42359C4.80503 7.22658 4.47056 7.06115 4.12194 6.92974C3.784 6.79313 3.4373 6.67869 3.0841 6.58721C3.04473 6.5769 2.98596 6.58158 3.00304 6.50802C3.01679 6.44851 3.02819 6.40774 3.1112 6.40821C4.19648 6.41336 5.28118 6.40821 6.36646 6.41805C6.57556 6.40434 6.78178 6.4726 6.94027 6.60803C7.09876 6.74346 7.19683 6.93514 7.21322 7.14152C7.42288 8.20563 7.63776 9.2693 7.85026 10.3329C7.86479 10.3794 7.86763 10.4285 7.85872 10.4763Z" fill="#F8920F"/>
<rect x="39.5" y="0.5" width="30" height="20" rx="2.5" fill="white" stroke="#F4F6F6"/>
<path d="M50.6176 2.54541H51.4263C51.4337 2.56555 51.4517 2.5599 51.4672 2.5607C51.7413 2.57912 52.0138 2.6159 52.2828 2.67072C53.2319 2.86114 54.1228 3.26783 54.8847 3.85839C54.7587 3.96797 54.6291 4.07393 54.5072 4.18754C54.3313 4.3517 54.1641 4.52476 54.0064 4.70604C53.6986 5.06026 53.4323 5.44772 53.2127 5.86105C53.0144 6.23548 52.8558 6.62917 52.7395 7.03584C52.6035 7.51053 52.5257 7.9996 52.5076 8.49261C52.4956 8.84671 52.5156 9.20116 52.5671 9.55178C52.6129 9.87932 52.6855 10.2027 52.7841 10.5187C52.9264 10.9749 53.1223 11.413 53.368 11.824C53.6044 12.2193 53.8843 12.5875 54.2025 12.9222C54.4177 13.1429 54.6465 13.3502 54.8876 13.543C54.8823 13.5486 54.8766 13.5539 54.8705 13.5588C54.1169 14.146 53.2349 14.5513 52.2948 14.7423C51.3546 14.9333 50.3823 14.9048 49.4553 14.659C48.6752 14.4727 47.9402 14.1358 47.2926 13.6675C46.645 13.1993 46.0976 12.609 45.682 11.9308C45.1991 11.1734 44.8956 10.318 44.7942 9.42849C44.7889 9.30806 44.7745 9.1882 44.751 9.06992V8.33834C44.7718 8.32666 44.7645 8.30652 44.7657 8.2896C44.7886 7.90661 44.8507 7.52685 44.9512 7.15628C45.1571 6.3665 45.5213 5.62557 46.0223 4.97731C46.5232 4.32904 47.1507 3.78664 47.8677 3.38219C48.6061 2.95338 49.4278 2.68321 50.2791 2.58933C50.3931 2.58552 50.5065 2.57081 50.6176 2.54541Z" fill="#DA0018"/>
<path d="M58.3726 2.54541H59.1336C59.1487 2.56676 59.172 2.55832 59.1916 2.55952C59.5157 2.57858 59.8376 2.62413 60.1541 2.6957C61.456 2.97355 62.6303 3.66407 63.4983 4.66212C64.1254 5.34998 64.5824 6.17228 64.8331 7.06426C65.0839 7.95625 65.1215 8.89358 64.9432 9.80239C64.7156 11.1344 64.0324 12.3489 63.0077 13.2433C61.8891 14.2594 60.4312 14.8335 58.9118 14.856C58.3515 14.8714 57.7917 14.8094 57.2487 14.6719C56.3967 14.4626 55.5996 14.0767 54.9102 13.5398C55.0231 13.4468 55.141 13.3589 55.2482 13.2598C55.6153 12.9287 55.9428 12.5571 56.2242 12.1523C56.4951 11.757 56.719 11.3321 56.8914 10.8861C57.1248 10.2788 57.2593 9.6387 57.2898 8.98976C57.3064 8.64586 57.2928 8.30119 57.2491 7.95961C57.1991 7.55704 57.1097 7.16025 56.9819 6.7748C56.8422 6.3587 56.6576 5.95862 56.4314 5.58147C56.1949 5.18598 55.9149 4.81751 55.5965 4.48281C55.3814 4.26178 55.1536 4.05318 54.9142 3.85799C55.1681 3.65873 55.4385 3.48094 55.7226 3.32657C56.4357 2.93297 57.2201 2.68155 58.0313 2.58652C58.1462 2.58453 58.2606 2.57073 58.3726 2.54541Z" fill="#F68A0D"/>
<path d="M54.8836 3.8584H54.9146C55.154 4.05355 55.3818 4.26219 55.5969 4.48327C55.9153 4.81795 56.1953 5.18642 56.4317 5.58192C56.6581 5.95906 56.8428 6.35914 56.9827 6.77525C57.1105 7.1607 57.1999 7.55749 57.2498 7.96006C57.2935 8.30163 57.3072 8.64631 57.2906 8.99022C57.26 9.63914 57.1255 10.2792 56.8921 10.8866C56.7197 11.3325 56.4958 11.7574 56.2249 12.1528C55.9436 12.5576 55.6161 12.9292 55.249 13.2603C55.1417 13.359 55.0238 13.4472 54.9109 13.5403H54.886C54.6449 13.3475 54.416 13.1402 54.2009 12.9195C53.8827 12.5848 53.6028 12.2165 53.3664 11.8212C53.1207 11.4102 52.9247 10.9721 52.7824 10.5159C52.684 10.1999 52.6115 9.87652 52.5658 9.54899C52.5143 9.19838 52.4943 8.84397 52.5063 8.48987C52.5244 7.99698 52.6023 7.50802 52.7384 7.03349C52.8547 6.62683 53.0132 6.23314 53.2114 5.8587C53.4311 5.44538 53.6973 5.05788 54.0051 4.70364C54.1629 4.52238 54.33 4.34932 54.5059 4.18514C54.6279 4.07395 54.7572 3.96798 54.8836 3.8584Z" fill="#E54911"/>
<path d="M46.1457 16.5256C46.2106 16.4485 46.2928 16.3874 46.3858 16.3472C46.4788 16.307 46.58 16.2888 46.6814 16.294C46.7828 16.2992 46.8815 16.3277 46.9698 16.3772C47.058 16.4267 47.1333 16.4959 47.1898 16.5792C47.2843 16.4492 47.4225 16.3565 47.5797 16.3177C47.7136 16.2847 47.8537 16.2847 47.9875 16.3177C48.1174 16.3462 48.2334 16.4176 48.3164 16.5202C48.3994 16.6228 48.4444 16.7504 48.4439 16.8818C48.4504 17.2294 48.4439 17.5771 48.4472 17.9248C48.4472 17.9651 48.4345 17.9776 48.3933 17.9764C48.3009 17.9716 48.2084 17.9716 48.116 17.9764C48.0479 17.9812 48.0397 17.9538 48.0401 17.8958C48.0401 17.5949 48.0438 17.2939 48.0348 16.9934C48.0388 16.9462 48.0325 16.8988 48.0162 16.8544C48 16.8099 47.9742 16.7694 47.9406 16.7356C47.9071 16.7019 47.8667 16.6757 47.822 16.6587C47.7773 16.6418 47.7294 16.6346 47.6817 16.6376C47.6315 16.6335 47.5809 16.6397 47.5332 16.6559C47.4856 16.6721 47.4419 16.6979 47.4049 16.7316C47.3678 16.7653 47.3382 16.8063 47.318 16.8519C47.2979 16.8976 47.2876 16.9468 47.2877 16.9966C47.2771 17.2947 47.2791 17.5932 47.282 17.8914C47.282 17.9611 47.2636 17.9812 47.1943 17.9752C47.1204 17.9697 47.0463 17.9697 46.9724 17.9752C46.919 17.9784 46.9067 17.9599 46.9071 17.9099C46.9096 17.6279 46.9071 17.3495 46.9071 17.0695C46.9085 17.0333 46.9067 16.997 46.9018 16.9611C46.9002 16.914 46.8886 16.8678 46.8678 16.8254C46.847 16.783 46.8174 16.7454 46.7809 16.715C46.7444 16.6846 46.7018 16.6622 46.656 16.649C46.6102 16.6359 46.5621 16.6324 46.5148 16.6388C46.4638 16.6386 46.4133 16.649 46.3666 16.6691C46.3198 16.6893 46.2779 16.7188 46.2434 16.7559C46.2089 16.793 46.1825 16.8367 46.166 16.8844C46.1496 16.9321 46.1434 16.9827 46.1478 17.0328C46.1437 17.3233 46.1446 17.6138 46.1478 17.9047C46.1478 17.9647 46.1307 17.9792 46.0727 17.9756C45.9912 17.9703 45.9096 17.9723 45.828 17.9756C45.7901 17.9756 45.7783 17.9651 45.7783 17.9276C45.7783 17.4114 45.7783 16.8952 45.7783 16.379C45.7783 16.3387 45.7893 16.3246 45.8317 16.3262C45.9186 16.3294 46.0063 16.329 46.0932 16.3262C46.1339 16.3262 46.1515 16.3339 46.1478 16.3774C46.1441 16.4209 46.1457 16.4628 46.1457 16.5256Z" fill="#26292C"/>
<path d="M63.7033 16.5242C63.7033 16.2579 63.7058 16.0097 63.7033 15.762C63.7033 15.6959 63.7155 15.6677 63.7889 15.6749C63.86 15.6812 63.9316 15.6812 64.0027 15.6749C64.0675 15.6697 64.0814 15.6935 64.081 15.7535C64.0785 16.3175 64.081 16.8848 64.081 17.4504C64.081 17.6059 64.081 17.7618 64.081 17.9173C64.081 17.9608 64.0695 17.977 64.0234 17.9749C63.9361 17.9717 63.8489 17.9717 63.762 17.9749C63.7155 17.9749 63.7016 17.9604 63.7049 17.9169C63.7082 17.8734 63.7049 17.8364 63.7049 17.7836C63.6109 17.8896 63.4858 17.9643 63.3471 17.9972C63.2083 18.0301 63.0626 18.0196 62.9301 17.9673C62.7895 17.9286 62.6628 17.8518 62.5642 17.7456C62.4656 17.6393 62.3992 17.5079 62.3725 17.3662C62.3184 17.1715 62.3356 16.9642 62.4213 16.7809C62.507 16.5976 62.6556 16.4502 62.8407 16.3647C62.9827 16.2959 63.1434 16.2743 63.2988 16.3031C63.4542 16.3318 63.5961 16.4094 63.7033 16.5242ZM63.738 17.1478C63.7437 17.0619 63.7266 16.9759 63.6884 16.8984C63.6502 16.8209 63.5922 16.7546 63.5201 16.7061C63.448 16.6575 63.3644 16.6283 63.2775 16.6214C63.1905 16.6146 63.1032 16.6302 63.0243 16.6668C62.9079 16.726 62.8171 16.8247 62.7685 16.9447C62.7198 17.0648 62.7166 17.1981 62.7596 17.3203C62.7954 17.4424 62.8775 17.5462 62.9887 17.6102C63.0999 17.6741 63.2319 17.6934 63.3571 17.6639C63.4707 17.6339 63.5705 17.5663 63.6397 17.4724C63.709 17.3784 63.7435 17.2639 63.7376 17.1478H63.738Z" fill="#26292C"/>
<path d="M60.3354 16.513C60.3372 16.508 60.3385 16.5029 60.3395 16.4977C60.3452 16.326 60.3452 16.326 60.5251 16.326C60.7147 16.326 60.7147 16.326 60.7147 16.5093C60.7147 16.9735 60.7147 17.436 60.7147 17.9017C60.7147 17.9589 60.7013 17.9794 60.6405 17.9754C60.559 17.9709 60.4773 17.9709 60.3958 17.9754C60.3489 17.9774 60.3359 17.9605 60.3391 17.9174C60.3424 17.8743 60.3391 17.8368 60.3391 17.7873C60.2356 17.8999 60.0977 17.9761 59.9463 18.0042C59.795 18.0323 59.6385 18.0109 59.5006 17.9432C59.3552 17.89 59.2291 17.7954 59.1381 17.6714C59.0471 17.5475 58.9952 17.3996 58.9892 17.2466C58.9683 17.1033 58.9851 16.9571 59.0381 16.8222C59.091 16.6872 59.1782 16.5679 59.2914 16.4759C59.4381 16.3511 59.6272 16.2856 59.8208 16.2925C60.0143 16.2994 60.1981 16.3781 60.3354 16.513ZM60.3762 17.1515C60.3826 17.0649 60.3658 16.9781 60.3276 16.8999C60.2894 16.8217 60.2311 16.7547 60.1584 16.7058C60.0858 16.6568 60.0014 16.6276 59.9137 16.621C59.826 16.6143 59.7381 16.6306 59.6588 16.6681C59.5417 16.7289 59.451 16.8298 59.4037 16.952C59.3564 17.0741 59.3557 17.2091 59.4019 17.3316C59.4388 17.4491 59.5191 17.5487 59.6268 17.6105C59.7345 17.6724 59.8618 17.692 59.9835 17.6656C60.0992 17.6386 60.2017 17.5724 60.2731 17.4784C60.3444 17.3845 60.3802 17.2688 60.3742 17.1515H60.3762Z" fill="#26292C"/>
<path d="M50.1296 17.7792C50.0072 17.9045 49.8445 17.9837 49.6695 18.0032C49.4944 18.0228 49.3179 17.9815 49.1703 17.8864C49.0265 17.7937 48.9131 17.6617 48.8441 17.5063C48.775 17.351 48.7533 17.1791 48.7816 17.0117C48.802 16.847 48.8728 16.6924 48.9844 16.5684C49.0961 16.4444 49.2432 16.3569 49.4064 16.3176C49.532 16.2808 49.6654 16.2796 49.7916 16.3141C49.9179 16.3487 50.0317 16.4176 50.1201 16.513C50.1333 16.4741 50.1363 16.4325 50.1287 16.3921C50.1238 16.3353 50.1466 16.3212 50.2005 16.324C50.282 16.3281 50.3636 16.3273 50.4452 16.324C50.4889 16.324 50.5048 16.3341 50.5048 16.38C50.5031 16.8936 50.5031 17.4072 50.5048 17.921C50.5048 17.9613 50.4921 17.975 50.4509 17.9738C50.3665 17.971 50.2812 17.9694 50.1972 17.9738C50.1393 17.977 50.1226 17.9565 50.1287 17.9033C50.1328 17.8707 50.1296 17.8332 50.1296 17.7792ZM50.1467 17.0988C50.1465 17.0098 50.1207 16.9228 50.0724 16.8478C50.0241 16.7727 49.9552 16.7128 49.8738 16.6749C49.7907 16.6308 49.6964 16.6114 49.6024 16.6189C49.5083 16.6265 49.4185 16.6608 49.3437 16.7177C49.2561 16.7891 49.1924 16.8851 49.161 16.9929C49.1296 17.1008 49.132 17.2155 49.1679 17.322C49.2034 17.4428 49.2843 17.5457 49.3941 17.6096C49.5038 17.6735 49.6342 17.6935 49.7584 17.6656C49.8813 17.6329 49.9881 17.5577 50.0595 17.4536C50.1308 17.3496 50.162 17.2236 50.1471 17.0988H50.1467Z" fill="#26292C"/>
<path d="M55.1446 17.3067C54.9623 17.3067 54.78 17.3095 54.5977 17.3067C54.5284 17.3067 54.5284 17.3252 54.5459 17.3816C54.5857 17.4931 54.6653 17.5863 54.77 17.6437C54.8746 17.7011 54.9969 17.7186 55.1137 17.693C55.2422 17.6776 55.3649 17.6311 55.4709 17.5577C55.5056 17.5339 55.5252 17.5291 55.5496 17.5693C55.5875 17.6314 55.6312 17.6902 55.6719 17.7506C55.6854 17.7704 55.6973 17.7853 55.6687 17.807C55.4678 17.9613 55.2144 18.0332 54.9613 18.0078C54.7081 17.9825 54.4745 17.8618 54.309 17.6709C54.1767 17.4741 54.1261 17.2346 54.1679 17.002C54.2096 16.7695 54.3405 16.5617 54.5333 16.422C54.6478 16.3429 54.7817 16.2957 54.921 16.2854C55.0603 16.275 55.1999 16.3019 55.325 16.3633C55.4502 16.4246 55.5563 16.518 55.6323 16.6339C55.7082 16.7497 55.7512 16.8836 55.7568 17.0214C55.7625 17.0936 55.7592 17.1669 55.767 17.2386C55.7739 17.3006 55.7478 17.3103 55.6916 17.3095C55.5084 17.3031 55.3269 17.3067 55.1446 17.3067ZM54.9782 16.9957C55.1006 16.9957 55.2262 16.9928 55.3498 16.9957C55.4101 16.9977 55.4122 16.9787 55.3987 16.9288C55.3822 16.8347 55.3312 16.7498 55.2554 16.6904C55.1797 16.631 55.0846 16.6011 54.988 16.6065C54.8874 16.6051 54.7894 16.6379 54.7104 16.6994C54.6313 16.761 54.5762 16.8475 54.5541 16.9445C54.5439 16.9868 54.5541 16.9981 54.5985 16.9969C54.725 16.9924 54.8514 16.9941 54.9782 16.9941V16.9957Z" fill="#26292C"/>
<path d="M51.0034 17.5249C51.1818 17.6454 51.3952 17.7048 51.611 17.6941C51.6982 17.6937 51.7838 17.6709 51.8594 17.628C51.8852 17.6145 51.9066 17.5941 51.921 17.569C51.9354 17.544 51.9423 17.5154 51.941 17.4866C51.9373 17.4274 51.8904 17.3996 51.8406 17.377C51.7247 17.3343 51.6026 17.3102 51.4789 17.3057C51.3717 17.2939 51.2669 17.266 51.1682 17.2231C51.0948 17.1907 51.0312 17.1398 50.984 17.0756C50.9367 17.0113 50.9072 16.936 50.8986 16.857C50.8899 16.7781 50.9024 16.6982 50.9346 16.6255C50.9669 16.5527 51.0178 16.4896 51.0825 16.4424C51.1888 16.3647 51.3143 16.3168 51.4459 16.3038C51.7033 16.2699 51.9653 16.3095 52.2008 16.4178C52.2669 16.4488 52.2824 16.4786 52.2387 16.5431C52.1951 16.6075 52.1787 16.7042 52.1208 16.7389C52.0629 16.7735 51.983 16.6938 51.9087 16.6744C51.7689 16.6266 51.6195 16.6128 51.4732 16.6341C51.4292 16.6417 51.3874 16.6587 51.3509 16.6841C51.328 16.6964 51.3094 16.7154 51.2976 16.7383C51.2859 16.7613 51.2814 16.7872 51.2848 16.8127C51.2881 16.8383 51.2993 16.8622 51.3167 16.8814C51.3341 16.9005 51.3569 16.9141 51.3822 16.9202C51.4959 16.9535 51.6133 16.9726 51.7318 16.977C51.8548 16.9905 51.974 17.0277 52.0825 17.0866C52.1479 17.123 52.2032 17.1748 52.2434 17.2374C52.2837 17.3 52.3078 17.3714 52.3135 17.4454C52.3193 17.5193 52.3064 17.5935 52.2763 17.6614C52.2461 17.7293 52.1994 17.7888 52.1404 17.8347C52.0168 17.9292 51.8677 17.9853 51.7118 17.9958C51.4276 18.0331 51.1387 17.9783 50.8888 17.8395C50.8398 17.8117 50.8256 17.7908 50.8631 17.7408C50.9141 17.6739 50.9565 17.599 51.0034 17.5249Z" fill="#26292C"/>
<path d="M52.9019 17.1245C52.9019 16.9702 52.9019 16.8424 52.9019 16.7159C52.9019 16.67 52.8933 16.6507 52.8415 16.6539C52.7706 16.6587 52.6988 16.6519 52.6278 16.6563C52.5768 16.6595 52.565 16.6406 52.5675 16.5943C52.5717 16.5244 52.5717 16.4543 52.5675 16.3844C52.5642 16.3332 52.585 16.3231 52.6315 16.3252C52.7053 16.3284 52.7795 16.3252 52.8533 16.3252C52.8917 16.3252 52.9023 16.3143 52.9019 16.2772C52.8998 16.1475 52.9019 16.0178 52.9019 15.888C52.9019 15.8409 52.9133 15.824 52.9635 15.8264C53.0479 15.8304 53.1327 15.83 53.2172 15.8264C53.2641 15.8264 53.2751 15.8417 53.2743 15.8844C53.2718 16.0113 53.2743 16.1386 53.2743 16.2655C53.2743 16.3143 53.2881 16.3264 53.3362 16.3256C53.4945 16.3227 53.6531 16.3256 53.8118 16.3256C53.855 16.3256 53.8749 16.3344 53.8709 16.3812C53.8739 16.4711 53.8706 16.5612 53.8611 16.6507C53.7742 16.6507 53.6874 16.6547 53.6005 16.6555C53.5136 16.6563 53.421 16.6555 53.3309 16.6555C53.2991 16.6555 53.2742 16.6555 53.2751 16.699C53.2799 16.9504 53.2653 17.2022 53.2832 17.4532C53.2826 17.4834 53.2886 17.5134 53.3009 17.5411C53.3133 17.5688 53.3316 17.5935 53.3546 17.6134C53.3776 17.6334 53.4047 17.6481 53.4341 17.6566C53.4635 17.6652 53.4944 17.6672 53.5246 17.6627C53.6172 17.6634 53.7084 17.6413 53.7901 17.5982C53.8276 17.5769 53.8387 17.589 53.8493 17.6228C53.8725 17.6965 53.8949 17.7711 53.9235 17.8428C53.9374 17.8774 53.9316 17.8931 53.8986 17.9084C53.7043 18.0064 53.4811 18.0328 53.2689 17.983C53.176 17.9616 53.0923 17.9119 53.0297 17.8408C52.9671 17.7696 52.9288 17.6808 52.9202 17.587C52.9039 17.4333 52.8978 17.2789 52.9019 17.1245Z" fill="#26292C"/>
<path d="M58.6384 17.5261C58.6906 17.6127 58.7412 17.7005 58.7958 17.7855C58.817 17.8186 58.7979 17.8302 58.7762 17.8459C58.6613 17.9294 58.5261 17.9817 58.3843 17.9974C58.1508 18.0356 57.9112 17.9907 57.7081 17.8705C57.579 17.789 57.4752 17.6737 57.4083 17.5374C57.3415 17.4012 57.3141 17.2493 57.3293 17.0986C57.3298 16.9244 57.3884 16.7552 57.496 16.6172C57.6036 16.4792 57.7543 16.3801 57.9247 16.3352C58.0641 16.2896 58.2122 16.2759 58.3578 16.295C58.5034 16.3141 58.6427 16.3656 58.7652 16.4456C58.8089 16.4746 58.8129 16.4983 58.7836 16.5354C58.7788 16.5416 58.7744 16.548 58.7705 16.5547C58.7297 16.6216 58.7061 16.7159 58.6482 16.7481C58.5903 16.7803 58.5201 16.6933 58.4512 16.6675C58.3809 16.6348 58.304 16.6178 58.2262 16.6179C58.1485 16.618 58.0717 16.6352 58.0015 16.6682C57.9312 16.7012 57.8693 16.7492 57.8201 16.8087C57.7709 16.8682 57.7357 16.9378 57.7171 17.0124C57.6771 17.1403 57.6887 17.2786 57.7495 17.3983C57.8103 17.518 57.9156 17.6098 58.0434 17.6546C58.1259 17.6781 58.2123 17.6844 58.2974 17.6732C58.3825 17.6619 58.4643 17.6334 58.5376 17.5893C58.5686 17.5708 58.6009 17.549 58.6384 17.5261Z" fill="#26292C"/>
<path d="M56.5318 16.525C56.601 16.4295 56.6979 16.3568 56.8097 16.3165C56.9215 16.2763 57.043 16.2703 57.1582 16.2994C57.2068 16.3047 57.2084 16.3284 57.1957 16.3659C57.17 16.4416 57.1427 16.5174 57.1239 16.5947C57.1117 16.6451 57.0929 16.6556 57.0424 16.6431C56.9741 16.6222 56.9023 16.615 56.8311 16.6217C56.7411 16.6335 56.6594 16.6798 56.6036 16.7505C56.5478 16.8213 56.5225 16.9109 56.533 17C56.5305 17.2955 56.5305 17.5909 56.533 17.8863C56.533 17.9508 56.5236 17.9806 56.4486 17.973C56.3721 17.9678 56.2954 17.9678 56.2189 17.973C56.1782 17.973 56.1578 17.9661 56.1582 17.919C56.1598 17.4052 56.1598 16.8914 56.1582 16.3776C56.1582 16.33 56.1774 16.322 56.2194 16.3232C56.3038 16.3256 56.3886 16.3272 56.473 16.3232C56.5257 16.3204 56.5363 16.3417 56.5322 16.3864C56.5293 16.4259 56.5318 16.4642 56.5318 16.525Z" fill="#26292C"/>
<path d="M61.5798 16.5076C61.6444 16.4219 61.7326 16.3563 61.8338 16.3186C61.935 16.2809 62.045 16.2727 62.1508 16.2949C62.2478 16.303 62.2507 16.3058 62.2242 16.3916C62.2038 16.4581 62.181 16.5242 62.163 16.5931C62.1508 16.6398 62.1348 16.666 62.0777 16.6454C62.038 16.6336 61.9969 16.6264 61.9554 16.6241C61.909 16.6175 61.8616 16.6208 61.8165 16.6336C61.7714 16.6465 61.7296 16.6687 61.6938 16.6988C61.6581 16.7288 61.6292 16.7661 61.6091 16.808C61.5891 16.8499 61.5782 16.8956 61.5774 16.9419C61.5619 17.0922 61.57 17.2425 61.5688 17.3928C61.5688 17.5664 61.5688 17.74 61.5688 17.9137C61.5688 17.9584 61.5615 17.9793 61.5093 17.9765C61.4224 17.9721 61.3351 17.9737 61.2478 17.9765C61.2115 17.9765 61.1973 17.9681 61.1973 17.9294C61.1973 17.411 61.1973 16.8925 61.1973 16.3739C61.1973 16.3336 61.2128 16.3264 61.2486 16.3272C61.3331 16.3272 61.4179 16.3304 61.5019 16.3272C61.5525 16.3251 61.5753 16.3372 61.5688 16.3908C61.5666 16.4264 61.5666 16.462 61.5688 16.4976L61.5798 16.5076Z" fill="#26292C"/>
<rect x="78.5" y="0.5" width="30" height="20" rx="2.5" fill="white" stroke="#F4F6F6"/>
<path d="M105.999 7.77284C105.963 7.85804 105.935 7.94638 105.916 8.03668C105.837 8.27422 105.688 8.48357 105.486 8.63826C105.285 8.79294 105.042 8.88601 104.786 8.90568C104.441 8.94663 104.091 8.90704 103.765 8.7902C103.67 8.77184 103.571 8.77919 103.48 8.81147C103.351 8.83447 103.22 8.84583 103.088 8.84541C101.847 8.84541 100.606 8.84541 99.3655 8.84541C99.2579 8.84541 99.2496 8.81249 99.2678 8.72539C99.2953 8.59372 99.3125 8.46002 99.3312 8.32632C99.3385 8.27568 99.3577 8.25544 99.4159 8.25595C99.8389 8.25898 100.261 8.25595 100.684 8.25595C100.754 8.26113 100.823 8.27475 100.889 8.29647C100.905 7.89848 100.889 7.49984 100.84 7.10438C100.825 6.99851 100.778 6.89923 100.706 6.81841C100.635 6.73759 100.54 6.67863 100.435 6.6486C100.371 6.63412 100.305 6.62833 100.239 6.63138C100.028 6.63138 99.816 6.63138 99.6045 6.63138C99.5416 6.63138 99.5177 6.61975 99.5287 6.5529C99.5546 6.40098 99.5739 6.24905 99.5957 6.09308C99.6004 6.06016 99.6108 6.03534 99.6529 6.03636C100.013 6.01488 100.374 6.02878 100.731 6.07787C100.972 6.12681 101.192 6.24719 101.36 6.4225C101.528 6.59782 101.637 6.81952 101.671 7.05727C101.719 7.40479 101.733 7.75592 101.713 8.10604C101.717 8.25796 101.713 8.25795 101.869 8.25795C102.289 8.25795 102.708 8.25392 103.127 8.26101C103.231 8.26101 103.26 8.21442 103.27 8.13441C103.274 8.09081 103.275 8.04699 103.274 8.00324C103.274 7.63187 103.274 7.26053 103.274 6.88916C103.259 6.719 103.307 6.54927 103.408 6.40974C103.509 6.2702 103.657 6.16976 103.826 6.12599C104.192 5.99216 104.59 5.96818 104.969 6.05713C105.23 6.11528 105.465 6.24968 105.645 6.44225C105.824 6.63482 105.939 6.8763 105.973 7.13424C105.977 7.15196 105.966 7.17629 105.995 7.1849L105.999 7.77284ZM104.065 7.53531H104.071C104.071 7.73028 104.071 7.92575 104.071 8.12072C104.071 8.17136 104.082 8.19518 104.142 8.2043C104.292 8.22804 104.444 8.2404 104.596 8.24126C104.722 8.25082 104.847 8.21631 104.948 8.14396C105.05 8.07161 105.122 7.9662 105.151 7.84678C105.226 7.60376 105.232 7.34544 105.168 7.09931C105.151 6.98288 105.09 6.87686 104.997 6.80194C104.904 6.72702 104.786 6.68859 104.665 6.69419C104.51 6.68578 104.354 6.7015 104.203 6.74077C104.051 6.7828 104.059 6.78179 104.064 6.93169C104.068 7.13122 104.065 7.33376 104.065 7.53531H104.065Z" fill="#26292C"/>
<path d="M105.978 14.1031C105.729 14.0616 105.48 14.0256 105.232 13.977C105.122 13.9703 105.012 13.9835 104.907 14.016C104.618 14.0744 104.32 14.0709 104.033 14.0059C103.866 13.9682 103.717 13.8769 103.61 13.7467C103.504 13.6165 103.445 13.455 103.444 13.2883C103.426 13.1173 103.471 12.9456 103.569 12.803C103.668 12.6605 103.814 12.556 103.984 12.5079C104.177 12.4446 104.38 12.4117 104.584 12.4102C104.768 12.4066 104.952 12.4076 105.135 12.4102C105.187 12.4102 105.205 12.3995 105.208 12.3443C105.218 12.0212 105.079 11.8799 104.74 11.8886C104.401 11.8975 104.065 11.9619 103.748 12.079C103.659 12.1109 103.624 12.1033 103.614 12.0045C103.601 11.8643 103.575 11.7245 103.551 11.5852C103.545 11.5447 103.554 11.5275 103.598 11.5143C104.034 11.3587 104.494 11.2786 104.959 11.2778C105.135 11.2816 105.31 11.315 105.475 11.3766C105.612 11.4261 105.732 11.5123 105.821 11.6251C105.911 11.7379 105.965 11.8729 105.98 12.0147C105.982 12.0329 105.973 12.0562 106 12.0653V12.1058C105.962 12.1342 105.98 12.1742 105.98 12.2071C105.978 12.8388 105.977 13.4708 105.978 14.1031ZM104.861 12.8877C104.721 12.8757 104.579 12.8914 104.445 12.9338C104.382 12.9618 104.329 13.0089 104.295 13.0681C104.262 13.1274 104.248 13.1957 104.257 13.263C104.262 13.3273 104.29 13.3879 104.335 13.4352C104.38 13.4825 104.44 13.5137 104.505 13.5238C104.736 13.5474 104.969 13.5189 105.186 13.4407C105.226 13.4321 105.216 13.4002 105.216 13.3754C105.216 13.2341 105.216 13.0923 105.216 12.951C105.216 12.8933 105.192 12.8847 105.143 12.8862C105.055 12.8882 104.969 12.8862 104.861 12.8862V12.8877Z" fill="#26292C"/>
<path d="M105.978 14.1027C105.978 13.4704 105.978 12.8382 105.978 12.2062C105.978 12.1718 105.96 12.1318 105.998 12.105V14.1083L105.978 14.1027Z" fill="#26292C"/>
<path d="M86.324 6.01318C88.0434 6.01318 89.7626 6.01318 91.4816 6.01318C91.5855 6.01318 91.6063 6.03901 91.6058 6.13574C91.602 7.19784 91.602 8.26011 91.6058 9.32255C91.6058 9.4132 91.585 9.44106 91.4868 9.44106C88.0415 9.43835 84.5962 9.43835 81.1508 9.44106C81.0552 9.44106 81.0386 9.41371 81.0386 9.32762C81.0417 8.26214 81.0417 7.19649 81.0386 6.13067C81.0386 6.04103 81.0583 6.01318 81.156 6.01318C82.8785 6.01487 84.6012 6.01487 86.324 6.01318Z" fill="#008BCE"/>
<path d="M86.3107 14.106C84.592 14.106 82.8731 14.106 81.1541 14.106C81.0585 14.106 81.0361 14.0817 81.0361 13.9906C81.0396 12.922 81.0396 11.8534 81.0361 10.7845C81.0361 10.6989 81.0595 10.6802 81.1447 10.6807C84.5928 10.683 88.0408 10.683 91.4885 10.6807C91.5795 10.6807 91.6034 10.7014 91.6028 10.7916C91.5994 11.8604 91.5994 12.9291 91.6028 13.9976C91.6028 14.0903 91.5753 14.1065 91.487 14.1065C89.7628 14.1048 88.0373 14.1047 86.3107 14.106Z" fill="#7FAA2D"/>
<path d="M95.8183 9.20463C95.2685 9.19147 94.6652 9.21883 94.0624 9.18946C93.766 9.18714 93.4815 9.07563 93.266 8.87734C93.0504 8.67905 92.9199 8.40864 92.9005 8.12042C92.8434 7.74257 92.8632 7.3575 92.9587 6.98709C93.0272 6.72832 93.1832 6.49956 93.4014 6.33769C93.6197 6.17583 93.8875 6.09027 94.1617 6.09478C94.5046 6.09073 94.8481 6.09477 95.1911 6.09123C95.2597 6.09123 95.2706 6.10896 95.2587 6.17125C95.2311 6.31659 95.2067 6.46345 95.1901 6.61031C95.1833 6.66652 95.1615 6.6807 95.1059 6.68019C94.884 6.67716 94.6621 6.68019 94.4402 6.68019C94.2861 6.66327 94.1313 6.70552 94.0087 6.79799C93.8861 6.89046 93.8052 7.02588 93.7834 7.17548C93.7138 7.48249 93.7076 7.79993 93.7652 8.10929C93.7711 8.18069 93.7914 8.25023 93.8249 8.31397C93.8584 8.37771 93.9045 8.43438 93.9606 8.48072C94.0166 8.52706 94.0815 8.56216 94.1515 8.58402C94.2215 8.60588 94.2952 8.61406 94.3685 8.6081C94.8741 8.61924 95.3803 8.61621 95.8864 8.61823C96.4376 8.62026 96.9886 8.62126 97.5394 8.62126C97.5983 8.62131 97.657 8.61672 97.7151 8.60757C97.7643 8.60247 97.8121 8.58792 97.8555 8.56476C97.8989 8.5416 97.9373 8.51028 97.9682 8.47262C97.9992 8.43496 98.0222 8.39171 98.0359 8.34534C98.0496 8.29897 98.0538 8.2504 98.0482 8.20245C98.0464 8.15422 98.0348 8.10682 98.0141 8.06299C97.9934 8.01916 97.9639 7.97976 97.9275 7.94708C97.8911 7.9144 97.8483 7.88908 97.8018 7.87259C97.7553 7.8561 97.7058 7.84878 97.6564 7.85102C97.3274 7.84393 96.998 7.86723 96.669 7.83634C96.4732 7.83507 96.2845 7.76487 96.1376 7.63867C95.9907 7.51248 95.8956 7.33879 95.8698 7.14964C95.8198 6.93622 95.8557 6.71224 95.97 6.52383C96.0844 6.33541 96.2685 6.19691 96.4845 6.13682C96.7067 6.07072 96.9383 6.0401 97.1705 6.04616C97.739 6.04616 98.3075 6.04616 98.876 6.04616C98.955 6.04616 98.9799 6.06237 98.9638 6.14087C98.9373 6.27608 98.9165 6.41281 98.8994 6.54954C98.8906 6.61943 98.8646 6.64169 98.7887 6.64119C98.2446 6.63714 97.7005 6.64119 97.1559 6.64119C97.0834 6.63738 97.0106 6.64234 96.9392 6.6559C96.8971 6.66101 96.8565 6.67433 96.8199 6.69509C96.7832 6.71585 96.7512 6.7436 96.7257 6.77669C96.7003 6.80978 96.682 6.84753 96.6719 6.88768C96.6618 6.92783 96.6601 6.96956 96.6669 7.01036C96.6674 7.05369 96.6768 7.09649 96.6945 7.13622C96.7122 7.17595 96.738 7.2118 96.7702 7.24165C96.8025 7.2715 96.8405 7.29474 96.8821 7.30999C96.9237 7.32524 96.9681 7.33219 97.0125 7.33042C97.2791 7.33447 97.5462 7.33042 97.8133 7.33042C98.0712 7.31684 98.3258 7.39213 98.5325 7.5431C98.6355 7.62358 98.7184 7.7258 98.775 7.84202C98.8317 7.95824 98.8605 8.08545 98.8594 8.2141C98.8737 8.33053 98.8633 8.44861 98.8288 8.56096C98.7943 8.67331 98.7365 8.77751 98.6589 8.86714C98.5813 8.95677 98.4856 9.02991 98.3778 9.08196C98.2699 9.13401 98.1523 9.16387 98.0321 9.16971C97.86 9.19373 97.6863 9.20558 97.5124 9.20516H95.8163L95.8183 9.20463Z" fill="#26292C"/>
<path d="M92.8801 12.8906C92.8801 12.5568 92.8801 12.2231 92.8801 11.8894C92.8621 11.7822 92.8885 11.6723 92.9535 11.584C93.0184 11.4957 93.1167 11.4362 93.2267 11.4184C93.6834 11.2629 94.1754 11.234 94.648 11.3349C94.7164 11.3464 94.7813 11.3728 94.8377 11.4123C94.9208 11.4812 94.9936 11.4549 95.0798 11.422C95.4721 11.2604 95.909 11.2332 96.3192 11.345C96.4961 11.3897 96.6512 11.4936 96.7575 11.6384C96.8638 11.7833 96.9145 11.96 96.9007 12.1375C96.9179 12.7452 96.9064 13.358 96.9085 13.9682C96.9085 14.0113 96.8966 14.0275 96.8503 14.0269C96.6149 14.0269 96.379 14.0234 96.143 14.0269C96.0677 14.0269 96.0812 13.9844 96.0812 13.9419C96.0812 13.4091 96.0812 12.8764 96.0812 12.3437C96.0833 12.2899 96.0793 12.236 96.0693 12.1831C96.0579 12.1157 96.0224 12.0543 95.969 12.01C95.9157 11.9657 95.8479 11.9412 95.7777 11.941C95.6218 11.9312 95.4656 11.9574 95.322 12.0175C95.2783 12.0352 95.2627 12.0494 95.2861 12.0965C95.3084 12.1535 95.3169 12.2146 95.3111 12.2753C95.3111 12.8323 95.3111 13.3894 95.3111 13.9464C95.3111 14.0133 95.2924 14.0305 95.2253 14.029C95.0107 14.0249 94.7956 14.0239 94.581 14.029C94.5046 14.029 94.4817 14.0138 94.4827 13.9358C94.4869 13.4294 94.4827 12.923 94.4827 12.4166C94.4827 12.3928 94.4827 12.3695 94.4827 12.3457C94.4942 11.9527 94.2567 11.9112 93.9844 11.9476C93.7121 11.9841 93.7194 11.9892 93.7194 12.249C93.7194 12.806 93.7168 13.363 93.7194 13.9201C93.7194 14.0128 93.6918 14.031 93.6035 14.0285C93.3889 14.0219 93.1737 14.0239 92.9591 14.0285C92.8905 14.0285 92.8718 14.0107 92.8723 13.9444C92.8801 13.5919 92.8801 13.2415 92.8801 12.8906Z" fill="#26292C"/>
<path d="M102.996 11.8212C102.996 12.3506 102.996 12.8798 102.996 13.4088C102.996 13.4559 102.992 13.503 102.991 13.5501C102.991 13.6304 102.964 13.7086 102.915 13.7726C102.865 13.8367 102.795 13.883 102.716 13.9046C102.522 13.9762 102.318 14.0206 102.111 14.0368C101.829 14.0717 101.543 14.059 101.265 13.9993C101.018 13.9384 100.798 13.8025 100.636 13.6112C100.474 13.42 100.379 13.1834 100.365 12.9358C100.325 12.6172 100.359 12.2938 100.465 11.9899C100.535 11.7926 100.665 11.6207 100.838 11.497C101.01 11.3732 101.218 11.3035 101.432 11.2971C101.646 11.282 101.861 11.3074 102.066 11.372C102.134 11.3943 102.16 11.3862 102.159 11.3062C102.155 10.9689 102.159 10.6322 102.156 10.2934C102.156 10.2215 102.175 10.1921 102.249 10.1825C102.471 10.1501 102.692 10.1151 102.912 10.0716C102.991 10.0559 102.998 10.0797 102.998 10.144C102.996 10.702 102.996 11.2616 102.996 11.8212ZM102.157 12.6902V12.2046C102.157 11.9731 102.157 11.9731 101.926 11.9266C101.851 11.8981 101.77 11.8866 101.69 11.893C101.61 11.8993 101.532 11.9234 101.463 11.9633C101.393 12.0032 101.334 12.0578 101.29 12.1232C101.245 12.1886 101.216 12.263 101.206 12.3408C101.151 12.572 101.156 12.8126 101.219 13.0416C101.245 13.1675 101.318 13.2795 101.423 13.3566C101.529 13.4337 101.66 13.4704 101.791 13.4599C101.889 13.4599 101.983 13.4331 102.079 13.4245C102.151 13.4179 102.16 13.387 102.16 13.3273C102.155 13.1131 102.157 12.9024 102.157 12.6902H102.157Z" fill="#26292C"/>
<path d="M99.9028 13.0772C99.9028 13.3907 99.9028 13.7047 99.9028 14.0181C99.9028 14.0951 99.8898 14.1149 99.8067 14.0982C99.5734 14.0505 99.339 14.01 99.1031 13.9715C99.0064 13.9706 98.9102 13.9849 98.8183 14.0141C98.5634 14.0649 98.3012 14.0698 98.0445 14.0288C97.8527 14.01 97.6749 13.9221 97.5461 13.7824C97.4172 13.6426 97.3464 13.4611 97.3477 13.2732C97.3338 13.0821 97.3945 12.893 97.5176 12.7437C97.6408 12.5944 97.8173 12.4959 98.0118 12.468C98.3109 12.4109 98.6163 12.3903 98.9207 12.4068C99.1348 12.4068 99.1348 12.4067 99.1098 12.1976C99.1058 12.1207 99.0729 12.048 99.0174 11.9932C98.962 11.9384 98.8878 11.9053 98.8089 11.9004C98.4597 11.8745 98.1087 11.9199 97.7785 12.0335C97.7005 12.0563 97.6064 12.1242 97.5482 12.0867C97.5035 12.0578 97.5171 11.9439 97.5051 11.8674C97.4906 11.7743 97.4802 11.6806 97.4615 11.5879C97.4521 11.5428 97.4583 11.5241 97.5077 11.5094C97.9435 11.3538 98.404 11.2741 98.8682 11.2739C99.0273 11.2789 99.1848 11.3061 99.3359 11.3549C99.5051 11.4093 99.6515 11.5159 99.753 11.6586C99.8544 11.8014 99.9054 11.9725 99.8981 12.146C99.8981 12.1596 99.8981 12.1728 99.8981 12.1864C99.8981 12.4832 99.8981 12.78 99.8981 13.0767L99.9028 13.0772ZM98.7705 12.8858C98.6427 12.8773 98.5144 12.8871 98.3896 12.9147C98.3195 12.9354 98.2587 12.9786 98.217 13.0373C98.1753 13.0959 98.1552 13.1666 98.1599 13.2378C98.1598 13.3075 98.1857 13.3749 98.2329 13.4274C98.28 13.4798 98.3451 13.5138 98.4161 13.5229C98.6431 13.545 98.8723 13.5166 99.0864 13.4398C99.1327 13.4297 99.1202 13.3948 99.1202 13.3674C99.1202 13.2297 99.1166 13.0914 99.1202 12.9537C99.1202 12.903 99.1072 12.8818 99.0511 12.8848C98.9674 12.8888 98.8786 12.8858 98.7715 12.8858H98.7705Z" fill="#26292C"/>
</svg>
