<svg width="24" height="24" viewBox="0 0 24 24" fill="none" xmlns="http://www.w3.org/2000/svg">
<circle opacity="0.4" cx="12.5" cy="9.5" r="4.5" fill="#43766D"/>
<path d="M12.4998 4C9.46731 4 7 6.42148 7 9.39813C7 12.1365 9.08888 14.4038 11.7844 14.7492V17.2767H10.0635C9.87372 17.2767 9.69177 17.3507 9.55761 17.4824C9.42345 17.6141 9.34808 17.7927 9.34808 17.9789C9.34808 18.1651 9.42345 18.3437 9.55761 18.4754C9.69177 18.6071 9.87372 18.681 10.0635 18.681H11.7844V20.2978C11.7844 20.4841 11.8598 20.6627 11.9939 20.7943C12.1281 20.926 12.31 21 12.4998 21C12.6895 21 12.8714 20.926 13.0056 20.7943C13.1398 20.6627 13.2151 20.4841 13.2151 20.2978V18.681H15.025C15.2147 18.681 15.3967 18.6071 15.5309 18.4754C15.665 18.3437 15.7404 18.1651 15.7404 17.9789C15.7404 17.7927 15.665 17.6141 15.5309 17.4824C15.3967 17.3507 15.2147 17.2767 15.025 17.2767H13.2151V14.7492C15.9114 14.4038 18 12.1365 18 9.39813C18 6.42148 15.5327 4 12.4998 4ZM12.4998 13.3922C10.2564 13.3922 8.43074 11.6005 8.43074 9.39837C8.43074 7.19619 10.2564 5.40453 12.4998 5.40453C14.7436 5.40453 16.5693 7.19619 16.5693 9.39837C16.5693 11.6005 14.7436 13.3922 12.4998 13.3922Z" fill="#43766D"/>
</svg>
