<svg width="24" height="24" viewBox="0 0 24 24" fill="none" xmlns="http://www.w3.org/2000/svg">
<path d="M14.5705 19.3151L14.4597 19.8936C14.3385 20.5262 14.2779 20.8425 14.1421 21.0925C13.9321 21.479 13.5919 21.7702 13.1876 21.9093C12.9262 21.9993 12.6172 21.9993 11.9991 21.9993C11.3811 21.9993 11.072 21.9993 10.8106 21.9093C10.4063 21.7702 10.0661 21.479 9.85615 21.0925C9.72035 20.8425 9.65974 20.5262 9.53853 19.8936L9.42769 19.3151M10.295 19.3151H13.7033C14.1635 19.3151 14.3936 19.3151 14.5968 19.2621C15.0225 19.1511 15.391 18.8728 15.6262 18.4848C15.7384 18.2996 15.8112 18.0709 15.9567 17.6135C16.0354 17.366 16.0748 17.2422 16.0702 17.142C16.0605 16.93 15.9325 16.7438 15.7435 16.6671C15.6542 16.6309 15.5297 16.6309 15.2807 16.6309H8.71765C8.46863 16.6309 8.34413 16.6309 8.25479 16.6671C8.06585 16.7438 7.9378 16.93 7.92809 17.142C7.92351 17.2422 7.96288 17.366 8.04163 17.6135C8.18716 18.0709 8.25992 18.2996 8.37216 18.4848C8.60729 18.8728 8.97587 19.1511 9.40154 19.2621C9.60473 19.3151 9.83484 19.3151 10.295 19.3151Z" stroke="black" stroke-width="1.5" stroke-linecap="round" stroke-linejoin="round"/>
<path d="M6.08938 15C5.71097 14.1494 5.5 13.2031 5.5 12.2059C5.5 8.50233 8.41015 5.5 12 5.5C15.5899 5.5 18.5 8.50233 18.5 12.2059C18.5 13.2031 18.289 14.1494 17.9106 15" stroke="black" stroke-width="1.5" stroke-linecap="round"/>
<path opacity="0.4" d="M12 2V3" stroke="black" stroke-width="1.5" stroke-linecap="round" stroke-linejoin="round"/>
<path opacity="0.4" d="M22 12L21 12" stroke="black" stroke-width="1.5" stroke-linecap="round" stroke-linejoin="round"/>
<path opacity="0.4" d="M3 12L2 12" stroke="black" stroke-width="1.5" stroke-linecap="round" stroke-linejoin="round"/>
<path opacity="0.4" d="M19.0703 4.92871L18.3632 5.63582" stroke="black" stroke-width="1.5" stroke-linecap="round" stroke-linejoin="round"/>
<path opacity="0.4" d="M5.63672 5.63672L4.92961 4.92961" stroke="black" stroke-width="1.5" stroke-linecap="round" stroke-linejoin="round"/>
</svg>
