<svg width="24" height="24" viewBox="0 0 24 24" fill="none" xmlns="http://www.w3.org/2000/svg">
<ellipse opacity="0.4" cx="10.5" cy="14" rx="5.5" ry="5" fill="#43766D"/>
<path d="M19.9827 4.65576C19.9775 4.63158 19.9682 4.60929 19.9611 4.58592C19.9528 4.5582 19.946 4.53048 19.9343 4.50358C19.9221 4.47531 19.9054 4.44977 19.89 4.42313C19.8789 4.40329 19.8696 4.38264 19.8568 4.36335C19.794 4.27379 19.7135 4.19688 19.6197 4.13697C19.601 4.12474 19.5802 4.11686 19.5603 4.10626C19.5314 4.09077 19.5038 4.07446 19.4731 4.06223C19.4458 4.05163 19.4177 4.04566 19.3898 4.03777C19.3643 4.03044 19.3404 4.02093 19.3137 4.01631C19.2589 4.00561 19.2031 4.00015 19.1471 4H14.5616C14.3355 4 14.1186 4.0859 13.9587 4.23879C13.7988 4.39169 13.709 4.59906 13.709 4.81529C13.709 5.03151 13.7988 5.23889 13.9587 5.39178C14.1186 5.54468 14.3355 5.63057 14.5616 5.63057H17.089L14.116 8.47375C13.0566 7.81369 11.8192 7.4628 10.5547 7.46388C6.94087 7.46415 4 10.2758 4 13.7321C4 17.1884 6.94087 20 10.555 20C14.1697 20 17.1097 17.1881 17.1097 13.7321C17.1111 12.1805 16.5081 10.6841 15.4185 9.53444L18.2948 6.78366V9.20098C18.2948 9.41721 18.3846 9.62458 18.5445 9.77748C18.7044 9.93038 18.9213 10.0163 19.1474 10.0163C19.3735 10.0163 19.5904 9.93038 19.7503 9.77748C19.9102 9.62458 20 9.41721 20 9.20098V4.81556C20 4.76175 19.9937 4.70848 19.9827 4.65576ZM10.555 18.3697C7.88128 18.3697 5.70547 16.2894 5.70547 13.7323C5.70547 11.1753 7.88128 9.095 10.555 9.095C13.2293 9.095 15.4045 11.1753 15.4045 13.7323C15.4045 16.2894 13.2293 18.3697 10.555 18.3697Z" fill="#43766D"/>
</svg>
