<svg width="65" height="25" viewBox="0 0 65 25" fill="none" xmlns="http://www.w3.org/2000/svg">
<path d="M59.1723 7.89007C58.9294 7.89007 58.6865 7.90558 58.4487 7.93917C56.3944 8.21308 54.7535 9.85137 54.4564 11.9212L53.9809 15.2288H50.1978L50.6862 11.8282L47.2003 11.3269L46.6396 15.2288H42.8591L43.3475 11.8282L39.8616 11.3269L39.3009 15.2288H35.5204L36.0088 11.8282L32.5229 11.3269L31.9621 15.2288H29.4194C28.9621 15.2288 28.6752 14.9833 28.546 14.8386C28.4168 14.6939 28.2049 14.3812 28.2514 13.929L29.6701 0.750319L26.1687 0.373047L24.7449 13.5492C24.6027 14.8722 25.0291 16.2004 25.9206 17.1901C26.8095 18.1798 28.0835 18.7483 29.4143 18.7483H31.4505L32.1069 17.8671L32.5849 18.1281C33.3291 18.5338 34.1638 18.7483 35.0113 18.7483H38.7892L39.4456 17.8671L39.9572 18.1436C40.6911 18.539 41.5128 18.7483 42.3475 18.7483H46.1279L46.7843 17.8671L47.2494 18.1229C47.9962 18.5338 48.836 18.7483 49.6862 18.7483H59.1697C60.6193 18.7483 61.9837 18.1824 63.0096 17.1591C64.0355 16.1332 64.6014 14.7688 64.6014 13.3192C64.6014 10.3243 62.1646 7.89007 59.1723 7.89007ZM60.5212 14.6706C60.162 15.0298 59.6813 15.2288 59.1723 15.2288H57.5366L57.9397 12.4225C58.0146 11.9057 58.4151 11.4974 58.9139 11.4302C58.9991 11.4199 59.0844 11.4121 59.1723 11.4121C60.224 11.4121 61.0793 12.2675 61.0793 13.3192C61.0793 13.8282 60.8803 14.3089 60.5212 14.6681V14.6706Z" fill="#F1F3F3"/>
<path d="M13.9747 6.48364C14.948 6.48364 15.7371 5.69462 15.7371 4.72131C15.7371 3.74801 14.948 2.95898 13.9747 2.95898C13.0014 2.95898 12.2124 3.74801 12.2124 4.72131C12.2124 5.69462 13.0014 6.48364 13.9747 6.48364Z" fill="#F1F3F3"/>
<path d="M19.2804 6.48364C20.2537 6.48364 21.0427 5.69462 21.0427 4.72131C21.0427 3.74801 20.2537 2.95898 19.2804 2.95898C18.3071 2.95898 17.5181 3.74801 17.5181 4.72131C17.5181 5.69462 18.3071 6.48364 19.2804 6.48364Z" fill="#F1F3F3"/>
<path d="M21.0757 10.5636C20.6597 9.96928 20.1403 9.47572 19.5485 9.09587C18.9542 8.71859 18.2849 8.4576 17.5717 8.33099C14.6233 7.81159 11.8015 9.78581 11.2821 12.7368C11.2382 12.9745 11.2123 13.2174 11.202 13.4578C11.1167 15.5276 12.4449 17.4295 14.4295 18.0806L17.3262 19.0316C16.967 19.6026 16.458 20.0729 15.8404 20.3985C14.7628 20.9644 13.507 20.998 12.4062 20.489L12.2486 20.414C10.6568 19.675 9.53529 18.2176 9.2252 16.4966L5.84009 17.5121C6.44734 20.1918 8.2536 22.4425 10.7705 23.6079L10.9333 23.6855C11.9281 24.1428 12.985 24.3702 14.0393 24.3702C15.2202 24.3702 16.396 24.0834 17.4813 23.5175C19.5356 22.4399 20.9439 20.5148 21.347 18.2305L21.6545 16.4966L21.9853 14.618C22.2385 13.189 21.9181 11.7497 21.086 10.561L21.0757 10.5636ZM15.5303 14.7343C15.0342 14.5715 14.7008 14.1064 14.7241 13.6025C14.7267 13.5172 14.737 13.4319 14.7499 13.3466C14.9127 12.4215 15.7215 11.7704 16.6285 11.7704C16.7371 11.7704 16.8508 11.7781 16.9593 11.7988C17.4606 11.8866 17.8999 12.1657 18.1919 12.5818C18.4839 13.0004 18.5976 13.5069 18.5097 14.0082L18.2255 15.618L15.5329 14.7317L15.5303 14.7343Z" fill="#F1F3F3"/>
<path d="M3.70536 5.01655L2.39844 14.0859L5.3653 14.5135L6.67222 5.44408L3.70536 5.01655Z" fill="#309265"/>
<path d="M9.07521 8.26367L8.64367 11.2612H0L0.431538 8.26367H9.07521Z" fill="#36A471"/>
</svg>
