<svg width="62" height="26" viewBox="0 0 62 26" fill="none" xmlns="http://www.w3.org/2000/svg">
<mask id="mask0_1095_14093" style="mask-type:alpha" maskUnits="userSpaceOnUse" x="0" y="0" width="63" height="27">
<path fill-rule="evenodd" clip-rule="evenodd" d="M0 26.0029V0H62.0013V26.0029H0Z" fill="white"/>
</mask>
<g mask="url(#mask0_1095_14093)">
<path fill-rule="evenodd" clip-rule="evenodd" d="M14.2012 6.34793C15.1982 6.34099 16.0186 5.52696 16.0234 4.54065C16.0281 3.51386 15.2041 2.69405 14.1753 2.7033C13.163 2.71255 12.3579 3.51039 12.3532 4.50943C12.3473 5.52465 13.1842 6.35602 14.2012 6.34793Z" fill="white"/>
<path fill-rule="evenodd" clip-rule="evenodd" d="M8.60463 6.35006C9.62913 6.33501 10.4735 5.47695 10.4464 4.47876C10.4205 3.50027 9.56201 2.68852 8.5693 2.70126C7.56481 2.71515 6.73108 3.53616 6.72872 4.51466C6.72755 5.51632 7.59425 6.36397 8.60463 6.35007" fill="white"/>
<path fill-rule="evenodd" clip-rule="evenodd" d="M58.2786 13.6239C58.182 14.5977 57.3281 15.3472 56.2845 15.3703C56.0902 15.3749 55.8946 15.3714 55.6991 15.3714C54.5625 15.3749 54.5625 15.3749 54.7286 14.238C54.8098 13.6887 54.8817 13.1382 54.9724 12.59C55.1173 11.711 55.778 11.2773 56.665 11.4647C57.6932 11.6821 58.3799 12.6015 58.2786 13.6239M57.9797 8.04483C55.0575 7.1277 52.0068 8.73297 51.3814 11.5642C51.1399 12.6513 51.0068 13.7639 50.8796 14.8707C50.8337 15.2662 50.7183 15.3934 50.3143 15.383C49.3343 15.3564 48.3508 15.3402 47.372 15.3876C46.8314 15.4142 46.8149 15.1772 46.8785 14.7828C47.0151 13.9281 47.1223 13.0688 47.2707 12.2164C47.3213 11.9308 47.2354 11.8348 46.9645 11.8001C45.9739 11.6729 44.9821 11.5526 43.9975 11.3907C43.6382 11.3305 43.6064 11.4994 43.5711 11.7538C43.4191 12.8201 43.2342 13.883 43.1152 14.9516C43.0752 15.3217 42.9327 15.3842 42.6052 15.3795C41.5652 15.3645 40.524 15.361 39.4851 15.3819C39.1247 15.3888 39.054 15.2662 39.1094 14.9435C39.2566 14.0715 39.3662 13.1925 39.5216 12.3228C39.5805 11.9898 39.5358 11.829 39.1542 11.7862C38.2401 11.6856 37.3226 11.5861 36.4215 11.4115C35.9457 11.319 35.855 11.5029 35.8044 11.8799C35.663 12.9289 35.4946 13.9732 35.3556 15.021C35.3226 15.2708 35.2578 15.3853 34.9669 15.3807C33.868 15.3634 32.769 15.3657 31.6701 15.3796C31.3756 15.3819 31.312 15.3009 31.3627 15.0141C31.5146 14.1421 31.6348 13.2654 31.7667 12.3911C31.8114 12.0927 31.8586 11.8313 31.4004 11.7851C30.4663 11.6879 29.5323 11.5676 28.6077 11.4057C28.2414 11.341 28.1365 11.415 28.093 11.7689C27.9658 12.7993 27.7914 13.824 27.6572 14.8533C27.6065 15.2362 27.4828 15.4224 27.0353 15.3865C26.431 15.3391 25.8197 15.3772 25.2108 15.3749C24.0188 15.3703 23.5606 14.9089 23.6772 13.7408C23.8704 11.807 24.1048 9.87794 24.3168 7.94653C24.5759 5.5953 24.8221 3.24176 25.0906 0.890526C25.1342 0.504247 25.0529 0.370085 24.623 0.326141C23.7526 0.238245 22.8692 0.233621 22.0176 0H21.4287C21.3533 0.727459 21.2803 1.45376 21.2014 2.18122C20.7915 5.9677 20.4004 9.7565 19.9623 13.5407C19.6808 15.9601 21.1943 18.2142 23.5865 18.8549C24.4558 19.0874 25.338 19.0076 26.2167 19.0527C26.7702 19.0805 27.219 18.996 27.4687 18.4502C27.6218 18.1148 27.8338 18.1657 28.1201 18.3276C29.0588 18.8619 30.0906 19.0527 31.1683 19.0446C32.1094 19.0377 33.0529 19.0134 33.9928 19.055C34.537 19.0793 34.9492 18.9752 35.1989 18.4675C35.3462 18.1714 35.5346 18.1275 35.8479 18.3114C36.7985 18.8688 37.8514 19.0539 38.9492 19.0435C39.8715 19.0354 40.7949 19.0076 41.7148 19.055C42.2837 19.0839 42.7077 18.959 42.9645 18.4409C43.1082 18.1541 43.2825 18.1367 43.564 18.301C44.2978 18.7289 45.1011 19.003 45.9574 19.0064C49.5275 19.0226 53.1034 19.1244 56.6676 18.981C59.578 18.8654 61.664 16.7292 61.9679 13.9478C62.2553 11.3248 60.5933 8.86598 57.9797 8.04484" fill="white"/>
<path fill-rule="evenodd" clip-rule="evenodd" d="M13.3898 13.8946C13.3509 14.4266 13.2131 14.9516 13.1306 15.4825C13.0918 15.7277 12.9834 15.7901 12.742 15.7092C11.8927 15.4235 11.0305 15.1737 10.1896 14.8661C9.64657 14.6671 9.35328 14.2531 9.39804 13.6552C9.44162 12.6085 10.3992 11.7631 11.4781 11.8174C12.5782 11.8741 13.4699 12.8178 13.3898 13.8946M7.73729 9.49749C6.16368 10.7697 5.42047 12.4571 5.73259 14.4613C6.05414 16.5211 7.35449 17.8083 9.34859 18.4502C10.252 18.7405 11.1542 19.0343 12.0659 19.3292C11.1637 20.8188 9.2838 21.5648 7.61479 21.0732C5.58065 20.4765 4.27442 19.1453 3.67724 17.148C3.60893 16.919 3.62188 16.6877 3.24615 16.8079C2.1696 17.1526 1.08244 17.4683 0 17.7956V18.0269C0.134277 18.0847 0.107184 18.2189 0.141344 18.323C0.974085 20.8882 2.60305 22.7826 5.05297 24.0085C9.27674 26.1226 14.4074 24.138 16.0046 19.7571C16.4628 18.5011 16.5664 17.1699 16.8326 15.8735C17.0423 14.8534 17.2331 13.8241 17.0211 12.7832C16.1554 8.52254 11.1483 6.73801 7.73729 9.4975" fill="white"/>
<path fill-rule="evenodd" clip-rule="evenodd" d="M40.8445 23.9645C40.702 23.5446 40.7597 23.1803 41.0624 22.8461C41.2933 22.5905 41.6136 22.5627 41.8681 22.6795C42.2379 22.8507 41.9128 23.2428 42.0271 23.4267C42.0377 23.9298 42.1484 24.4039 41.4535 24.3866C41.1366 24.3796 40.9458 24.2652 40.8445 23.9645M42.7423 22.7094C42.7458 22.3903 42.6539 22.226 42.2971 22.1705C41.886 22.1069 41.4973 22.0583 41.0851 22.1798C40.2865 22.4145 39.8978 23.2079 40.1569 24.1331C40.3477 24.8155 40.9095 25.0676 41.7399 24.849C41.8224 24.8271 41.9166 24.7588 42.0038 24.8467C42.0132 24.8872 42.0285 24.9242 42.0285 24.9612C42.032 25.307 42.032 25.654 42.0332 25.9998H42.7399C42.7399 24.9034 42.7328 23.807 42.7423 22.7095" fill="white"/>
<path fill-rule="evenodd" clip-rule="evenodd" d="M10.4464 4.47876C10.4735 5.47695 9.62912 6.33501 8.60462 6.35006C7.59425 6.36396 6.72754 5.51632 6.72871 4.51466C6.73107 3.53616 7.56481 2.71515 8.56929 2.70125C9.56201 2.68851 10.4205 3.50026 10.4464 4.47876" fill="white"/>
<path fill-rule="evenodd" clip-rule="evenodd" d="M16.0234 4.54065C16.0186 5.52696 15.1982 6.34099 14.2012 6.34793C13.1842 6.35602 12.3473 5.52465 12.3532 4.50943C12.3579 3.51039 13.163 2.71255 14.1753 2.7033C15.2041 2.69405 16.0281 3.51386 16.0234 4.54065Z" fill="white"/>
<path fill-rule="evenodd" clip-rule="evenodd" d="M60.1791 24.4775C60.1815 24.6942 60.1437 24.8541 59.863 24.8494C59.5717 24.8448 59.5693 24.6594 59.5705 24.4567C59.5705 24.0338 59.5752 23.6086 59.5646 23.1857C59.5575 22.8636 59.4597 22.6215 59.0504 22.6446C58.6647 22.6666 58.4866 22.8242 58.5114 23.2228C58.5373 23.6445 58.5102 24.0697 58.5185 24.4938C58.5232 24.7266 58.4524 24.8483 58.1882 24.8529C57.904 24.8575 57.8061 24.7452 57.812 24.4764C57.8238 24.0141 57.8073 23.5507 57.8132 23.0884C57.8179 22.7686 57.6669 22.6365 57.3462 22.6458C57.0501 22.6551 56.8508 22.7408 56.8543 23.0756C56.8579 23.5194 56.8484 23.9619 56.8543 24.4057C56.8579 24.6583 56.8449 24.8575 56.4911 24.8541C56.116 24.8506 56.1597 24.6131 56.1585 24.3825C56.1573 24.0929 56.1585 23.8044 56.1585 23.5147H56.1714C56.1714 23.1301 56.0724 22.7095 56.1962 22.3677C56.3672 21.8973 56.8484 22.3503 57.1798 22.1997C57.5419 22.0364 57.9264 22.012 58.3003 22.2553C58.548 22.4152 58.7921 22.209 59.0292 22.1499C59.784 21.9599 60.1649 22.2206 60.1756 22.9748C60.1838 23.4753 60.1756 23.977 60.1791 24.4775" fill="white"/>
<path fill-rule="evenodd" clip-rule="evenodd" d="M25.3139 24.4667C25.3197 24.7234 25.2468 24.8553 24.9524 24.8529C24.6405 24.8506 24.6098 24.6795 24.6134 24.4424C24.6193 23.9994 24.6075 23.5564 24.6122 23.1146C24.6146 22.8116 24.5015 22.6451 24.166 22.6497C23.8399 22.6532 23.6398 22.7526 23.6492 23.1135C23.6609 23.5368 23.6503 23.9601 23.6515 24.3834C23.6515 24.6182 23.6821 24.8483 23.3136 24.8541C22.9569 24.8599 22.951 24.6575 22.9546 24.4065C22.9605 23.9832 22.9487 23.5599 22.9581 23.1366C22.9652 22.8035 22.8345 22.6254 22.4742 22.652C22.1575 22.674 21.8879 22.7272 21.8997 23.1355C21.9127 23.5969 21.8985 24.0584 21.9021 24.521C21.9044 24.7234 21.8432 24.8495 21.6054 24.8495C21.3782 24.8483 21.2922 24.7431 21.2958 24.5314C21.2993 24.1844 21.2969 23.8386 21.2969 23.4917H21.2946C21.2946 23.3378 21.2981 23.184 21.2946 23.0302C21.2828 22.5236 21.1651 22.0425 22.0598 22.2299C22.4848 22.3178 22.9875 21.9477 23.4867 22.3212C23.6162 22.4172 23.9847 22.1906 24.2472 22.1304C24.8959 21.9801 25.2891 22.2646 25.308 22.9076C25.3233 23.4269 25.3033 23.9474 25.3139 24.4666" fill="white"/>
<path fill-rule="evenodd" clip-rule="evenodd" d="M36.7904 24.3901C36.5913 24.3866 36.3511 24.3901 36.3993 24.1102C36.4594 23.7574 36.7751 23.7193 37.0695 23.6904C37.2886 23.6696 37.4559 23.7147 37.4394 23.9899C37.4229 24.2594 37.205 24.3993 36.7904 24.3901ZM38.132 23.8963H38.1461C38.1308 23.6095 38.1391 23.3192 38.0955 23.037C37.9671 22.2181 37.483 21.9174 36.6573 22.1279C36.4889 22.1719 36.3169 22.2216 36.165 22.3026C36.0319 22.372 35.7669 22.3835 35.8776 22.6368C35.9671 22.8404 36.1343 22.9109 36.3534 22.7744C36.5984 22.6218 36.8752 22.6264 37.1485 22.6634C37.3263 22.6877 37.417 22.808 37.4288 22.9815C37.4429 23.2023 37.2898 23.2243 37.1214 23.2255C36.821 23.2266 36.5501 23.3319 36.2792 23.4429C35.8293 23.6291 35.5772 23.9379 35.7103 24.4329C35.8258 24.8585 36.2898 25.0644 36.8116 24.9163C37.1096 24.8319 37.3829 24.7348 37.7091 24.8342C37.9765 24.9152 38.1602 24.7937 38.1343 24.4722C38.119 24.2814 38.132 24.0883 38.132 23.8963" fill="white"/>
<path fill-rule="evenodd" clip-rule="evenodd" d="M52.7794 24.3913C52.2882 24.411 52.0385 24.1218 52.042 23.5204C52.0456 23.0844 52.062 22.6519 52.6828 22.6426C53.1798 22.6345 53.4437 22.926 53.4519 23.4996C53.4578 24.0478 53.2128 24.3739 52.7794 24.3913M52.7498 22.0772C51.8923 22.0783 51.3387 22.6323 51.334 23.4951C51.3293 24.3798 51.8699 24.9604 52.698 24.9592C53.5814 24.9569 54.1597 24.3844 54.1573 23.5124C54.155 22.66 53.5825 22.0748 52.7498 22.0772Z" fill="white"/>
<path fill-rule="evenodd" clip-rule="evenodd" d="M32.4259 24.3898C32.2245 24.3887 31.9925 24.3921 32.0396 24.1065C32.1008 23.7468 32.42 23.7213 32.7121 23.6913C32.9312 23.6681 33.0985 23.7167 33.0808 23.992C33.0631 24.2637 32.8488 24.3991 32.4259 24.3898M33.6899 23.9444C33.6911 23.8484 33.6899 23.7524 33.6888 23.6564C33.6888 23.4644 33.6911 23.2725 33.6876 23.0805C33.677 22.3033 33.3507 22.0107 32.5628 22.0789C32.2683 22.1032 31.9891 22.1946 31.7324 22.3334C31.6169 22.3958 31.3861 22.4282 31.5251 22.6537C31.6252 22.8145 31.7571 22.9128 31.9597 22.7867C32.1847 22.6468 32.4367 22.634 32.6947 22.6502C32.9397 22.6641 33.0445 22.8203 33.0539 23.0261C33.0657 23.2644 32.8584 23.2146 32.7135 23.225C32.3967 23.2482 32.1069 23.3569 31.8231 23.4864C31.4096 23.6738 31.2282 23.9976 31.3496 24.4209C31.485 24.8904 31.8761 25.0096 32.3248 24.9436C32.5333 24.9136 32.7665 24.7193 32.9314 24.7725C33.8737 25.0755 33.6829 24.4325 33.6899 23.9444" fill="white"/>
<path fill-rule="evenodd" clip-rule="evenodd" d="M29.5546 24.1973C29.4862 24.7645 29.0429 24.8638 28.5914 24.9539C28.5159 24.969 28.4346 24.9563 28.4275 24.9563C28.0538 24.9724 27.7791 24.8719 27.5091 24.7552C27.37 24.6952 27.1979 24.6617 27.2922 24.4353C27.3747 24.2389 27.4832 24.1499 27.6907 24.2724C27.9229 24.4087 28.1811 24.4018 28.4346 24.3937C28.6008 24.3891 28.8107 24.4318 28.8413 24.1765C28.8696 23.9478 28.688 23.8843 28.5265 23.8196C28.3827 23.763 28.2283 23.7329 28.0809 23.6832C27.6777 23.5458 27.2898 23.3748 27.3229 22.8677C27.357 22.3479 27.7532 22.1746 28.2011 22.0891C28.5419 22.0256 28.859 22.1584 29.1761 22.2497C29.2857 22.2809 29.4685 22.3202 29.3789 22.5223C29.3117 22.6725 29.2256 22.8192 29.0323 22.736C28.8248 22.6471 28.6138 22.6355 28.3992 22.6436C28.2542 22.6494 28.0561 22.6066 28.0444 22.8377C28.0349 22.9982 28.154 23.0699 28.2978 23.1103C28.4664 23.1576 28.635 23.2073 28.8024 23.2605C29.2669 23.4072 29.6229 23.6359 29.5546 24.1973" fill="white"/>
<path fill-rule="evenodd" clip-rule="evenodd" d="M49.0641 24.8663C48.9017 24.9218 48.7275 24.9461 48.6192 24.9704C48.0341 24.9287 47.5962 24.7657 47.389 24.2487C47.1736 23.7098 47.3349 22.8055 47.6986 22.4678C48.1071 22.0896 48.8452 21.9751 49.3372 22.2087C49.4808 22.277 49.5562 22.351 49.4702 22.5175C49.3772 22.6968 49.2795 22.7326 49.0559 22.6956C48.2295 22.5603 47.8069 23.0414 47.9847 23.822C48.1118 24.3829 48.4956 24.4453 48.9582 24.3632C49.1818 24.3239 49.4549 24.1493 49.5338 24.4823C49.6091 24.8015 49.2689 24.7969 49.0641 24.8663" fill="white"/>
<path fill-rule="evenodd" clip-rule="evenodd" d="M45.566 24.5073C45.5331 24.7487 45.3992 24.9263 45.1653 24.9321C44.8974 24.9379 44.7411 24.7557 44.7411 24.4876C44.7411 24.2427 44.9021 24.0779 45.1336 24.0686C45.4039 24.0594 45.5379 24.2508 45.5661 24.5073" fill="white"/>
</g>
</svg>
