<svg width="65" height="25" viewBox="0 0 65 25" fill="none" xmlns="http://www.w3.org/2000/svg">
<path d="M33.0963 11.6143C33.0207 10.068 32.3725 8.60596 31.2702 7.49801C30.1694 6.39006 28.7116 5.73185 27.1668 5.64618C26.4672 5.60763 25.7818 5.6833 25.1308 5.86178L22.1153 5.42773L19.5039 23.5534L22.6122 24.0017L23.4446 18.2263H26.8098C28.4918 18.2263 30.0723 17.571 31.2602 16.3831C32.5138 15.128 33.1834 13.3904 33.0963 11.6143ZM29.0386 14.1629C28.4432 14.7583 27.6508 15.0866 26.8084 15.0866H23.8957L24.6867 9.59541C25.3107 9.02573 26.1331 8.73161 26.9926 8.78015C28.5789 8.86867 29.8824 10.1808 29.9609 11.7685C30.0038 12.6737 29.6782 13.5247 29.0386 14.1629Z" fill="#EFB011"/>
<path d="M64.25 5.81494L61.1289 5.47799L60.365 12.5526C60.3436 12.7511 60.3108 12.951 60.2494 13.1409C60.0238 13.8376 59.5398 14.4173 58.8773 14.7643C58.0963 15.1726 57.1896 15.1969 56.3929 14.8299L56.2687 14.7714C56.2302 14.7528 56.1916 14.7343 56.1531 14.7157C54.7924 14.0318 53.9929 12.5198 54.1613 10.9564L54.7167 5.81352L51.5956 5.47656L51.0402 10.6194C50.7318 13.4778 52.2196 16.252 54.7424 17.5213C54.811 17.5556 54.8809 17.5898 54.9495 17.6212L55.0765 17.6798C55.8747 18.0467 56.7242 18.2295 57.5709 18.2295C58.3276 18.2295 59.0829 18.081 59.7996 17.7897L59.7382 18.3651C59.574 19.2132 59.0443 19.9271 58.2776 20.3283C57.4966 20.7366 56.59 20.7609 55.789 20.3925L54.3626 19.7358L53.0505 22.5885L54.4769 23.2452C55.275 23.6122 56.1245 23.7964 56.9712 23.7964C57.9192 23.7964 58.8644 23.5679 59.7354 23.111C61.3845 22.2472 62.5167 20.6995 62.8394 18.8648L64.25 5.81494Z" fill="#EFB011"/>
<path d="M48.5347 5.87462L45.4265 5.42773L45.2694 6.51855C44.7197 6.19016 44.1158 5.94316 43.4704 5.79039C41.9584 5.43487 40.3436 5.68616 38.9229 6.50285C37.5052 7.31811 36.4729 8.58455 36.016 10.0694C35.5134 11.7057 35.6876 13.4333 36.5057 14.9353C37.311 16.4116 38.6417 17.4853 40.2551 17.9608C40.7805 18.115 41.3188 18.1906 41.8542 18.1906C42.4567 18.1906 43.0564 18.0907 43.6289 17.9008L43.459 19.083L46.5673 19.5299L48.5347 5.87462ZM43.2191 14.6497C42.6023 15.0452 41.8456 15.1537 41.1431 14.9467C40.335 14.7083 39.6668 14.17 39.2642 13.4304C38.853 12.678 38.7659 11.8113 39.0186 10.9903C39.4812 9.48833 41.2245 8.48603 42.7508 8.84583C43.5889 9.04286 44.2928 9.55686 44.7297 10.2779L44.3542 12.8864C44.2486 13.6117 43.8359 14.2542 43.2191 14.6497Z" fill="#EFB011"/>
<path d="M8.68898 3.76076C9.72748 3.76076 10.5694 2.91889 10.5694 1.88038C10.5694 0.841877 9.72748 0 8.68898 0C7.65047 0 6.80859 0.841877 6.80859 1.88038C6.80859 2.91889 7.65047 3.76076 8.68898 3.76076Z" fill="#EFB011"/>
<path d="M14.355 3.76076C15.3935 3.76076 16.2354 2.91889 16.2354 1.88038C16.2354 0.841877 15.3935 0 14.355 0C13.3165 0 12.4746 0.841877 12.4746 1.88038C12.4746 2.91889 13.3165 3.76076 14.355 3.76076Z" fill="#EFB011"/>
<path d="M16.2681 8.11232C15.824 7.47838 15.2701 6.9501 14.6361 6.54604C14.0022 6.14341 13.2883 5.86499 12.5245 5.72935C9.37621 5.17395 6.36503 7.2842 5.81105 10.431C5.76536 10.6852 5.7368 10.945 5.72681 11.202C5.63543 13.4108 7.05321 15.4411 9.17204 16.1378L12.2646 17.1544C11.8805 17.7627 11.338 18.2667 10.6769 18.6122C9.52612 19.2161 8.18687 19.2504 7.01181 18.7093L6.84333 18.6307C5.14428 17.8426 3.9478 16.2863 3.61513 14.4502H3.6137L0 15.5339C0.648211 18.3952 2.57714 20.7967 5.26136 22.0417L5.43412 22.1231C6.49638 22.6114 7.62433 22.8541 8.74798 22.8541C10.0073 22.8541 11.2637 22.5486 12.4217 21.9432C14.6147 20.7938 16.1182 18.7378 16.5479 16.3006L16.8749 14.4488H16.8735L17.2276 12.4428C17.4974 10.9179 17.1576 9.38161 16.2681 8.11232ZM10.3471 12.5655C9.81739 12.3914 9.46187 11.8959 9.48472 11.3576C9.48757 11.2663 9.49757 11.1749 9.51328 11.0835C9.68746 10.0969 10.5498 9.40016 11.5193 9.40016C11.6364 9.40016 11.7549 9.41016 11.8734 9.43158C12.4102 9.52581 12.8771 9.82279 13.1884 10.2683C13.4996 10.7151 13.621 11.2548 13.5268 11.7903L13.2226 13.5093L10.3471 12.5655Z" fill="#43766D"/>
</svg>
