
<svg width="104" height="40" viewBox="0 0 104 40" fill="none" xmlns="http://www.w3.org/2000/svg">
<path d="M22.7384 13.7349H25.9346V9.89254C25.9346 9.42149 26.0875 9.02209 26.4248 8.69373C26.5819 8.53479 26.7688 8.40864 26.9747 8.32255C27.1806 8.23646 27.4015 8.19214 27.6246 8.19214C27.8476 8.19214 28.0685 8.23646 28.2744 8.32255C28.4803 8.40864 28.6672 8.53479 28.8243 8.69373C28.9864 8.84746 29.1147 9.03355 29.2009 9.24001C29.2871 9.44647 29.3292 9.66874 29.3247 9.89254V12.5373H30.611V13.2854H28.9564C28.8568 13.2837 28.7617 13.2432 28.6913 13.1724C28.6209 13.1017 28.5807 13.0062 28.5792 12.9063V9.89254C28.5622 9.65149 28.4547 9.42586 28.2785 9.26114C28.1023 9.09641 27.8704 9.00482 27.6296 9.00482C27.3888 9.00482 27.1569 9.09641 26.9807 9.26114C26.8045 9.42586 26.6971 9.65149 26.68 9.89254V14.114C26.678 14.213 26.6372 14.3072 26.5665 14.3762C26.4958 14.4453 26.4009 14.4836 26.3022 14.483H22.7182C22.1262 14.483 21.6157 14.2675 21.1766 13.8376C20.9683 13.6343 20.8036 13.3903 20.6929 13.1206C20.5822 12.851 20.5277 12.5614 20.5329 12.2699C20.5344 11.8518 20.6492 11.442 20.8652 11.0844C21.0811 10.7268 21.3899 10.4349 21.7585 10.24L21.9727 10.1272C21.9915 10.1192 22.0118 10.1157 22.0322 10.117C22.0573 10.1156 22.0824 10.1217 22.1041 10.1344C22.1259 10.1472 22.1435 10.166 22.1547 10.1887L22.3689 10.6191C22.3795 10.6418 22.3865 10.6659 22.3898 10.6907C22.3904 10.7146 22.384 10.738 22.3713 10.7581C22.3585 10.7782 22.3401 10.7941 22.3184 10.8036L22.1036 10.9164C21.8565 11.0454 21.6491 11.2394 21.5034 11.4776C21.3577 11.7158 21.2793 11.9892 21.2766 12.2687C21.2797 12.6567 21.4347 13.0279 21.7082 13.3022C21.9817 13.5765 22.3517 13.732 22.7384 13.7349ZM23.729 15.6V16.2042C23.729 16.2967 23.6886 16.3373 23.5963 16.3373H23.0847C22.9925 16.3373 22.952 16.2967 22.952 16.2042V15.6C22.952 15.5075 22.9925 15.4561 23.0847 15.4561H23.5952C23.6886 15.4561 23.729 15.5075 23.729 15.6ZM25.0873 15.6V16.2042C25.0873 16.2967 25.0463 16.3373 24.9546 16.3373H24.4531C24.3615 16.3373 24.3103 16.2967 24.3103 16.2042V15.6C24.308 15.5806 24.3101 15.5609 24.3165 15.5425C24.3229 15.524 24.3333 15.5073 24.347 15.4934C24.3608 15.4796 24.3774 15.469 24.3958 15.4626C24.4142 15.4561 24.4338 15.4539 24.4531 15.4561H24.9541C25.0481 15.4561 25.0873 15.5075 25.0873 15.6Z" fill="#4C4A4C"/>
<path d="M32.3334 11.9725V8.53015C32.3311 8.51078 32.3332 8.49114 32.3396 8.47271C32.346 8.45427 32.3564 8.43753 32.3702 8.42374C32.3839 8.40994 32.4006 8.39946 32.419 8.39307C32.4373 8.38668 32.4569 8.38456 32.4762 8.38687H32.9456C32.9649 8.38456 32.9845 8.38668 33.0029 8.39307C33.0213 8.39946 33.0379 8.40994 33.0517 8.42374C33.0654 8.43753 33.0759 8.45427 33.0822 8.47271C33.0886 8.49114 33.0907 8.51078 33.0884 8.53015V12.1158C33.0838 12.1619 33.0888 12.2084 33.1029 12.2525C33.117 12.2965 33.14 12.3372 33.1705 12.3719C33.2723 12.4746 33.4769 12.5361 33.7732 12.5361H34.2528V13.2842H33.9053C33.4055 13.2842 33.0277 13.1505 32.7826 12.9051C32.7725 12.8943 32.7618 12.8943 32.7618 12.8848C32.7554 12.9037 32.7451 12.921 32.7315 12.9355C32.4964 13.1743 32.1799 13.2842 31.7795 13.2842H30.2504V12.5373H31.8021C32.1698 12.5373 32.3334 12.3516 32.3334 11.9725ZM32.3227 7.04478V6.44C32.3227 6.34746 32.3638 6.29672 32.4554 6.29672H32.9563C32.9756 6.29453 32.9952 6.29673 33.0135 6.30316C33.0318 6.30959 33.0484 6.32008 33.0621 6.33384C33.0759 6.34761 33.0863 6.3643 33.0927 6.38268C33.0991 6.40106 33.1013 6.42065 33.0991 6.44V7.04478C33.0991 7.13612 33.048 7.17732 32.9563 7.17732H32.4554C32.3661 7.17732 32.3227 7.13612 32.3227 7.04478Z" fill="#4C4A4C"/>
<path d="M39.3368 13.2842H33.9969V12.5374H35.5998V6.01974C35.5988 5.99977 35.6021 5.97983 35.6096 5.96129C35.6171 5.94276 35.6285 5.92609 35.6431 5.91244C35.6576 5.8988 35.675 5.88851 35.6939 5.88229C35.7128 5.87608 35.7329 5.87409 35.7527 5.87646H36.2227C36.3143 5.87646 36.3554 5.9278 36.3554 6.01974V9.61616C37.3668 8.67347 38.2444 8.19228 38.9792 8.19228C40.3066 8.19228 41.0729 9.18571 41.0729 10.5588V11.5427C41.0729 12.6281 40.419 13.2842 39.3368 13.2842ZM40.3274 11.5427V10.5588C40.3338 10.2288 40.2637 9.90183 40.1227 9.60362C39.8984 9.16302 39.5105 8.93795 38.9792 8.93795C38.6323 8.93795 38.2057 9.11168 37.6828 9.43944C37.1764 9.75733 36.7275 10.1593 36.3554 10.6281V12.5374H39.3368C40.021 12.5374 40.3274 12.2287 40.3274 11.5427Z" fill="#4C4A4C"/>
<path d="M46.1241 13.4071V13.2841H44.7253C44.1528 13.2849 43.6033 13.0578 43.1975 12.6525C42.7917 12.2472 42.5627 11.6969 42.5609 11.1223V10.354C42.5574 10.0697 42.6118 9.78762 42.7208 9.52513C42.8297 9.26264 42.9909 9.02522 43.1945 8.82742C43.3936 8.62296 43.632 8.46123 43.8952 8.35203C44.1585 8.24284 44.4411 8.18846 44.7259 8.1922C45.2967 8.19409 45.8436 8.42245 46.2472 8.82746C46.6508 9.23246 46.8784 9.78123 46.8803 10.354V12.5373H48.4225V13.2853H46.8797V13.4083C46.8797 13.951 46.6756 14.4232 46.2776 14.822C46.0958 15.0125 45.8769 15.1635 45.6346 15.2657C45.3922 15.3679 45.1316 15.419 44.8687 15.4161H43.8061C43.7882 15.4183 43.7699 15.4164 43.7528 15.4105C43.7357 15.4046 43.7202 15.3948 43.7074 15.382C43.6946 15.3692 43.6849 15.3536 43.679 15.3364C43.6731 15.3192 43.6712 15.301 43.6734 15.2829V14.8017C43.6712 14.7837 43.6731 14.7654 43.679 14.7483C43.6849 14.7311 43.6946 14.7155 43.7074 14.7027C43.7202 14.6899 43.7357 14.6801 43.7528 14.6742C43.7699 14.6683 43.7882 14.6664 43.8061 14.6686H44.8687C45.1998 14.6616 45.5153 14.5264 45.7493 14.2913C45.9833 14.0561 46.1176 13.7393 46.1241 13.4071ZM44.7253 12.5373H46.1241V10.354C46.1241 9.98031 45.9762 9.62194 45.7128 9.35771C45.4495 9.09348 45.0924 8.94503 44.72 8.94503C44.3476 8.94503 43.9904 9.09348 43.7271 9.35771C43.4638 9.62194 43.3159 9.98031 43.3159 10.354V11.1223C43.3205 11.4961 43.4705 11.8532 43.7338 12.1175C43.9971 12.3818 44.3529 12.5325 44.7253 12.5373Z" fill="#4C4A4C"/>
<path d="M49.7986 11.9827V6.02988C49.7986 5.93794 49.8391 5.8866 49.9313 5.8866H50.4109C50.5031 5.8866 50.5435 5.93794 50.5435 6.02988V11.9827C50.5435 12.7821 50.0331 13.2842 49.2471 13.2842H48.0625V12.5373H49.2572C49.635 12.526 49.7986 12.3517 49.7986 11.9827Z" fill="#4C4A4C"/>
<path d="M52.8092 13.2842H52.3195C52.2273 13.2842 52.1862 13.243 52.1862 13.1505V6.01973C52.1862 5.92779 52.2273 5.8866 52.3195 5.8866H52.8092C52.8907 5.8866 52.9317 5.92779 52.9317 6.01973V13.1505C52.9317 13.243 52.8925 13.2842 52.8092 13.2842Z" fill="#4C4A4C"/>
<path d="M57.5963 13.6716V8.53726C57.5963 8.44532 57.6373 8.39398 57.7295 8.39398H58.2097C58.2289 8.39179 58.2485 8.39399 58.2668 8.40042C58.2851 8.40685 58.3017 8.41734 58.3155 8.4311C58.3292 8.44487 58.3396 8.46157 58.346 8.47995C58.3524 8.49832 58.3546 8.51792 58.3525 8.53726V12.5373H59.9131V13.2853H58.3525V13.6716C58.3525 14.7576 57.6885 15.4131 56.6062 15.4131H56.0958C56.0035 15.4131 55.9625 15.3725 55.9625 15.2799V14.7988C55.9625 14.7062 56.0035 14.6656 56.0958 14.6656H56.6062C57.2904 14.6674 57.5963 14.3599 57.5963 13.6716ZM57.5963 7.04473V6.43995C57.5963 6.34741 57.6373 6.29667 57.7295 6.29667H58.2293C58.2486 6.29438 58.2682 6.29651 58.2866 6.30289C58.305 6.30928 58.3217 6.31975 58.3355 6.33353C58.3493 6.34731 58.3598 6.36404 58.3662 6.38247C58.3727 6.4009 58.3749 6.42055 58.3727 6.43995V7.04473C58.3727 7.13607 58.3215 7.17726 58.2293 7.17726H57.7295C57.6373 7.17726 57.5963 7.13607 57.5963 7.04473Z" fill="#4C4A4C"/>
<path d="M63.3133 6.27588H64.1605C64.2527 6.27588 64.2938 6.31707 64.2938 6.40901V6.8908C64.2938 6.98274 64.2527 7.02394 64.1605 7.02394H63.3133C62.2519 7.02394 61.6593 7.58752 61.5468 8.69558H63.4561C64.1105 8.69558 64.6514 8.9111 65.0797 9.3523C65.5081 9.79349 65.7128 10.3457 65.7128 11.012V11.9851C65.7128 12.7845 65.213 13.2866 64.4158 13.2866H59.4032V12.5374H64.4062C64.7834 12.5374 64.9673 12.3636 64.9673 11.9839V11.0108C64.9673 10.0884 64.3652 9.44304 63.4561 9.44304H61.1589C61.0602 9.44385 60.9652 9.40555 60.8944 9.33648C60.8237 9.2674 60.783 9.17311 60.7811 9.07409C60.7811 7.3923 61.6694 6.27588 63.3133 6.27588Z" fill="#4C4A4C"/>
<path d="M67.8446 13.6716V8.53729C67.8424 8.51794 67.8446 8.49835 67.851 8.47997C67.8574 8.4616 67.8678 8.4449 67.8815 8.43113C67.8953 8.41737 67.9119 8.40688 67.9302 8.40045C67.9485 8.39402 67.9681 8.39182 67.9873 8.39401H68.4574C68.4766 8.39203 68.496 8.39439 68.5142 8.4009C68.5324 8.40741 68.5489 8.41791 68.5625 8.43164C68.5761 8.44537 68.5865 8.46198 68.5929 8.48026C68.5993 8.49854 68.6016 8.51802 68.5996 8.53729V12.5373H70.1512V13.2854H68.5996V13.6716C68.5996 14.7576 67.9356 15.4131 66.8533 15.4131H66.3423C66.2506 15.4131 66.2096 15.3725 66.2096 15.28V14.7988C66.2096 14.7062 66.2506 14.6656 66.3423 14.6656H66.8533C67.5381 14.6674 67.8446 14.36 67.8446 13.6716Z" fill="#4C4A4C"/>
<path d="M76.1449 12.5374H76.9106V13.2854H76.2877C75.7564 13.2854 75.3173 13.0705 75.0627 12.6914C74.8668 12.8832 74.6352 13.0344 74.3811 13.1363C74.127 13.2382 73.8554 13.2889 73.5818 13.2854H69.6508V12.5374H71.4274V10.3541C71.4239 10.0682 71.4782 9.78457 71.587 9.52034C71.6958 9.25611 71.8569 9.01676 72.0605 8.81677C72.2596 8.61514 72.4966 8.4551 72.7577 8.34588C73.0188 8.23665 73.2989 8.18042 73.5818 8.18042C73.8647 8.18042 74.1448 8.23665 74.4059 8.34588C74.667 8.4551 74.904 8.61514 75.1031 8.81677C75.3074 9.01643 75.4691 9.25564 75.5784 9.51991C75.6877 9.78417 75.7424 10.068 75.7391 10.3541V11.1224C75.7404 11.4722 75.6565 11.8169 75.4946 12.1266C75.5606 12.403 75.8075 12.5374 76.1449 12.5374ZM72.1729 10.3553V12.5374H73.5818C73.9552 12.5366 74.3131 12.3874 74.5771 12.1224C74.8412 11.8575 74.9899 11.4983 74.9907 11.1236V10.3541C74.9907 9.97914 74.8422 9.61955 74.578 9.35442C74.3138 9.0893 73.9554 8.94035 73.5818 8.94035C73.2081 8.94035 72.8498 9.0893 72.5856 9.35442C72.3213 9.61955 72.1729 9.97914 72.1729 10.3541V10.3553Z" fill="#4C4A4C"/>
<path d="M78.3891 11.9827V6.02988C78.3891 5.93794 78.4302 5.8866 78.5218 5.8866H79.0013C79.0936 5.8866 79.134 5.93794 79.134 6.02988V11.9827C79.134 12.7821 78.6235 13.2842 77.8376 13.2842H76.653V12.5373H77.8477C78.2255 12.526 78.3891 12.3517 78.3891 11.9827Z" fill="#4C4A4C"/>
<path d="M81.4002 13.2842H80.9106C80.8184 13.2842 80.7773 13.243 80.7773 13.1505V6.01973C80.7773 5.92779 80.8184 5.8866 80.9106 5.8866H81.4002C81.4823 5.8866 81.5228 5.92779 81.5228 6.01973V13.1505C81.5228 13.243 81.4823 13.2842 81.4002 13.2842Z" fill="#4C4A4C"/>
<path d="M3.48055 25.4973H6.73025V21.6423C6.72383 21.4179 6.76496 21.1947 6.8509 20.9874C6.93685 20.7802 7.06567 20.5936 7.22883 20.44C7.55345 20.1175 7.99176 19.9366 8.44851 19.9366C8.90527 19.9366 9.34358 20.1175 9.66819 20.44C9.83291 20.5929 9.96346 20.7791 10.0512 20.9864C10.139 21.1936 10.1821 21.4172 10.1775 21.6423V24.2949H11.4864V25.0453H9.80325C9.70257 25.0444 9.6062 25.0042 9.53457 24.9332C9.46293 24.8622 9.42166 24.766 9.4195 24.665V21.6423C9.4195 21.3854 9.31776 21.1389 9.13667 20.9572C8.95558 20.7755 8.70997 20.6734 8.45387 20.6734C8.19777 20.6734 7.95216 20.7755 7.77107 20.9572C7.58998 21.1389 7.48824 21.3854 7.48824 21.6423V25.8776C7.48559 25.9776 7.44376 26.0725 7.37181 26.1418C7.29986 26.2111 7.2036 26.2492 7.10389 26.2477H3.45973C2.85584 26.2477 2.33881 26.0298 1.89199 25.6005C1.68078 25.3977 1.51362 25.1533 1.401 24.8826C1.28838 24.6119 1.23272 24.3207 1.23753 24.0274C1.24093 23.6061 1.35916 23.1937 1.57939 22.835C1.79963 22.4762 2.11348 22.1848 2.48696 21.9922L2.70472 21.8788C2.72353 21.8709 2.74387 21.8674 2.76421 21.8686C2.78976 21.8673 2.81515 21.8734 2.83732 21.8862C2.85949 21.899 2.87749 21.918 2.88916 21.9408L3.10751 22.3725C3.11769 22.3953 3.1247 22.4194 3.12833 22.4441C3.12903 22.4682 3.12247 22.4919 3.10952 22.5121C3.09657 22.5323 3.07782 22.5482 3.05575 22.5576L2.83739 22.6704C2.58734 22.7983 2.37683 22.9923 2.22858 23.2314C2.08032 23.4706 1.99994 23.7458 1.99611 24.0274C1.99552 24.8292 2.6708 25.4973 3.48055 25.4973ZM4.48723 27.3683V27.9749C4.48723 28.0674 4.44559 28.108 4.35218 28.108H3.83396C3.73996 28.108 3.69831 28.0674 3.69831 27.9749V27.3683C3.69831 27.2758 3.73996 27.2244 3.83396 27.2244H4.35218C4.44559 27.2238 4.48723 27.2758 4.48723 27.3683ZM5.86815 27.3683V27.9749C5.86815 28.0674 5.8271 28.108 5.73369 28.108H5.2244C5.13099 28.108 5.07922 28.0674 5.07922 27.9749V27.3683C5.07701 27.3487 5.07926 27.3288 5.08579 27.3102C5.09233 27.2916 5.10297 27.2747 5.11694 27.2608C5.13091 27.2469 5.14783 27.2363 5.16644 27.2299C5.18505 27.2235 5.20487 27.2215 5.2244 27.2238H5.73369C5.8271 27.2238 5.86815 27.2758 5.86815 27.3683Z" fill="#4C4A4C"/>
<path d="M13.2368 23.7391V20.2764C13.2347 20.2569 13.237 20.2371 13.2436 20.2185C13.2502 20.2 13.2608 20.1832 13.2748 20.1693C13.2887 20.1555 13.3056 20.145 13.3242 20.1386C13.3427 20.1323 13.3625 20.1302 13.382 20.1325H13.8579C13.8774 20.1302 13.8972 20.1323 13.9157 20.1386C13.9343 20.145 13.9512 20.1555 13.9651 20.1693C13.9791 20.1832 13.9898 20.2 13.9963 20.2185C14.0029 20.2371 14.0052 20.2569 14.0031 20.2764V23.7391C14.0031 24.5415 13.4736 25.0454 12.674 25.0454H11.1187V24.2949H12.6966C13.0708 24.2848 13.2368 24.1194 13.2368 23.7391ZM14.0156 18.1785V18.7851C14.0156 18.877 13.9639 18.9188 13.8704 18.9188H13.3612C13.2677 18.9188 13.2267 18.877 13.2267 18.7851V18.1785C13.2267 18.086 13.2677 18.0346 13.3612 18.0346H13.8704C13.8899 18.0323 13.9097 18.0344 13.9282 18.0407C13.9468 18.0471 13.9637 18.0576 13.9776 18.0714C13.9916 18.0852 14.0023 18.1021 14.0088 18.1206C14.0154 18.1392 14.0177 18.1589 14.0156 18.1785Z" fill="#4C4A4C"/>
<path d="M18.9354 25.1683V25.0454H17.5134C17.226 25.0492 16.9409 24.9947 16.675 24.8852C16.4092 24.7756 16.1682 24.6132 15.9665 24.4077C15.7601 24.2106 15.5964 23.9728 15.4857 23.7094C15.3749 23.4459 15.3195 23.1623 15.3227 22.8764V22.1051C15.3194 21.8191 15.3748 21.5356 15.4856 21.2721C15.5963 21.0086 15.7601 20.7709 15.9665 20.5737C16.3785 20.1654 16.9343 19.9364 17.5134 19.9364C18.0925 19.9364 18.6483 20.1654 19.0603 20.5737C19.2667 20.7709 19.4303 21.0087 19.541 21.2722C19.6518 21.5356 19.7073 21.8191 19.7041 22.1051V25.1683C19.7066 25.4338 19.6544 25.6968 19.5508 25.941C19.4472 26.1852 19.2944 26.4053 19.102 26.5875C18.9139 26.7793 18.6892 26.9311 18.4413 27.0337C18.1934 27.1363 17.9273 27.1876 17.6592 27.1845H16.5787C16.4853 27.1845 16.4437 27.1433 16.4437 27.0507V26.5672C16.4437 26.4746 16.4853 26.4334 16.5787 26.4334H17.6592C18.344 26.4328 18.9354 25.8466 18.9354 25.1683ZM17.5134 24.2949H18.9354V22.1051C18.9315 21.7287 18.7801 21.3689 18.514 21.1036C18.248 20.8383 17.8885 20.6887 17.5134 20.6872C16.7352 20.6872 16.0807 21.3242 16.0807 22.1051V22.8764C16.0807 23.6472 16.7352 24.2949 17.5134 24.2949Z" fill="#4C4A4C"/>
<path d="M21.8614 25.4359V20.2854C21.8594 20.2658 21.8618 20.246 21.8685 20.2275C21.8751 20.209 21.8858 20.1922 21.8998 20.1783C21.9138 20.1645 21.9308 20.154 21.9493 20.1477C21.9679 20.1413 21.9877 20.1392 22.0072 20.1416H22.4832C22.5026 20.1393 22.5223 20.1415 22.5408 20.1479C22.5593 20.1543 22.5762 20.1648 22.5901 20.1786C22.604 20.1924 22.6147 20.2092 22.6213 20.2277C22.6279 20.2461 22.6303 20.2659 22.6283 20.2854V24.295H24.2062V25.0454H22.6301V25.4359C22.6301 26.5254 21.9554 27.1833 20.8547 27.1833H20.3353C20.2419 27.1833 20.2003 27.1422 20.2003 27.0496V26.5672C20.2003 26.4747 20.2419 26.4335 20.3353 26.4335H20.8547C21.5503 26.4329 21.8614 26.1242 21.8614 25.4359Z" fill="#4C4A4C"/>
<path d="M26.0446 23.7296V20.2758C26.0422 20.2571 26.044 20.238 26.0498 20.22C26.0556 20.202 26.0653 20.1856 26.0782 20.1718C26.0911 20.158 26.1069 20.1473 26.1245 20.1404C26.142 20.1335 26.1609 20.1306 26.1797 20.1319H26.6681C26.7616 20.1319 26.8026 20.1827 26.8026 20.2758V23.8734C26.7997 23.9204 26.8065 23.9674 26.8226 24.0116C26.8387 24.0558 26.8637 24.0961 26.896 24.1302C27.0001 24.2328 27.2078 24.2949 27.5088 24.2949H27.9967V25.0454H27.6439C27.1346 25.0454 26.7407 24.9111 26.4914 24.6651C26.4914 24.6543 26.4807 24.6543 26.4807 24.6442L26.4391 24.6955C26.2011 24.9343 25.8893 25.0454 25.4842 25.0454H23.6993V24.2949H25.5056C25.881 24.2949 26.0446 24.0997 26.0446 23.7296ZM25.3307 18.7851V18.1785C25.3285 18.1589 25.3309 18.1392 25.3374 18.1206C25.344 18.1021 25.3547 18.0852 25.3686 18.0714C25.3826 18.0576 25.3995 18.0471 25.418 18.0407C25.4366 18.0344 25.4564 18.0323 25.4758 18.0346H25.9952C26.0886 18.0346 26.1303 18.086 26.1303 18.1785V18.7851C26.1303 18.877 26.0886 18.9188 25.9952 18.9188H25.4758C25.38 18.9188 25.3283 18.877 25.3283 18.7851H25.3307ZM26.7223 18.7851V18.1785C26.7223 18.086 26.7639 18.0346 26.8573 18.0346H27.366C27.3855 18.0323 27.4053 18.0344 27.4238 18.0407C27.4424 18.0471 27.4593 18.0576 27.4732 18.0714C27.4872 18.0852 27.4979 18.1021 27.5044 18.1206C27.511 18.1392 27.5133 18.1589 27.5112 18.1785V18.7851C27.5112 18.877 27.4594 18.9188 27.366 18.9188H26.8573C26.7616 18.9188 26.7199 18.877 26.7199 18.7851H26.7223Z" fill="#4C4A4C"/>
<path d="M31.7117 18.0143H32.5744C32.5925 18.0117 32.611 18.0133 32.6284 18.019C32.6458 18.0247 32.6617 18.0344 32.6748 18.0473C32.6878 18.0602 32.6978 18.0759 32.7038 18.0933C32.7098 18.1107 32.7117 18.1292 32.7094 18.1474V18.631C32.7094 18.7235 32.6678 18.7749 32.5744 18.7749H31.7117C30.6324 18.7749 30.0297 19.3301 29.9161 20.44H31.8473C32.5113 20.44 33.0617 20.6555 33.4978 21.0967C33.9339 21.5379 34.1522 22.0937 34.1522 22.7617V23.8722C34.1522 23.9952 34.1838 24.0776 34.2462 24.1289C34.3498 24.2316 34.5473 24.2937 34.8585 24.2937H35.4005V25.0441H34.984C34.4753 25.0441 34.1011 24.9098 33.8536 24.6638L33.8327 24.6429C33.6049 24.9003 33.2723 25.0441 32.8362 25.0441H27.7361V24.2949H32.8237C33.2074 24.2949 33.3948 24.12 33.3948 23.7295V22.7629C33.3948 21.8376 32.782 21.1904 31.8479 21.1904H29.5222C29.472 21.191 29.4222 21.1815 29.3757 21.1627C29.3292 21.1438 29.2868 21.1159 29.2511 21.0806C29.2154 21.0452 29.187 21.0031 29.1675 20.9567C29.1481 20.9103 29.138 20.8605 29.1379 20.8101C29.1379 19.1241 30.0511 18.0143 31.7117 18.0143Z" fill="#4C4A4C"/>
<path d="M36.8498 23.7392V17.769C36.8498 17.6765 36.8914 17.6251 36.9849 17.6251H37.4727C37.5661 17.6251 37.6078 17.6765 37.6078 17.769V23.7392C37.6078 24.5415 37.0884 25.0454 36.2887 25.0454H35.0851V24.295H36.2995C36.6838 24.2848 36.8498 24.1099 36.8498 23.7392Z" fill="#4C4A4C"/>
<path d="M43.1404 23.2979V17.7672C43.1404 17.6746 43.182 17.6233 43.276 17.6233H43.7633C43.8567 17.6233 43.8984 17.6746 43.8984 17.7672V23.2979C43.8984 24.397 43.2338 25.0454 42.1337 25.0454H39.0601C38.9667 25.0454 38.925 24.994 38.925 24.9015V24.4287C38.925 24.3361 38.9667 24.2949 39.0601 24.2949H42.1337C42.8292 24.2949 43.1404 23.9863 43.1404 23.2979ZM40.7111 26.5767V27.1833H41.7702C41.8326 27.1833 41.8743 27.2137 41.8743 27.2758V27.4914C41.8751 27.5052 41.8729 27.5191 41.8679 27.5321C41.863 27.5451 41.8553 27.5568 41.8455 27.5666C41.8356 27.5764 41.8238 27.5839 41.8108 27.5887C41.7978 27.5936 41.784 27.5956 41.7702 27.5946H40.0049C39.9454 27.5946 39.9115 27.5534 39.9115 27.4914V27.2758C39.9097 27.2631 39.9108 27.2502 39.9149 27.2381C39.9189 27.2259 39.9258 27.2149 39.9349 27.2059C39.944 27.1969 39.955 27.1901 39.9672 27.1862C39.9794 27.1823 39.9923 27.1813 40.0049 27.1833H40.2958V26.5767C40.2987 26.3713 40.3819 26.1752 40.5277 26.0308C40.6734 25.8865 40.8699 25.8055 41.0746 25.8054C41.4168 25.8054 41.6553 25.9702 41.7886 26.2788L41.8404 26.3815C41.8489 26.3934 41.8527 26.4081 41.8511 26.4227C41.8511 26.4633 41.8201 26.4824 41.7785 26.5045L41.5804 26.5875C41.564 26.5945 41.5464 26.5978 41.5286 26.597C41.4876 26.597 41.4691 26.5767 41.4459 26.5373L41.4144 26.4448C41.3884 26.3757 41.3413 26.3166 41.2799 26.276C41.2184 26.2354 41.1458 26.2153 41.0723 26.2185C40.9776 26.2197 40.887 26.2577 40.8197 26.3245C40.7523 26.3913 40.7134 26.4817 40.7111 26.5767ZM40.5136 23.3081V18.5916C40.5136 18.4991 40.5552 18.4478 40.6487 18.4478H41.1371C41.2305 18.4478 41.2716 18.4991 41.2716 18.5916V23.3081C41.2716 23.4006 41.2305 23.4418 41.1371 23.4418H40.6487C40.5552 23.4418 40.5136 23.403 40.5136 23.3081Z" fill="#4C4A4C"/>
<path d="M46.2015 25.0454H45.7029C45.6095 25.0454 45.5678 25.0036 45.5678 24.9111V17.757C45.5678 17.6645 45.6095 17.6233 45.7029 17.6233H46.2015C46.2848 17.6233 46.3258 17.6645 46.3258 17.757V24.9111C46.3258 25.0036 46.2848 25.0454 46.2015 25.0454Z" fill="#4C4A4C"/>
<path d="M56.8519 24.2949H57.6724V25.0454H56.9977C56.4474 25.0454 56.0113 24.8293 55.7519 24.4484C55.3475 24.8381 54.8066 25.0526 54.246 25.0454H51.6817C51.4993 25.0447 51.3241 25.1165 51.1942 25.245C51.0644 25.3735 50.9904 25.5484 50.9886 25.7314V27.1188C50.9886 27.2114 50.9368 27.2526 50.8434 27.2526H50.3549C50.2615 27.2526 50.2199 27.2114 50.2199 27.1188V25.7314C50.2199 24.9403 50.8844 24.2824 51.6841 24.2824H52.0577V22.0949C52.0545 21.8089 52.11 21.5253 52.2207 21.2617C52.3315 20.9982 52.4951 20.7603 52.7015 20.563C52.9032 20.3577 53.1442 20.1954 53.4101 20.0859C53.6759 19.9765 53.9611 19.9221 54.2484 19.926C54.5342 19.922 54.8179 19.9764 55.0821 20.0859C55.3463 20.1954 55.5855 20.3578 55.7852 20.563C55.9916 20.7603 56.1553 20.9981 56.2661 21.2617C56.3768 21.5253 56.4323 21.8089 56.4289 22.0949V22.8764C56.4302 23.2276 56.3448 23.5736 56.1802 23.8836C56.2504 24.1511 56.5217 24.2949 56.8519 24.2949ZM52.8133 22.0949V24.2848H54.246C54.4323 24.2868 54.6171 24.2519 54.7899 24.1822C54.9628 24.1125 55.1202 24.0093 55.2533 23.8785C55.3864 23.7477 55.4925 23.5919 55.5656 23.42C55.6387 23.248 55.6773 23.0633 55.6793 22.8764V22.0949C55.6793 21.3242 55.0248 20.6872 54.246 20.6872C53.4672 20.6872 52.8133 21.3242 52.8133 22.0949Z" fill="#4C4A4C"/>
<path d="M59.4769 23.7295V20.2758C59.4748 20.2562 59.4771 20.2364 59.4837 20.2179C59.4903 20.1994 59.501 20.1825 59.5149 20.1687C59.5289 20.1549 59.5458 20.1444 59.5643 20.138C59.5829 20.1316 59.6026 20.1296 59.6221 20.1319H60.0981C60.1176 20.1296 60.1373 20.1316 60.1559 20.138C60.1744 20.1444 60.1913 20.1549 60.2053 20.1687C60.2192 20.1825 60.2299 20.1994 60.2365 20.2179C60.243 20.2364 60.2454 20.2562 60.2432 20.2758V23.8734C60.2386 23.9197 60.2436 23.9664 60.258 24.0106C60.2723 24.0548 60.2957 24.0955 60.3265 24.1301C60.4301 24.2328 60.6383 24.2949 60.9394 24.2949H61.4272V25.0454H61.0738C60.5651 25.0454 60.1814 24.911 59.9321 24.6651C59.922 24.6543 59.9113 24.6543 59.9113 24.6442C59.9048 24.6633 59.8942 24.6809 59.8803 24.6955C59.6423 24.9343 59.3193 25.0454 58.9141 25.0454H57.3589V24.2949H58.9367C59.3109 24.2949 59.4769 24.1098 59.4769 23.7295ZM59.0801 26.166V26.763C59.0801 26.8555 59.0378 26.9069 58.945 26.9069H58.4262C58.3328 26.9069 58.2906 26.8555 58.2906 26.763V26.166C58.2906 26.0734 58.3328 26.0221 58.4262 26.0221H58.945C59.0402 26.0221 59.0801 26.0734 59.0801 26.166ZM60.4711 26.166V26.763C60.4732 26.7825 60.4709 26.8023 60.4643 26.8209C60.4578 26.8394 60.4471 26.8562 60.4331 26.8701C60.4192 26.8839 60.4023 26.8944 60.3837 26.9008C60.3652 26.9071 60.3454 26.9092 60.326 26.9069H59.8167C59.7972 26.9092 59.7774 26.9071 59.7589 26.9008C59.7403 26.8944 59.7234 26.8839 59.7095 26.8701C59.6955 26.8562 59.6848 26.8394 59.6783 26.8209C59.6717 26.8023 59.6694 26.7825 59.6715 26.763V26.166C59.6694 26.1464 59.6717 26.1266 59.6783 26.108C59.6848 26.0895 59.6955 26.0727 59.7095 26.0589C59.7234 26.045 59.7403 26.0345 59.7589 26.0282C59.7774 26.0218 59.7972 26.0197 59.8167 26.0221H60.3295C60.3489 26.0199 60.3685 26.0221 60.3869 26.0286C60.4053 26.035 60.4221 26.0456 60.4359 26.0594C60.4497 26.0732 60.4603 26.0899 60.4668 26.1084C60.4733 26.1268 60.4756 26.1465 60.4735 26.166H60.4711Z" fill="#4C4A4C"/>
<path d="M62.9849 23.7296V17.7672C62.9849 17.6746 63.0265 17.6233 63.1199 17.6233H63.6078C63.7012 17.6233 63.7428 17.6746 63.7428 17.7672V23.8734C63.7428 23.9964 63.7738 24.0788 63.8362 24.1302C63.9398 24.2328 64.1474 24.2949 64.4491 24.2949H64.978V25.0454H64.5734C64.0439 25.0454 63.681 24.9015 63.421 24.6442C63.4096 24.6632 63.3956 24.6805 63.3793 24.6955C63.1509 24.9343 62.829 25.0454 62.4274 25.0454H61.1708V24.2949H62.4375C62.8082 24.2949 62.9849 24.1099 62.9849 23.7296Z" fill="#4C4A4C"/>
<path d="M71.7779 25.0454H64.6662V24.295H67.0747L66.0573 22.1457C66.037 22.0934 66.0265 22.0377 66.0263 21.9815V21.9296C66.0989 21.4162 66.3476 20.9636 66.7843 20.5732C67.2514 20.1409 67.7702 19.9254 68.3521 19.9254C68.9315 19.9254 69.4903 20.1416 69.9198 20.532C70.3761 20.9326 70.626 21.4054 70.6778 21.9505V21.9917C70.6773 22.0445 70.6668 22.0968 70.6468 22.1457L69.6289 24.295H71.7779V25.0454ZM67.3442 21.0747C67.0646 21.3218 66.8777 21.612 66.8051 21.9278L67.9159 24.2926H68.7983L69.9085 21.92C69.8561 21.5815 69.6794 21.2932 69.3683 21.0568C69.0833 20.8168 68.7229 20.6859 68.3509 20.6872C67.9885 20.6872 67.6565 20.8203 67.3442 21.0747Z" fill="#4C4A4C"/>
<path d="M73.8115 23.7296V20.2758C73.809 20.2571 73.8108 20.2381 73.8166 20.2202C73.8223 20.2022 73.832 20.1858 73.8449 20.1721C73.8577 20.1583 73.8734 20.1476 73.8909 20.1406C73.9084 20.1337 73.9272 20.1307 73.9459 20.1319H74.4344C74.5278 20.1319 74.5688 20.1827 74.5688 20.2758V23.8734C74.566 23.9204 74.5728 23.9674 74.5888 24.0116C74.6049 24.0558 74.6299 24.0961 74.6623 24.1302C74.7664 24.2328 74.9734 24.2949 75.2751 24.2949H75.7629V25.0454H75.4101C74.9008 25.0454 74.507 24.9111 74.2571 24.6651C74.2571 24.6543 74.247 24.6543 74.247 24.6442L74.2053 24.6955C73.9673 24.9343 73.6556 25.0454 73.2534 25.0454H71.4685V24.2949H73.2748C73.6449 24.2949 73.8115 24.0997 73.8115 23.7296ZM73.0975 18.7851V18.1785C73.0955 18.159 73.0979 18.1392 73.1045 18.1207C73.1111 18.1022 73.1218 18.0855 73.1357 18.0717C73.1497 18.0579 73.1665 18.0474 73.185 18.041C73.2035 18.0346 73.2232 18.0324 73.2427 18.0346H73.7621C73.8555 18.0346 73.8971 18.086 73.8971 18.1785V18.7851C73.8971 18.877 73.8555 18.9188 73.7621 18.9188H73.2403C73.1469 18.9188 73.0945 18.877 73.0945 18.7851H73.0975ZM74.4891 18.7851V18.1785C74.4891 18.086 74.5308 18.0346 74.6242 18.0346H75.1329C75.1523 18.0323 75.1721 18.0344 75.1907 18.0407C75.2092 18.0471 75.2261 18.0576 75.2401 18.0714C75.254 18.0852 75.2647 18.1021 75.2713 18.1206C75.2778 18.1392 75.2802 18.1589 75.278 18.1785V18.7851C75.278 18.877 75.2263 18.9188 75.1329 18.9188H74.6242C74.5278 18.9188 74.4861 18.877 74.4861 18.7851H74.4891Z" fill="#4C4A4C"/>
<path d="M77.3188 23.7296V17.7672C77.3188 17.6746 77.3604 17.6233 77.4538 17.6233H77.9405C78.0345 17.6233 78.0762 17.6746 78.0762 17.7672V23.8734C78.0762 23.9964 78.1071 24.0788 78.1696 24.1302C78.2731 24.2328 78.4807 24.2949 78.7818 24.2949H79.3113V25.0454H78.9067C78.3772 25.0454 78.0143 24.9015 77.7543 24.6442C77.743 24.6632 77.7289 24.6805 77.7127 24.6955C77.4842 24.9343 77.1623 25.0454 76.7607 25.0454H75.5012V24.2949H76.7678C77.1421 24.2949 77.3188 24.1099 77.3188 23.7296Z" fill="#4C4A4C"/>
<path d="M80.7648 23.7392V17.769C80.7648 17.6765 80.8065 17.6251 80.8999 17.6251H81.3877C81.4812 17.6251 81.5228 17.6765 81.5228 17.769V23.7392C81.5228 24.5415 81.0034 25.0454 80.2038 25.0454H79.0002V24.295H80.2145C80.5988 24.2848 80.7648 24.1099 80.7648 23.7392Z" fill="#4C4A4C"/>
<path d="M1.57726 30.8782C1.59094 30.9821 1.59927 31.9928 1.59927 32.166L1.60641 35.0746H1.08581L1.07867 30.2203H1.84202L3.45497 33.2925C3.50256 33.3892 3.96723 34.2824 4.00829 34.3857H4.05588C4.0422 34.24 4.04041 33.1916 4.04041 33.0836L4.03625 30.2179H4.54732L4.55446 35.0722H3.80481L2.17817 31.9779C2.13057 31.8812 1.67245 30.9958 1.6314 30.8782H1.57726Z" fill="#4C4A4C"/>
<path d="M8.16947 32.3844V34.0883C8.16947 34.4274 8.273 34.6555 8.53181 34.6555H8.6276V35.0501C8.56814 35.079 8.50268 35.0934 8.43661 35.0919C8.06833 35.0919 7.84998 34.8919 7.76133 34.6358H7.73455C7.55606 34.8435 7.25858 35.142 6.63149 35.1426C5.94311 35.1426 5.56055 34.6531 5.56055 34.1408C5.56055 33.3098 6.36256 32.8997 7.67803 32.9182V32.5098C7.67803 31.8937 7.38352 31.714 6.89327 31.7146C6.40302 31.7152 6.1573 31.9928 6.04901 32.1731L5.65991 31.862C5.78901 31.6829 6.13588 31.2447 6.90576 31.2435C7.69766 31.2423 8.16828 31.5946 8.16947 32.3844ZM7.68041 33.3397C6.78796 33.3062 6.0859 33.5289 6.08709 34.0967C6.08709 34.4292 6.32508 34.6991 6.75583 34.6985C6.94005 34.6942 7.12049 34.6452 7.28171 34.5557C7.44294 34.4662 7.58015 34.3388 7.6816 34.1844L7.68041 33.3397Z" fill="#4C4A4C"/>
<path d="M9.5968 34.0579L9.59324 31.7295H9.04111V31.3827L9.59324 31.2782L9.75745 30.3044H10.1144V31.2949H11.1366V31.7313H10.1144L10.118 34.0298C10.118 34.4525 10.3304 34.6268 10.657 34.6268C10.9545 34.6268 11.1277 34.557 11.2228 34.4943L11.3734 34.9235C11.23 35.0071 10.9849 35.0973 10.5404 35.0979C9.93237 35.0967 9.59799 34.7713 9.5968 34.0579Z" fill="#4C4A4C"/>
<path d="M12.48 29.7946C12.5325 29.7926 12.5849 29.8011 12.634 29.8199C12.6831 29.8386 12.7279 29.8671 12.7658 29.9037C12.8036 29.9402 12.8338 29.984 12.8543 30.0326C12.8749 30.0811 12.8855 30.1332 12.8855 30.186C12.8855 30.2387 12.8749 30.2908 12.8543 30.3394C12.8338 30.3879 12.8036 30.4317 12.7658 30.4682C12.7279 30.5048 12.6831 30.5333 12.634 30.552C12.5849 30.5708 12.5325 30.5794 12.48 30.5773C12.3792 30.5733 12.2838 30.5304 12.2139 30.4574C12.144 30.3845 12.1049 30.2872 12.1049 30.186C12.1049 30.0847 12.144 29.9874 12.2139 29.9145C12.2838 29.8415 12.3792 29.7986 12.48 29.7946ZM12.2509 31.2913H12.7822L12.7876 35.0585H12.2563L12.2509 31.2913Z" fill="#4C4A4C"/>
<path d="M13.8484 33.1791C13.8484 32.0161 14.2744 31.2185 15.3989 31.2173C16.5234 31.2161 16.9202 31.9898 16.9214 33.1397C16.9214 34.3033 16.4883 35.1146 15.3638 35.1158C14.2393 35.117 13.8502 34.3355 13.8484 33.1791ZM15.4043 34.6447C16.1182 34.6447 16.3782 34.1671 16.3764 33.1821C16.3764 32.1713 16.0748 31.68 15.359 31.6812C14.657 31.6812 14.3922 32.1588 14.3934 33.1367C14.3982 34.1492 14.6957 34.6459 15.4043 34.6447Z" fill="#4C4A4C"/>
<path d="M20.6596 35.0448H20.1277L20.1241 32.5726C20.1241 31.9976 19.8433 31.677 19.3257 31.6806C19.1181 31.6815 18.9159 31.7472 18.7473 31.8687C18.5786 31.9901 18.4518 32.1612 18.3844 32.3582L18.3886 35.052H17.8567L17.8513 31.2848H18.253L18.363 31.6794H18.3904C18.5225 31.5297 18.6851 31.41 18.8671 31.3286C19.0492 31.2471 19.2465 31.2057 19.4459 31.2072C20.1884 31.2072 20.6322 31.6138 20.6536 32.452L20.6596 35.0448Z" fill="#4C4A4C"/>
<path d="M24.1723 32.3582V34.0621C24.1723 34.4012 24.2752 34.6298 24.5346 34.6292H24.6316V35.0239C24.5725 35.0531 24.5071 35.0675 24.4412 35.0657C24.0729 35.0657 23.8546 34.8657 23.7659 34.6095H23.7391C23.5607 34.8179 23.2632 35.1158 22.6361 35.117C21.9483 35.117 21.5651 34.6268 21.5651 34.1146C21.5651 33.2836 22.3677 32.8734 23.6832 32.8925V32.4836C23.6832 31.8674 23.3857 31.6877 22.8979 31.6883C22.41 31.6889 22.1625 31.9666 22.0536 32.1469L21.6645 31.8358C21.7942 31.6567 22.1405 31.2191 22.911 31.2179C23.7005 31.2185 24.1711 31.5707 24.1723 32.3582ZM23.6832 33.3134C22.7908 33.2806 22.0887 33.5033 22.0893 34.071C22.0893 34.4036 22.3273 34.6728 22.758 34.6722C22.9424 34.668 23.1229 34.6191 23.2843 34.5296C23.4456 34.4401 23.5829 34.3126 23.6844 34.1582L23.6832 33.3134Z" fill="#4C4A4C"/>
<path d="M26.0428 29.7815L26.0494 34.1439C26.0494 34.4764 26.1589 34.6215 26.4385 34.6215C26.5453 34.6207 26.6504 34.5943 26.7449 34.5445V35.0018C26.5975 35.0604 26.4399 35.0888 26.2814 35.0854C25.7709 35.0854 25.5246 34.7821 25.524 34.2902L25.5175 29.7821L26.0428 29.7815Z" fill="#4C4A4C"/>
<path d="M32.0092 34.7373C31.764 34.9247 31.3755 35.0776 30.8442 35.0788C29.7882 35.0788 29.2146 34.5337 29.2128 33.1277C29.2128 31.7635 29.9595 31.2018 30.7841 31.2006C31.6629 31.2006 32.1341 31.7803 32.1353 32.6734C32.134 32.8911 32.1207 33.1085 32.0954 33.3247L29.7376 33.3283C29.787 34.2561 30.1689 34.6083 30.9115 34.6071C31.2797 34.6071 31.6135 34.4609 31.77 34.3224L32.0092 34.7373ZM29.7435 32.8865L31.604 32.8835C31.6111 32.8077 31.6105 32.711 31.6105 32.6692C31.6105 32.025 31.3363 31.6656 30.7371 31.6662C30.2504 31.6656 29.7876 31.9779 29.7412 32.8847L29.7435 32.8865Z" fill="#4C4A4C"/>
<path d="M33.7244 30.1714L33.731 34.5338L35.7824 34.5308V35.0227L33.186 35.0263L33.1783 30.172L33.7244 30.1714Z" fill="#4C4A4C"/>
<path d="M39.0541 34.7265C38.809 34.914 38.4205 35.0668 37.8892 35.068C36.8325 35.068 36.2596 34.5236 36.2572 33.117C36.2572 31.7528 37.0039 31.191 37.8291 31.1898C38.7079 31.1898 39.1791 31.7695 39.1803 32.6627C39.1787 32.8803 39.1654 33.0978 39.1404 33.314L36.7826 33.3176C36.8314 34.2453 37.2139 34.5976 37.9564 34.5964C38.3247 34.5964 38.6585 34.4501 38.815 34.3116L39.0541 34.7265ZM36.7885 32.8758H38.649C38.6555 32.7994 38.6555 32.7027 38.6555 32.6609C38.6555 32.0167 38.3812 31.6573 37.7815 31.6585C37.2978 31.6549 36.8349 31.9671 36.7885 32.874V32.8758Z" fill="#4C4A4C"/>
<path d="M42.5603 32.3325V34.0358C42.5603 34.3755 42.6638 34.6036 42.9226 34.603H43.0178V34.9976C42.9587 35.0269 42.8933 35.0412 42.8274 35.0394C42.4591 35.0394 42.2408 34.8394 42.1515 34.5833H42.1248C41.9463 34.791 41.6488 35.0889 41.0217 35.0901C40.3333 35.0901 39.9508 34.6 39.9508 34.0877C39.9508 33.2567 40.7528 32.8465 42.0682 32.8657V32.4567C42.0682 31.8406 41.7708 31.6609 41.2829 31.6615C40.795 31.6621 40.5493 31.9403 40.4404 32.1194L40.0519 31.8083C40.181 31.6292 40.5279 31.1916 41.2978 31.1904C42.0885 31.1904 42.5591 31.5427 42.5603 32.3325ZM42.0712 33.2877C41.1788 33.2543 40.4767 33.477 40.4779 34.0448C40.4779 34.3773 40.7159 34.6466 41.146 34.646C41.3304 34.6418 41.5109 34.5928 41.6723 34.5033C41.8336 34.4138 41.9709 34.2864 42.0724 34.1319L42.0712 33.2877Z" fill="#4C4A4C"/>
<path d="M45.7219 31.7731C45.5865 31.7345 45.4462 31.7162 45.3055 31.7188C44.9443 31.7188 44.5695 31.865 44.3928 32.2047L44.397 35.0107H43.8728L43.8674 31.2435H44.2696L44.3856 31.6614H44.413C44.5766 31.3916 44.9169 31.1838 45.3459 31.1838C45.4718 31.18 45.5976 31.1914 45.7208 31.2179L45.7219 31.7731Z" fill="#4C4A4C"/>
<path d="M49.1341 35.0024H48.6028L48.5992 32.5302C48.5992 31.9553 48.3184 31.6377 47.8007 31.6383C47.5941 31.6393 47.3928 31.7045 47.2245 31.825C47.0563 31.9455 46.9294 32.1153 46.8613 32.3111L46.8649 35.0054H46.3336L46.3276 31.2383H46.7298L46.8393 31.6323H46.8666C46.9991 31.4828 47.1618 31.3634 47.3439 31.2819C47.526 31.2005 47.7233 31.159 47.9227 31.1601C48.6652 31.1601 49.1091 31.5672 49.1305 32.4048L49.1341 35.0024Z" fill="#4C4A4C"/>
<path d="M50.6465 29.7367C50.699 29.7347 50.7514 29.7433 50.8005 29.762C50.8496 29.7808 50.8944 29.8093 50.9323 29.8458C50.9701 29.8823 51.0003 29.9262 51.0208 29.9747C51.0414 30.0232 51.052 30.0754 51.052 30.1281C51.052 30.1808 51.0414 30.233 51.0208 30.2815C51.0003 30.33 50.9701 30.3738 50.9323 30.4104C50.8944 30.4469 50.8496 30.4754 50.8005 30.4942C50.7514 30.5129 50.699 30.5215 50.6465 30.5194C50.5457 30.5155 50.4503 30.4725 50.3804 30.3996C50.3105 30.3266 50.2714 30.2293 50.2714 30.1281C50.2714 30.0269 50.3105 29.9296 50.3804 29.8566C50.4503 29.7837 50.5457 29.7407 50.6465 29.7367ZM50.4174 31.2329H50.9487L50.9541 35H50.4228L50.4174 31.2329Z" fill="#4C4A4C"/>
<path d="M55.0159 34.9934H54.4846L54.4804 32.5212C54.4804 31.9462 54.2002 31.6256 53.682 31.6292C53.4753 31.6304 53.2741 31.6957 53.1059 31.8162C52.9377 31.9366 52.8108 32.1064 52.7425 32.3021L52.7467 34.9964H52.2148L52.2094 31.2292H52.6116L52.7211 31.6233H52.7485C52.8808 31.4738 53.0434 31.3543 53.2254 31.2729C53.4074 31.1914 53.6047 31.1499 53.8039 31.151C54.5465 31.151 54.9903 31.5582 55.0117 32.3958L55.0159 34.9934Z" fill="#4C4A4C"/>
<path d="M58.7915 35.0155C58.7915 36.0054 58.1966 36.4985 57.2672 36.4997C56.5652 36.4997 56.1963 36.252 56.047 36.0997L56.3528 35.6699C56.5372 35.8567 56.8288 36.0227 57.3279 36.0221C58.0026 36.0221 58.2745 35.6878 58.2739 35.0161V34.6699H58.2472C58.1317 34.7738 57.8182 34.9684 57.341 34.9684C56.5783 34.9684 55.9298 34.4854 55.928 33.2048C55.928 32 56.5039 31.1887 57.7307 31.1869C58.2007 31.1869 58.5637 31.2687 58.7874 31.3791L58.7915 35.0155ZM57.6552 31.6585C56.9412 31.6585 56.4652 32.1361 56.4652 33.1349C56.4652 34.2155 56.9579 34.4985 57.4826 34.4979C57.7753 34.4979 58.0889 34.3654 58.2656 34.1296L58.262 31.7612C58.0678 31.6898 57.862 31.655 57.6552 31.6585Z" fill="#4C4A4C"/>
<path d="M63.6846 30.0562C64.414 30.0562 64.7959 30.3182 64.953 30.4562L64.6127 30.8788C64.408 30.7063 64.1284 30.5541 63.631 30.5547C62.798 30.5547 62.2894 31.1738 62.2911 32.5445C62.2911 33.8579 62.7784 34.5451 63.6917 34.5439C64.1754 34.5439 64.4544 34.4114 64.6246 34.2454L64.9221 34.6394C64.7109 34.8472 64.2956 35.049 63.6131 35.0502C62.2977 35.0502 61.7307 34.0908 61.7283 32.5947C61.7301 31.0012 62.4119 30.0579 63.6846 30.0562Z" fill="#4C4A4C"/>
<path d="M68.3616 34.6823C68.117 34.8692 67.7285 35.0226 67.1972 35.0232C66.1406 35.0232 65.5676 34.4787 65.5652 33.0728C65.5652 31.7086 66.3119 31.1462 67.1365 31.145C68.0159 31.145 68.4865 31.7247 68.4883 32.6185C68.4867 32.8359 68.4734 33.0532 68.4484 33.2692L66.09 33.2728C66.1394 34.2011 66.5219 34.5534 67.2645 34.5522C67.6327 34.5522 67.9659 34.4059 68.123 34.2668L68.3616 34.6823ZM66.0965 32.8316H67.957C67.9635 32.7558 67.9635 32.6585 67.9635 32.6167C67.9635 31.9731 67.6893 31.6131 67.0895 31.6143C66.604 31.6101 66.1412 31.9223 66.0948 32.8298L66.0965 32.8316Z" fill="#4C4A4C"/>
<path d="M72.2657 34.9672H71.7344L71.7309 32.4949C71.7309 31.92 71.45 31.6024 70.9318 31.603C70.7252 31.6042 70.524 31.6695 70.3558 31.7899C70.1876 31.9104 70.0606 32.0801 69.9924 32.2758L69.9965 34.9702H69.4646L69.4593 31.203H69.8609L69.971 31.5976H69.9977C70.1302 31.4481 70.2929 31.3287 70.475 31.2473C70.6571 31.1658 70.8544 31.1243 71.0538 31.1254C71.7969 31.1254 72.2402 31.5326 72.2616 32.3702L72.2657 34.9672Z" fill="#4C4A4C"/>
<path d="M73.4914 33.9613L73.4878 31.6329H72.9357V31.2866L73.4878 31.1815L73.6496 30.2048H74.0108V31.1953H75.0335V31.6317H74.0114V33.9308C74.0114 34.3529 74.2238 34.5278 74.551 34.5278C74.8485 34.5278 75.021 34.458 75.1162 34.3959L75.2667 34.8245C75.124 34.9081 74.8788 34.9983 74.4338 34.9989C73.8269 34.9995 73.492 34.6747 73.4914 33.9613Z" fill="#4C4A4C"/>
<path d="M78.57 34.6668C78.3248 34.8537 77.9363 35.0071 77.405 35.0077C76.3484 35.0077 75.7754 34.4633 75.773 33.0573C75.773 31.6931 76.5197 31.1307 77.3443 31.1295C78.2237 31.1295 78.6943 31.7092 78.6961 32.6029C78.6939 32.8205 78.68 33.0377 78.6545 33.2537L76.296 33.2573C76.3454 34.1856 76.728 34.5379 77.4705 34.5367C77.8382 34.5367 78.1719 34.3904 78.3284 34.2513L78.57 34.6668ZM76.3043 32.8161H78.1648C78.1714 32.7403 78.1714 32.643 78.1714 32.6012C78.1714 31.9576 77.8971 31.5976 77.2973 31.5988C76.8136 31.5946 76.3502 31.9068 76.3043 32.8143V32.8161Z" fill="#4C4A4C"/>
<path d="M81.5228 31.7188C81.3874 31.6802 81.2471 31.6617 81.1063 31.6639C80.7452 31.6639 80.371 31.8107 80.1943 32.1498L80.1984 34.9558H79.6737L79.6683 31.1886H80.0699L80.1889 31.6065H80.2163C80.3793 31.3367 80.7196 31.1289 81.1492 31.1289C81.275 31.1258 81.4008 31.1372 81.524 31.163L81.5228 31.7188Z" fill="#4C4A4C"/>
<path d="M87.5293 8.60654C87.5459 8.60774 87.5626 8.60774 87.5792 8.60654C87.6094 8.60829 87.6394 8.60102 87.6655 8.58565C87.6784 8.5757 87.6888 8.56281 87.6958 8.54804L87.5941 8.45371C86.8405 7.7552 86.0934 7.05351 85.3529 6.34863V8.59221L86.1507 8.59699C86.6094 8.60236 87.0705 8.5761 87.5293 8.60654Z" fill="#43B766"/>
<path d="M87.6679 13.0436C87.6679 13.0436 87.6899 13.0358 87.6923 13.0209C87.6947 13.006 87.6732 12.991 87.6649 12.9857C87.6521 12.9777 87.6377 12.9728 87.6227 12.9713C87.5737 12.9636 87.524 12.9614 87.4745 12.9648C87.4013 12.9761 86.6047 12.9791 85.3529 12.9773V15.209L87.6679 13.0436Z" fill="#43B766"/>
<path d="M93.1407 1.11328H92.3226C92.3226 1.11746 92.3226 1.12164 92.3226 1.12582V1.11328H85.3532C85.3484 1.11328 85.358 1.11328 85.3532 1.11328C85.3484 1.11328 85.358 1.12164 85.3532 1.12821C85.3484 1.13477 85.3532 1.13836 85.3532 1.14373V1.15388C85.3532 1.60343 85.3532 2.12821 85.3532 2.61955V3.38731C85.3532 3.85895 85.3532 4.46791 85.3532 4.88522L85.9041 5.40522C86.7252 6.18174 87.5464 6.95487 88.3679 7.72463C88.4212 7.76233 88.4696 7.80667 88.5119 7.85657C88.5571 7.91254 88.5957 7.97365 88.6267 8.03865C88.6674 8.11355 88.7005 8.19235 88.7255 8.27388C88.7755 8.44713 88.7794 8.63052 88.7368 8.80576C88.6942 8.98101 88.6066 9.142 88.4827 9.27269C88.3714 9.39407 88.2369 9.49169 88.0871 9.5597C87.9373 9.62771 87.7754 9.66471 87.6111 9.66851L85.3502 9.66015V11.9091L86.5473 11.9037L87.5587 11.8984C87.5796 11.8984 87.6081 11.8984 87.642 11.9037C87.7163 11.9096 87.79 11.9205 87.8628 11.9366C87.9646 11.9599 88.0632 11.996 88.1561 12.044C88.4049 12.1751 88.5968 12.3936 88.6951 12.6578C88.7575 12.8252 88.7757 13.006 88.7481 13.1825C88.7186 13.356 88.648 13.5198 88.5422 13.6601C88.5052 13.7078 88.4655 13.7533 88.4232 13.7963C88.3084 13.9178 88.1862 14.032 88.0573 14.1384C87.9074 14.2613 87.2131 14.896 85.3532 16.6715C85.3681 16.6816 85.3383 16.6924 85.3532 16.7025C85.333 16.6888 85.3574 16.6745 85.3532 16.6715V19.0058C88.7148 21.9646 89.7744 22.9915 90.0273 23.3127C90.3182 23.6828 90.7317 23.9378 91.0684 24.2679C91.093 24.292 91.1227 24.3102 91.1553 24.321C91.179 24.3311 91.2047 24.3356 91.2303 24.3342C91.256 24.3327 91.281 24.3254 91.3034 24.3127C91.3186 24.3017 91.331 24.2874 91.3397 24.2709C91.3148 19.5658 91.2981 16.527 91.2939 16.4787C91.2939 16.453 91.2904 16.4273 91.2904 16.401C91.2904 16.3604 91.2951 16.3569 91.2904 16.3461C91.2743 16.3043 91.1987 16.2864 91.1398 16.2978C91.1097 16.3038 91.0818 16.3178 91.0589 16.3384C89.7208 17.4775 89.2026 17.9199 89.0069 18.0894L88.6035 18.4363L88.2596 18.7306L88.068 18.8936C87.8384 18.6249 87.6091 18.3561 87.3802 18.087C87.4719 18.0094 87.6022 17.8912 87.7699 17.7491C88.1567 17.4201 88.3167 17.281 88.9599 16.7306C89.5334 16.2381 89.8845 15.9378 89.9951 15.8428L90.4271 15.4739C90.4694 15.4421 90.5137 15.4132 90.5597 15.3873C90.7017 15.3091 90.8575 15.2596 91.0185 15.2416C91.1294 15.2298 91.2413 15.232 91.3516 15.2482C91.5368 15.272 91.7138 15.3388 91.8687 15.4434C91.899 15.4661 91.9347 15.496 91.9347 15.496C91.9942 15.5437 92.0412 15.5891 92.0632 15.6112C92.1494 15.7001 92.219 15.8038 92.2685 15.9175C92.3167 16.0313 92.3459 16.1523 92.3548 16.2757C92.3624 16.348 92.3644 16.4209 92.3607 16.4936C92.3667 17.0751 92.3696 17.5461 92.3708 17.8667C92.3708 18.1252 92.3708 18.2816 92.375 18.9055C92.375 19.4237 92.3797 19.8219 92.3809 20.0512C92.3809 20.33 92.3851 20.6166 92.3887 21.2631C92.3887 21.3067 92.394 22.081 92.397 22.5688C92.397 22.9599 92.4035 23.5348 92.4089 24.2464C92.4107 24.2916 92.4095 24.3369 92.4053 24.3819C92.3813 24.5914 92.3007 24.7902 92.1721 24.9569C92.1376 24.9994 92.1 25.0393 92.0597 25.0763C91.9202 25.2011 91.7556 25.2946 91.5771 25.3503C91.3509 25.419 91.1101 25.4231 90.8816 25.3622C90.6899 25.3072 90.5135 25.2083 90.3664 25.0733C89.0039 23.8721 86.8632 21.8172 86.8632 21.8172C86.4467 21.4178 86.0142 21.0261 86.0142 21.0261C85.7399 20.7778 85.5097 20.5772 85.355 20.444V23.8028L90.8316 28.6984C90.8957 28.7592 90.9537 28.8262 91.0048 28.8984C91.057 28.9728 91.1007 29.0529 91.1351 29.1372C91.2007 29.2968 91.2247 29.4707 91.2047 29.6422C91.179 29.8281 91.1047 30.0038 90.9893 30.1515C90.9235 30.2428 90.8459 30.325 90.7585 30.3957C90.1722 30.9378 89.5826 31.4808 88.9896 32.0249C88.6664 32.3202 88.3435 32.6148 88.021 32.9085C88.1359 33.0004 88.2947 33.1199 88.4922 33.2482C88.84 33.4689 89.2073 33.6572 89.5894 33.8106C90.0649 34.0069 90.5599 34.152 91.0661 34.2434C91.4115 34.3006 91.7607 34.332 92.1108 34.3372H93.1425L93.1407 1.11328ZM92.3672 3.47268C92.3672 3.61298 92.3672 3.65716 92.3672 3.95627C92.3672 4.30791 92.3672 4.27268 92.3672 4.51388C92.3672 4.6703 92.3672 4.72821 92.3672 5.00283V5.37895C92.3672 5.40642 92.3672 5.43865 92.3601 5.47985C92.3561 5.51719 92.3499 5.55426 92.3417 5.59089C92.3245 5.66682 92.2988 5.74054 92.2649 5.8106C92.243 5.85696 92.2177 5.90165 92.1894 5.94433C92.1323 6.03154 92.0632 6.11014 91.9841 6.17776C91.9435 6.21172 91.9008 6.24303 91.8562 6.27149C91.8235 6.29298 91.7967 6.30791 91.7836 6.31507C91.7705 6.32224 91.7241 6.34791 91.6646 6.37477C91.5956 6.40355 91.5244 6.42652 91.4516 6.44343C91.3512 6.46558 91.2485 6.4756 91.1458 6.47328C90.9571 6.4749 90.7709 6.43043 90.6032 6.34373C90.5161 6.29653 90.4361 6.23746 90.3652 6.16821C90.2617 6.08462 90.1046 5.95746 89.9154 5.79806C89.7054 5.61895 89.5537 5.48821 89.493 5.43507C89.136 5.12403 88.3494 4.46791 88.3494 4.46791C88.0883 4.25 87.7247 3.94254 87.2607 3.53895C87.3059 3.47925 87.3422 3.43746 87.3654 3.41C87.5772 3.15209 87.6855 3.04104 87.8955 2.78074L87.9407 2.72462L91.0684 5.37298C91.0855 5.38858 91.1059 5.4002 91.1279 5.40701C91.1594 5.41481 91.1924 5.41357 91.2231 5.40343C91.2502 5.39919 91.2749 5.38544 91.2927 5.36462C91.3018 5.34999 91.3062 5.33289 91.3052 5.31567C91.3052 5.26134 91.3052 4.36045 91.3052 3.1288H92.3667V3.13358C92.3667 3.20701 92.3667 3.27686 92.3667 3.27686C92.3708 3.37656 92.3702 3.4494 92.3702 3.47268H92.3672Z" fill="#43B766"/>
<path d="M89.5375 30.0687L89.7053 29.9147L89.9778 29.6621L90.0373 29.6054L90.0611 29.5839C90.0688 29.5767 90.1135 29.5379 90.1206 29.5242C90.1228 29.5209 90.1252 29.5177 90.1277 29.5147C90.1294 29.5129 90.1308 29.5109 90.1319 29.5087C90.1319 29.5087 90.1319 29.5033 90.123 29.4985C90.0468 29.4341 89.9296 29.3338 89.7874 29.2102C89.1062 28.6179 88.6201 28.1529 88.4987 28.0376C88.0924 27.652 87.2439 26.8955 85.349 25.2197C85.349 25.4347 85.349 25.6323 85.349 25.8478V26.5893C85.349 26.8741 85.349 26.9941 85.349 27.2245C85.349 27.3188 85.349 27.5284 85.349 27.5988C85.3567 27.9795 85.3953 28.3588 85.4644 28.7332C85.6765 29.8703 86.1724 30.935 86.906 31.8275C87.025 31.9702 87.1309 32.0902 87.2201 32.1857C88.3714 31.1326 89.2097 30.3648 89.3406 30.2448L89.5375 30.0687Z" fill="#43B766"/>
<path d="M99.3758 9.7207H98.9831C98.7826 9.7207 98.7868 9.7207 98.7755 9.7207C98.5762 9.7063 98.3832 9.64494 98.212 9.54159C98.0991 9.47304 97.9985 9.38585 97.9145 9.28368C97.8138 9.16126 97.74 9.01884 97.698 8.86577C97.6595 8.71639 97.6532 8.56048 97.6795 8.40846C97.7043 8.26469 97.7581 8.12754 97.8378 8.00548C97.87 7.95713 97.9062 7.91159 97.9461 7.86936C98.1841 7.6204 100.147 5.80488 100.277 5.68846C99.9818 5.0196 99.593 4.39641 99.1223 3.83771C99.039 3.73861 98.9658 3.65861 98.9123 3.59891C98.2519 4.18478 97.582 4.76985 96.9025 5.35413C96.5892 5.62319 96.2762 5.89045 95.9637 6.15592C95.9181 6.19773 95.8691 6.23567 95.8173 6.26936C95.6893 6.35043 95.5465 6.40503 95.3972 6.42995C95.255 6.46057 95.1085 6.46502 94.9647 6.44309C94.7465 6.40356 94.5418 6.30929 94.3697 6.16906C94.3273 6.13907 94.2875 6.10552 94.2507 6.06876C94.1391 5.94949 94.0575 5.80518 94.0128 5.64786C93.9932 5.58929 93.9777 5.52945 93.9663 5.46876C93.9632 5.24309 93.961 5.01582 93.9598 4.78697C93.9562 4.21861 93.9584 3.65742 93.9663 3.10339H95.0248V5.30757C95.0221 5.31693 95.0221 5.32686 95.0248 5.33622C95.0426 5.38458 95.1343 5.39592 95.1884 5.38458C95.2095 5.38105 95.2296 5.37356 95.2479 5.36249C95.2601 5.35542 95.2711 5.34656 95.2806 5.33622C95.308 5.30816 96.4111 4.36428 98.1478 2.87771C98.0657 2.80965 97.9508 2.71712 97.8092 2.61204C96.6895 1.7828 95.3652 1.27658 93.9794 1.14816L93.7938 1.13324C93.7522 1.13324 93.6427 1.12309 93.4963 1.11891C93.391 1.11533 93.2851 1.11354 93.1393 1.11533V11.2789H100.927V9.70697C100.658 9.71115 100.415 9.71413 100.199 9.71592C100.078 9.71712 99.7125 9.7207 99.3758 9.7207Z" fill="#02B4DF"/>
<path d="M98.7405 8.58996C98.7362 8.598 98.7347 8.60725 98.7363 8.61623C98.7405 8.63235 98.7589 8.6413 98.7708 8.64667C98.8003 8.65846 98.8323 8.66217 98.8636 8.65742L100.93 8.64369C100.925 8.36488 100.904 8.11593 100.879 7.90339C100.849 7.6419 100.81 7.42578 100.778 7.26936C100.741 7.08548 100.701 6.92429 100.665 6.79175C99.9221 7.47712 98.7577 8.55712 98.7405 8.58996Z" fill="#02B4DF"/>
<path d="M98.1143 27.7355L97.1838 28.5814C96.7596 28.9677 96.3919 29.302 96.0938 29.5719C96.2556 29.7271 96.496 29.9558 96.7887 30.2322L97.2206 30.6375C97.9941 31.3587 98.5659 31.8752 98.8021 32.0901C99.3167 32.557 100.021 33.2053 100.929 34.0799V25.1611L99.5285 26.4441C99.0127 26.9164 98.6039 27.2895 98.1143 27.7355Z" fill="#502390"/>
<path d="M99.576 12.9184C99.5076 12.9184 99.4392 12.9184 99.3702 12.9184C99.1786 12.9081 98.9866 12.9107 98.7954 12.9262H98.7883C98.7663 12.9304 98.7288 12.9405 98.7258 12.9578C98.7228 12.9751 98.733 12.9775 98.7371 12.9841C98.7438 12.993 98.752 13.0005 98.7615 13.0062L98.915 13.1495C99.3823 13.608 99.8723 14.0681 100.385 14.5298C100.57 14.6963 100.742 14.8408 100.929 15.0014V12.9119C100.924 12.9149 99.7813 12.9214 99.576 12.9184Z" fill="#502390"/>
<path d="M100.929 11.8512V11.2787H93.1407V34.3336H99.5829C98.8256 33.6172 98.0634 32.8894 97.2971 32.1748C97.0377 31.936 96.7779 31.6952 96.5177 31.4524C96.4969 31.4333 96.3392 31.2876 96.1226 31.0876C95.8948 30.8763 95.7062 30.7014 95.5764 30.5802C95.5271 30.5294 95.4848 30.4906 95.4575 30.4644C95.398 30.4118 95.3771 30.3969 95.3385 30.3557C95.3016 30.3187 95.2678 30.2788 95.2373 30.2363C95.168 30.1457 95.1128 30.0451 95.0737 29.9378C95.015 29.7736 94.998 29.5974 95.0243 29.425C95.0565 29.2255 95.1416 29.0385 95.2706 28.8835C95.3047 28.843 95.3415 28.8049 95.3807 28.7694C95.9227 28.2853 96.501 27.81 97.0073 27.2996C97.0978 27.2088 97.1745 27.1324 97.2453 27.065C97.6856 26.6309 97.8034 26.5629 98.9808 25.4853C99.7466 24.7844 100.468 24.1121 100.674 23.9223L100.934 23.6781V20.5163L97.337 23.8596L96.6944 24.4566C96.4772 24.6578 96.3505 24.7617 96.1857 24.9294C96.1702 24.9456 96.106 25.0106 96.0143 25.09C95.9363 25.1613 95.8514 25.2247 95.7609 25.2793C95.573 25.39 95.3581 25.446 95.1403 25.4411C95.107 25.4411 95.0743 25.4411 95.041 25.4357C94.9042 25.4248 94.77 25.3928 94.6429 25.3408C94.609 25.3258 94.5716 25.3061 94.5716 25.3061C94.5008 25.2708 94.4333 25.2292 94.3699 25.182C94.2811 25.1146 94.2031 25.0341 94.1384 24.9432C94.0272 24.7894 93.9588 24.6087 93.9403 24.4196C93.9346 24.3552 93.9346 24.2905 93.9403 24.2261C93.9748 23.7927 93.9915 18.5867 93.9754 17.5993C93.9694 17.2082 94.0016 16.8172 93.9819 16.4267C93.9726 16.2496 94.0026 16.0726 94.07 15.9085C94.1212 15.7887 94.1927 15.6786 94.2812 15.5832C94.4201 15.4384 94.5916 15.3293 94.7813 15.265C94.971 15.2007 95.1733 15.1831 95.3712 15.2136C95.4149 15.22 95.4582 15.2288 95.5009 15.2399C95.7317 15.2996 95.8894 15.419 96.0465 15.5384C96.0851 15.5676 96.1524 15.6333 96.2886 15.7497C96.3761 15.825 96.4415 15.8787 96.4671 15.9008C96.6182 16.0267 96.7646 16.1533 96.905 16.2751L96.9889 16.3479C97.2429 16.567 97.9771 17.1969 98.9957 18.0715C98.8862 18.2017 98.7758 18.332 98.6643 18.4626C98.5429 18.6051 98.4218 18.7467 98.3008 18.8876V18.8906L96.9098 17.6912L95.2974 16.3073C95.2684 16.2883 95.235 16.277 95.2004 16.2745C95.1665 16.2733 95.1328 16.2811 95.1029 16.2972C95.0901 16.3042 95.0783 16.3128 95.0678 16.3229C95.0717 18.8912 95.057 21.4681 95.0237 24.0536C95.0237 24.1103 95.0207 24.2566 95.0202 24.3127C95.0345 24.3294 95.0524 24.3427 95.0725 24.3515C95.0915 24.3588 95.1117 24.3627 95.132 24.3629H95.1528C95.1817 24.3629 95.2103 24.3568 95.2367 24.345C95.2695 24.3297 95.2973 24.3055 95.317 24.2751C96.1339 23.5306 96.7914 22.9235 97.2328 22.5139L97.2923 22.4608C98.0842 21.7223 98.1693 21.6351 99.0451 20.8196C99.7388 20.173 99.9548 19.976 100.652 19.327C100.77 19.216 100.865 19.1264 100.949 19.0494V16.5324L99.3878 15.0685L97.9325 13.7044C97.883 13.6414 97.8385 13.5748 97.7992 13.505C97.7374 13.4051 97.6922 13.2958 97.6654 13.1814C97.6398 13.0493 97.6434 12.9131 97.6761 12.7826C97.7141 12.6035 97.7927 12.4356 97.9057 12.2918C98.0824 12.0771 98.327 11.9296 98.5989 11.8739C98.6375 11.8656 98.6685 11.8608 98.6881 11.8578L100.949 11.8494L100.929 11.8512Z" fill="#502390"/>
<path d="M100.928 34.0805V25.1623C101.51 24.625 102.178 23.9987 102.921 23.3115V23.3945C102.872 26.9002 102.888 28.4691 102.921 29.1856V30.4912C102.921 30.5282 102.917 30.5658 102.916 30.6029C102.897 31.0382 102.847 31.4717 102.768 31.9002C102.576 32.9203 102.202 33.8973 101.664 34.7844L100.928 34.0805Z" fill="#9C50BC"/>
<path d="M100.928 11.2787V19.0506C101.157 18.8118 102.603 17.4984 102.921 17.21V11.2787H100.928Z" fill="#9C50BC"/>
<path d="M100.986 35.6604C100.555 36.1935 100.063 36.6744 99.5209 37.0932C98.9902 37.507 98.4129 37.8569 97.8009 38.1356C97.3677 38.3309 96.9187 38.4887 96.4587 38.6073C96.063 38.7107 95.6603 38.7852 95.2539 38.8299C94.6767 38.895 94.1966 38.8896 93.6338 38.8837C93.4005 38.8837 93.2685 38.8753 93.1393 38.8693V34.332H99.581L100.986 35.6604Z" fill="#9C50BC"/>
<path d="M100.928 20.516V23.6766C101.322 23.3094 101.698 22.9602 102.219 22.4891C102.516 22.2211 102.76 22.0032 102.921 21.8599V18.642C102.178 19.3357 101.516 19.9673 100.928 20.516Z" fill="#9C50BC"/>
</svg>
