<svg width="134" height="100" viewBox="0 0 134 100" fill="none" xmlns="http://www.w3.org/2000/svg">
<path d="M66.1204 48.3116C89.2602 48.3116 108.019 46.4155 108.019 44.0765C108.019 41.7375 89.2602 39.8414 66.1204 39.8414C42.9807 39.8414 24.2222 41.7375 24.2222 44.0765C24.2222 46.4155 42.9807 48.3116 66.1204 48.3116Z" stroke="#231F20" stroke-width="0.75" stroke-miterlimit="10"/>
<path d="M66.1204 52.5482C89.2601 52.5482 108.019 50.652 108.019 48.3131C108.019 45.9741 89.2601 44.0779 66.1204 44.0779C42.9806 44.0779 24.2222 45.9741 24.2222 48.3131C24.2222 50.652 42.9806 52.5482 66.1204 52.5482Z" stroke="#231F20" stroke-width="0.75" stroke-miterlimit="10"/>
<path d="M66.1204 56.7819C89.2601 56.7819 108.019 54.8857 108.019 52.5468C108.019 50.2078 89.2601 48.3116 66.1204 48.3116C42.9806 48.3116 24.2222 50.2078 24.2222 52.5468C24.2222 54.8857 42.9806 56.7819 66.1204 56.7819Z" stroke="#231F20" stroke-width="0.75" stroke-miterlimit="10"/>
<path d="M66.1204 61.017C89.2601 61.017 108.019 59.1208 108.019 56.7819C108.019 54.4429 89.2601 52.5468 66.1204 52.5468C42.9806 52.5468 24.2222 54.4429 24.2222 56.7819C24.2222 59.1208 42.9806 61.017 66.1204 61.017Z" stroke="#231F20" stroke-width="0.75" stroke-miterlimit="10"/>
<path d="M66.1204 65.252C89.2601 65.252 108.019 63.3559 108.019 61.0169C108.019 58.6779 89.2601 56.7818 66.1204 56.7818C42.9806 56.7818 24.2222 58.6779 24.2222 61.0169C24.2222 63.3559 42.9806 65.252 66.1204 65.252Z" stroke="#231F20" stroke-width="0.75" stroke-miterlimit="10"/>
<path d="M66.1204 69.4871C89.2601 69.4871 108.019 67.591 108.019 65.252C108.019 62.913 89.2601 61.0169 66.1204 61.0169C42.9806 61.0169 24.2222 62.913 24.2222 65.252C24.2222 67.591 42.9806 69.4871 66.1204 69.4871Z" stroke="#231F20" stroke-width="0.75" stroke-miterlimit="10"/>
<path d="M66.1204 73.7222C89.2601 73.7222 108.019 71.8261 108.019 69.4871C108.019 67.1481 89.2601 65.252 66.1204 65.252C42.9806 65.252 24.2222 67.1481 24.2222 69.4871C24.2222 71.8261 42.9806 73.7222 66.1204 73.7222Z" stroke="#231F20" stroke-width="0.75" stroke-miterlimit="10"/>
<path d="M66.1204 77.9588C89.2601 77.9588 108.019 76.0626 108.019 73.7236C108.019 71.3847 89.2601 69.4885 66.1204 69.4885C42.9806 69.4885 24.2222 71.3847 24.2222 73.7236C24.2222 76.0626 42.9806 77.9588 66.1204 77.9588Z" stroke="#231F20" stroke-width="0.75" stroke-miterlimit="10"/>
<path d="M90.2128 26.3824H110.454" stroke="#231F20" stroke-width="0.75" stroke-miterlimit="10"/>
<path d="M100.334 16.2618V36.5032" stroke="#231F20" stroke-width="0.75" stroke-miterlimit="10"/>
<path d="M100.334 36.5041C100.334 36.5041 103.707 32.0308 103.707 26.3837C103.707 20.7366 100.334 16.2632 100.334 16.2632" stroke="#231F20" stroke-width="0.75" stroke-miterlimit="10"/>
<path d="M100.334 36.5027C105.923 36.5027 110.454 31.9716 110.454 26.3822C110.454 20.7929 105.923 16.2618 100.334 16.2618C94.7445 16.2618 90.2134 20.7929 90.2134 26.3822C90.2134 31.9716 94.7445 36.5027 100.334 36.5027Z" stroke="#231F20" stroke-width="0.75" stroke-miterlimit="10"/>
<path d="M100.334 36.5041C100.334 36.5041 107.081 34.2464 107.081 26.3837C107.081 18.521 100.334 16.2632 100.334 16.2632" stroke="#231F20" stroke-width="0.75" stroke-miterlimit="10"/>
<path d="M100.334 36.5041C100.334 36.5041 96.9603 32.0308 96.9603 26.3837C96.9603 20.7361 100.334 16.2632 100.334 16.2632" stroke="#231F20" stroke-width="0.75" stroke-miterlimit="10"/>
<path d="M100.334 36.5041C100.334 36.5041 93.5865 34.2464 93.5865 26.3837C93.5865 18.5206 100.334 16.2632 100.334 16.2632" stroke="#231F20" stroke-width="0.75" stroke-miterlimit="10"/>
<path d="M91.2822 30.9149C92.3631 30.4509 95.2578 29.4642 100.333 29.4642C105.409 29.4642 108.304 30.4509 109.385 30.9149" stroke="#231F20" stroke-width="0.75" stroke-miterlimit="10"/>
<path d="M93.6728 34.0022C94.7243 33.5067 96.7986 32.8378 100.333 32.8378C103.868 32.8378 105.911 33.4969 106.97 33.9907" stroke="#231F20" stroke-width="0.75" stroke-miterlimit="10"/>
<path d="M91.2822 21.8499C92.3631 22.3139 95.2578 23.3005 100.333 23.3005C105.409 23.3005 108.304 22.3139 109.385 21.8499" stroke="#231F20" stroke-width="0.75" stroke-miterlimit="10"/>
<path d="M93.6728 18.762C94.7243 19.2575 96.7986 19.9264 100.333 19.9264C103.868 19.9264 105.911 19.2673 106.97 18.7735" stroke="#231F20" stroke-width="0.75" stroke-miterlimit="10"/>
<path d="M32.8245 30.8214H99.4165V78.2267C99.4165 78.9192 98.8542 79.4814 98.1618 79.4814H34.0791C33.3867 79.4814 32.8245 78.9192 32.8245 78.2267V30.8214V30.8214Z" fill="#F2F7F4" stroke="#231F20" stroke-width="0.75" stroke-miterlimit="10"/>
<path d="M34.0792 24.0743H98.1619C98.8543 24.0743 99.4165 24.6365 99.4165 25.3289V30.8201H32.8245V25.3289C32.8245 24.6365 33.3867 24.0743 34.0792 24.0743V24.0743Z" fill="#EEB02E" stroke="#231F20" stroke-width="0.75" stroke-miterlimit="10"/>
<path d="M36.8796 28.514C37.4682 28.514 37.9453 28.0368 37.9453 27.4482C37.9453 26.8596 37.4682 26.3824 36.8796 26.3824C36.2909 26.3824 35.8138 26.8596 35.8138 27.4482C35.8138 28.0368 36.2909 28.514 36.8796 28.514Z" fill="white"/>
<path d="M40.5627 28.514C41.1513 28.514 41.6285 28.0368 41.6285 27.4482C41.6285 26.8596 41.1513 26.3824 40.5627 26.3824C39.9741 26.3824 39.4969 26.8596 39.4969 27.4482C39.4969 28.0368 39.9741 28.514 40.5627 28.514Z" fill="white"/>
<path d="M44.2453 28.514C44.834 28.514 45.3111 28.0368 45.3111 27.4482C45.3111 26.8596 44.834 26.3824 44.2453 26.3824C43.6567 26.3824 43.1796 26.8596 43.1796 27.4482C43.1796 28.0368 43.6567 28.514 44.2453 28.514Z" fill="white"/>
<path d="M87.3041 60.8335L86.1299 65.5242L82.7677 62.0491L84.0966 66.6984L79.4473 65.3695L82.9224 68.7317L78.2317 69.9059L82.9224 71.0797L79.4473 74.4419L84.0966 73.1135L82.7677 77.7628L86.1299 74.2873L87.3041 78.9784L88.4779 74.2873L91.8401 77.7628L90.5117 73.1135L95.161 74.4419L91.6859 71.0797L96.3766 69.9059L91.6859 68.7317L95.161 65.3695L90.5117 66.6984L91.8401 62.0491L88.4779 65.5242L87.3041 60.8335Z" stroke="#45766D" stroke-width="0.75" stroke-miterlimit="10"/>
<path d="M85.9109 67.9302H88.6954C89.0177 67.9302 89.2789 68.1914 89.2789 68.5137V71.2982C89.2789 71.6205 89.0177 71.8817 88.6954 71.8817H85.9109C85.5886 71.8817 85.3274 71.6205 85.3274 71.2982V68.5137C85.3274 68.1914 85.5886 67.9302 85.9109 67.9302Z" fill="#EEB02E"/>
<path d="M86.0083 53.6055H88.7927C89.115 53.6055 89.3763 53.8667 89.3763 54.189V56.9735C89.3763 57.2958 89.115 57.557 88.7927 57.557H86.0083C85.686 57.557 85.4247 57.2958 85.4247 56.9735V54.189C85.4247 53.8667 85.686 53.6055 86.0083 53.6055Z" fill="#45766D"/>
<path d="M103.305 73.9836L95.6964 71.9449L88.0875 69.9062L90.1262 77.5147L92.1649 85.1231L95.8969 80.0516L99.6511 83.8058L101.988 81.4698L98.2329 77.7151L103.305 73.9836Z" fill="#45766D"/>
<path d="M82.7921 41.2581H54.5317" stroke="#231F20" stroke-width="0.75" stroke-miterlimit="10"/>
<path d="M58.5308 44.0777C58.5308 44.0777 57.7308 41.2572 54.5317 41.2572C57.7313 41.2572 58.5308 38.4368 58.5308 38.4368" stroke="#231F20" stroke-width="0.75" stroke-miterlimit="10"/>
<path d="M82.7921 55.5807H54.5317" stroke="#231F20" stroke-width="0.75" stroke-miterlimit="10"/>
<path d="M58.5308 58.4003C58.5308 58.4003 57.7308 55.5798 54.5317 55.5798C57.7313 55.5798 58.5308 52.7594 58.5308 52.7594" stroke="#231F20" stroke-width="0.75" stroke-miterlimit="10"/>
<path d="M74.7712 69.9072H54.4352" stroke="#231F20" stroke-width="0.75" stroke-miterlimit="10"/>
<path d="M58.4343 72.7267C58.4343 72.7267 57.6343 69.9063 54.4352 69.9063C57.6348 69.9063 58.4343 67.0858 58.4343 67.0858" stroke="#231F20" stroke-width="0.75" stroke-miterlimit="10"/>
<path d="M86.0083 39.2797H88.7927C89.115 39.2797 89.3763 39.5409 89.3763 39.8632V42.6477C89.3763 42.97 89.115 43.2312 88.7927 43.2312H86.0083C85.686 43.2312 85.4247 42.97 85.4247 42.6477V39.8632C85.4247 39.5409 85.686 39.2797 86.0083 39.2797Z" fill="#45766D"/>
<path d="M47.3831 45.772C44.8882 45.772 42.8657 43.7495 42.8657 41.2546C42.8657 38.7598 44.8882 36.7373 47.3831 36.7373C49.8779 36.7373 51.9004 38.7598 51.9004 41.2546C51.9004 43.7495 49.8779 45.772 47.3831 45.772Z" stroke="#231F20" stroke-width="0.75" stroke-miterlimit="10"/>
<path d="M44.3652 42.3058C44.8008 43.5534 45.9892 44.4507 47.383 44.4507C48.7768 44.4507 49.9656 43.5534 50.4008 42.3058" stroke="#231F20" stroke-width="0.75" stroke-miterlimit="10"/>
<path d="M44.6611 42.2493C44.6611 42.2493 44.4096 42.3839 44.1171 42.3604" stroke="#231F20" stroke-width="0.75" stroke-miterlimit="10"/>
<path d="M50.1288 42.2493C50.1288 42.2493 50.3803 42.3839 50.6728 42.3604" stroke="#231F20" stroke-width="0.75" stroke-miterlimit="10"/>
<path d="M46.2545 41.5164C45.8544 41.5164 45.5301 40.8327 45.5301 39.9893C45.5301 39.1459 45.8544 38.4622 46.2545 38.4622C46.6546 38.4622 46.9789 39.1459 46.9789 39.9893C46.9789 40.8327 46.6546 41.5164 46.2545 41.5164Z" fill="#231F20"/>
<path d="M48.5113 41.5165C48.1112 41.5165 47.7869 40.8328 47.7869 39.9894C47.7869 39.146 48.1112 38.4623 48.5113 38.4623C48.9114 38.4623 49.2358 39.146 49.2358 39.9894C49.2358 40.8328 48.9114 41.5165 48.5113 41.5165Z" fill="#231F20"/>
<path d="M47.3831 60.0982C44.8882 60.0982 42.8657 58.0757 42.8657 55.5809C42.8657 53.086 44.8882 51.0635 47.3831 51.0635C49.8779 51.0635 51.9004 53.086 51.9004 55.5809C51.9004 58.0757 49.8779 60.0982 47.3831 60.0982Z" stroke="#231F20" stroke-width="0.75" stroke-miterlimit="10"/>
<path d="M44.3652 56.6321C44.8008 57.8797 45.9892 58.777 47.383 58.777C48.7768 58.777 49.9656 57.8797 50.4008 56.6321" stroke="#231F20" stroke-width="0.75" stroke-miterlimit="10"/>
<path d="M44.6611 56.5756C44.6611 56.5756 44.4096 56.7102 44.1171 56.6867" stroke="#231F20" stroke-width="0.75" stroke-miterlimit="10"/>
<path d="M50.1288 56.5756C50.1288 56.5756 50.3803 56.7102 50.6728 56.6867" stroke="#231F20" stroke-width="0.75" stroke-miterlimit="10"/>
<path d="M46.2545 55.8437C45.8544 55.8437 45.5301 55.16 45.5301 54.3166C45.5301 53.4732 45.8544 52.7895 46.2545 52.7895C46.6546 52.7895 46.9789 53.4732 46.9789 54.3166C46.9789 55.16 46.6546 55.8437 46.2545 55.8437Z" fill="#231F20"/>
<path d="M48.5113 55.8438C48.1112 55.8438 47.7869 55.1601 47.7869 54.3167C47.7869 53.4733 48.1112 52.7896 48.5113 52.7896C48.9114 52.7896 49.2358 53.4733 49.2358 54.3167C49.2358 55.1601 48.9114 55.8438 48.5113 55.8438Z" fill="#231F20"/>
<path d="M47.3868 70.7026V74.42H47.1833V70.7026C47.2166 70.7066 47.2504 70.7093 47.2851 70.7093C47.3197 70.7093 47.3535 70.7071 47.3868 70.7026Z" fill="#231F20"/>
<path d="M47.183 69.1047V65.3874H47.3866V69.1047C47.3533 69.1007 47.3195 69.0981 47.2848 69.0981C47.2502 69.0981 47.2164 69.1003 47.183 69.1047Z" fill="#231F20"/>
<path d="M46.4849 70.0062H42.7675V69.8026H46.4849C46.4809 69.8359 46.4782 69.8697 46.4782 69.9044C46.4782 69.9391 46.4804 69.9728 46.4849 70.0062Z" fill="#231F20"/>
<path d="M48.0849 69.8026H51.8022V70.0062H48.0849C48.0889 69.9728 48.0916 69.9391 48.0916 69.9044C48.0916 69.8697 48.0894 69.8359 48.0849 69.8026Z" fill="#231F20"/>
<path d="M47.7786 69.268L50.4075 66.6391L50.5515 66.7831L47.9226 69.412C47.8808 69.3582 47.8324 69.3098 47.7786 69.268Z" fill="#231F20"/>
<path d="M46.7911 70.542L44.1622 73.1709L44.0182 73.0269L46.6471 70.398C46.6889 70.4518 46.7374 70.5002 46.7911 70.542Z" fill="#231F20"/>
<path d="M46.6476 69.412L44.0187 66.7831L44.1627 66.6391L46.7916 69.268C46.7378 69.3098 46.6894 69.3582 46.6476 69.412Z" fill="#231F20"/>
<path d="M47.9224 70.398L50.5513 73.0269L50.4073 73.1709L47.7784 70.542C47.8322 70.5002 47.8806 70.4518 47.9224 70.398Z" fill="#231F20"/>
<path d="M34.5358 14.8438H34.2523V27.4473H34.5358V14.8438Z" fill="#EEB02E"/>
<path d="M40.6954 21.288V21.0044H28.0919V21.288H40.6954Z" fill="#EEB02E"/>
<path d="M30.0385 16.5883L29.838 16.7888L38.7501 25.7009L38.9506 25.5004L30.0385 16.5883Z" fill="#EEB02E"/>
<path d="M38.9501 16.7897L38.7496 16.5892L29.8376 25.5013L30.0381 25.7018L38.9501 16.7897Z" fill="#EEB02E"/>
<path d="M34.3939 22.2691C35.0152 22.2691 35.5188 21.7654 35.5188 21.1442C35.5188 20.5229 35.0152 20.0193 34.3939 20.0193C33.7727 20.0193 33.269 20.5229 33.269 21.1442C33.269 21.7654 33.7727 22.2691 34.3939 22.2691Z" fill="#EEB02E"/>
</svg>
