<svg width="49" height="22" viewBox="0 0 49 22" fill="none" xmlns="http://www.w3.org/2000/svg">
<path d="M25.3188 12.5835C25.2613 11.4081 24.7686 10.2967 23.9307 9.45443C23.0939 8.6122 21.9857 8.11186 20.8114 8.04673C20.2796 8.01743 19.7586 8.07495 19.2637 8.21062L16.9714 7.88068L14.9863 21.6592L17.3491 22L17.9819 17.6097H20.5401C21.8186 17.6097 23.0201 17.1116 23.9231 16.2085C24.876 15.2545 25.385 13.9337 25.3188 12.5835ZM22.2343 14.5208C21.7817 14.9734 21.1793 15.2231 20.539 15.2231H18.3249L18.9261 11.0488C19.4004 10.6158 20.0256 10.3922 20.679 10.4291C21.8848 10.4964 22.8757 11.4938 22.9354 12.7007C22.968 13.3888 22.7205 14.0357 22.2343 14.5208Z" fill="#EFB011"/>
<path d="M48.9999 8.17373L46.6274 7.91759L46.0467 13.2955C46.0304 13.4464 46.0055 13.5983 45.9588 13.7427C45.7873 14.2723 45.4194 14.713 44.9158 14.9767C44.3221 15.2871 43.6329 15.3056 43.0273 15.0266L42.9328 14.9821C42.9035 14.968 42.8742 14.9539 42.8449 14.9398C41.8106 14.4199 41.2028 13.2705 41.3309 12.0821L41.7531 8.17265L39.3805 7.9165L38.9583 11.8259C38.7239 13.9988 39.8548 16.1076 41.7726 17.0725C41.8247 17.0985 41.8779 17.1246 41.93 17.1485L42.0266 17.193C42.6333 17.4719 43.2791 17.6108 43.9227 17.6108C44.4979 17.6108 45.0721 17.498 45.6169 17.2765L45.5702 17.7139C45.4454 18.3586 45.0428 18.9013 44.4599 19.2063C43.8662 19.5167 43.177 19.5352 42.5682 19.2551L41.4839 18.7559L40.4865 20.9244L41.5707 21.4237C42.1774 21.7026 42.8232 21.8426 43.4668 21.8426C44.1875 21.8426 44.906 21.6689 45.5681 21.3216C46.8216 20.665 47.6823 19.4885 47.9276 18.0938L48.9999 8.17373Z" fill="#EFB011"/>
<path d="M37.0551 8.22039L34.6923 7.88068L34.5729 8.70988C34.1551 8.46025 33.696 8.27248 33.2054 8.15635C32.056 7.8861 30.8285 8.07712 29.7486 8.69794C28.6708 9.31768 27.8861 10.2804 27.5388 11.4091C27.1567 12.653 27.2892 13.9662 27.9111 15.108C28.5232 16.2303 29.5347 17.0464 30.7612 17.4079C31.1606 17.5251 31.5698 17.5826 31.9768 17.5826C32.4348 17.5826 32.8906 17.5066 33.3259 17.3623L33.1967 18.2609L35.5595 18.6007L37.0551 8.22039ZM33.0144 14.8909C32.5455 15.1916 31.9703 15.2741 31.4363 15.1167C30.822 14.9354 30.314 14.5263 30.008 13.9641C29.6954 13.3921 29.6292 12.7333 29.8213 12.1092C30.1729 10.9674 31.4981 10.2055 32.6584 10.479C33.2955 10.6288 33.8305 11.0195 34.1627 11.5676L33.8772 13.5505C33.7969 14.1019 33.4832 14.5903 33.0144 14.8909Z" fill="#EFB011"/>
<path d="M6.76388 6.61625C7.55332 6.61625 8.19328 5.97629 8.19328 5.18685C8.19328 4.39741 7.55332 3.75745 6.76388 3.75745C5.97444 3.75745 5.33447 4.39741 5.33447 5.18685C5.33447 5.97629 5.97444 6.61625 6.76388 6.61625Z" fill="#EFB011"/>
<path d="M11.07 6.61619C11.8595 6.61619 12.4994 5.97623 12.4994 5.18679C12.4994 4.39735 11.8595 3.75739 11.07 3.75739C10.2806 3.75739 9.64062 4.39735 9.64062 5.18679C9.64062 5.97623 10.2806 6.61619 11.07 6.61619Z" fill="#EFB011"/>
<path d="M12.5256 9.92443C12.1881 9.44253 11.767 9.04095 11.2851 8.7338C10.8032 8.42773 10.2605 8.21609 9.67985 8.11298C7.28666 7.69078 4.99766 9.29493 4.57655 11.687C4.54182 11.8802 4.52011 12.0778 4.51251 12.2731C4.44305 13.9522 5.5208 15.4955 7.13145 16.0252L9.48232 16.7979C9.19036 17.2603 8.77793 17.6434 8.27541 17.9061C7.40062 18.3652 6.38256 18.3912 5.48932 17.9799L5.36125 17.9202C4.06969 17.3211 3.16017 16.138 2.90728 14.7423H2.90619L0.15918 15.5661C0.651928 17.7411 2.11823 19.5667 4.15869 20.5131L4.29001 20.5749C5.09751 20.9461 5.95494 21.1306 6.8091 21.1306C7.76638 21.1306 8.72149 20.8984 9.60171 20.4382C11.2688 19.5645 12.4117 18.0016 12.7384 16.1489L12.9869 14.7412H12.9858L13.255 13.2163C13.4601 12.0571 13.2018 10.8893 12.5256 9.92443ZM8.0247 13.3096C7.62203 13.1772 7.35178 12.8006 7.36914 12.3914C7.37132 12.322 7.37891 12.2525 7.39085 12.183C7.52327 11.4331 8.17881 10.9034 8.91577 10.9034C9.00476 10.9034 9.09485 10.911 9.18493 10.9273C9.59302 10.9989 9.94793 11.2247 10.1845 11.5633C10.4211 11.903 10.5134 12.3133 10.4418 12.7203L10.2106 14.027L8.0247 13.3096Z" fill="#43766D"/>
<path d="M26.6351 0.778186L26.8977 0.379862L26.4755 0.0889893L26.2129 0.482971L26.6351 0.778186Z" fill="#41766D"/>
<path d="M26.2312 0.379862L25.809 0.0889893L25.5518 0.482971L25.974 0.778186L26.2312 0.379862Z" fill="#41766D"/>
<path d="M33.5705 1.6888L33.1722 1.99378C33.3133 2.29876 33.449 2.6363 33.3839 2.84795C33.2905 2.89028 33.1212 2.90439 32.9573 2.90439C32.8401 2.90439 32.7229 2.88594 32.6198 2.85772C32.6903 2.69383 32.7554 2.49629 32.8303 2.26186L32.8119 2.24341L32.343 2.3183C32.2725 2.56684 32.2073 2.7926 32.1607 2.85772C32.114 2.89028 32.0337 2.90439 31.9544 2.90439C31.7862 2.90439 31.5789 2.86206 31.4389 2.80996C31.5138 2.66453 31.5746 2.4811 31.6506 2.2662L31.6321 2.24232L31.1307 2.31721C31.0742 2.54731 31.0232 2.74375 30.9711 2.82841C30.8778 2.87942 30.7096 2.9033 30.4122 2.9033C30.1973 2.9033 30.0432 2.86531 29.9259 2.81864C29.9683 2.7253 29.9921 2.61677 29.9921 2.49955C29.9921 2.11968 29.7056 1.71593 29.2888 1.71593C29.0034 1.71593 28.6745 1.91781 28.2523 2.28791L28.2567 0.168226L28.2241 0.144348L27.7976 0.257222V2.70577C27.7314 2.76655 27.6619 2.83275 27.5913 2.9033H27.3992C27.0291 2.9033 26.8924 2.84686 26.8924 2.53754V1.10271L26.8544 1.09294L26.4279 1.27094V1.49126C25.7104 1.72136 25.3306 2.15224 25.3306 2.518C25.3306 2.85555 25.6399 3.07587 26.137 3.07587C26.2683 3.07587 26.3899 3.06176 26.5212 3.01943C26.6569 3.27775 26.9249 3.36674 27.2809 3.36674C27.2842 3.36674 27.2864 3.36566 27.2896 3.36566V3.36674H28.4575C29.0718 3.36674 29.4093 3.33853 29.6492 3.17464C29.8413 3.31031 30.1028 3.36674 30.3047 3.36674C30.3047 3.36674 30.3047 3.36674 30.3058 3.36674C30.7367 3.36674 30.9939 3.30596 31.1773 3.16053C31.3271 3.26364 31.5898 3.36674 31.9045 3.36674C32.0923 3.36674 32.2323 3.32441 32.3408 3.24518C32.496 3.31573 32.6827 3.36674 32.9085 3.36674C33.4522 3.36674 33.8375 3.14208 33.8375 2.59289C33.8375 2.35412 33.7388 2.02525 33.6031 1.69205L33.5705 1.6888ZM26.4246 2.53754V2.60374C26.3454 2.61785 26.2651 2.62654 26.1761 2.62654C25.9926 2.62654 25.7582 2.55599 25.7072 2.40621C25.7636 2.23256 26.0447 2.05456 26.4246 1.94711V2.53754ZM29.5287 2.81864C29.3789 2.88919 29.1629 2.9033 28.4878 2.9033H28.108C28.5768 2.46699 28.9708 2.16201 29.2291 2.16201C29.4451 2.16201 29.5906 2.39644 29.5906 2.57444C29.5895 2.67321 29.5613 2.76221 29.5287 2.81864Z" fill="#41766D"/>
<path d="M34.394 0.258324V3.37653L34.4277 3.39607L34.8542 3.30598L34.8586 0.169325L34.826 0.145447L34.394 0.258324Z" fill="#41766D"/>
<path d="M37.4702 4.11781L37.9065 4.42279L38.1789 4.0147L37.7426 3.71948L37.4702 4.11781Z" fill="#41766D"/>
<path d="M37.9443 1.69318L37.5601 1.99382C37.7153 2.32268 37.8651 2.64611 37.8 2.85667C37.7153 2.89466 37.5276 2.90334 37.3213 2.90334H37.2779V2.90442C37.2747 2.90442 37.2725 2.90334 37.2692 2.90334H36.9219C36.9122 2.30314 36.617 1.79194 36.172 1.79194C35.7682 1.79194 35.4502 2.28903 35.4502 2.72968C35.4502 3.12366 35.727 3.36787 36.3369 3.36787H36.4216C36.2241 3.64463 35.8116 3.79441 35.2299 3.80852L35.2017 3.85085L35.4361 4.19816C36.2197 4.18405 36.6745 3.82263 36.8427 3.36787H37.1661C37.1672 3.36787 37.1683 3.36787 37.1705 3.36787H37.2215C37.6719 3.36787 37.864 3.3212 38.0051 3.18444C38.1549 3.03467 38.2395 2.80891 38.2395 2.58859C38.2395 2.38237 38.1506 2.02529 37.991 1.69318H37.9443ZM36.3543 2.90334C35.9603 2.90334 35.8105 2.82411 35.8105 2.66348C35.8105 2.4247 35.9842 2.23694 36.1524 2.23694C36.3445 2.23694 36.5464 2.54192 36.5507 2.90334H36.3543Z" fill="#41766D"/>
<path d="M43.3926 1.14398C42.9943 1.14398 42.6655 1.64107 42.6655 2.07304C42.6655 2.40624 42.8673 2.62657 43.2852 2.62657C43.4686 2.62657 43.6227 2.60812 43.7584 2.57556C43.7486 2.67432 43.74 2.75898 43.7258 2.80999C43.5858 2.86643 43.3232 2.90442 42.4267 2.90442C42.4256 2.90442 42.4245 2.90442 42.4223 2.90442C42.0425 2.90442 41.6724 2.85232 41.4043 2.73076C41.5921 2.58532 41.7939 2.42144 42.0045 2.23367L42.1217 1.81581L42.1076 1.77348C41.8406 1.60417 41.5117 1.53362 41.1785 1.53362C40.8551 1.53362 40.5404 1.59983 40.2972 1.71705L40.1236 2.16746L40.142 2.20979C40.4047 2.35089 40.6066 2.53865 40.7943 2.73944C40.269 3.13776 39.748 3.59361 39.748 4.26327C39.748 4.94378 40.3298 5.31823 41.2209 5.31823C41.6192 5.31823 41.9383 5.26179 42.1923 5.16845L42.3279 4.7647L42.2899 4.74191C42.0316 4.8168 41.6572 4.8689 41.3565 4.8689C40.6391 4.8689 40.2028 4.63446 40.2028 4.19381C40.2028 3.7575 40.536 3.43841 41.07 3.0021C41.3696 3.22676 41.7635 3.36786 42.3171 3.36786C42.3171 3.36786 42.3171 3.36786 42.3182 3.36786C43.2461 3.36786 43.6075 3.33964 43.8507 3.18443C44.0428 3.04334 44.1415 2.72968 44.1415 2.31182C44.1426 1.69751 43.8561 1.14398 43.3926 1.14398ZM40.5881 2.06327C40.752 2.0166 40.9354 1.97861 41.1319 1.97861C41.2914 1.97861 41.4607 2.00249 41.629 2.05784C41.4879 2.20762 41.3001 2.35306 41.0993 2.50827C40.917 2.32159 40.752 2.16204 40.5881 2.06327ZM43.3785 2.20002C43.1484 2.20002 43.0312 2.14359 43.0312 2.00792C43.0312 1.79628 43.1951 1.59549 43.3688 1.59549C43.5652 1.59549 43.7302 1.87659 43.7627 2.16746C43.6412 2.19026 43.5185 2.20002 43.3785 2.20002Z" fill="#41766D"/>
<path d="M43.7161 0.30064L43.2797 0L43.0073 0.40375L43.4436 0.708732L43.7161 0.30064Z" fill="#41766D"/>
<path d="M47.1806 0.258324V2.46701C47.1806 2.63524 47.1665 2.74811 47.148 2.82843C47.0406 2.89355 46.881 2.90332 46.7356 2.90332V2.9044C46.7323 2.9044 46.7302 2.90332 46.7269 2.90332C46.4545 2.90332 46.3611 2.83711 46.1831 2.45724C46.118 2.31614 45.7892 1.57594 45.6622 1.27964H45.6198L45.278 1.65517C45.4744 2.00248 45.7848 2.61678 45.8738 2.78501L45.8782 2.78936C45.7099 2.8827 45.4039 2.92502 45.1466 2.92502C45.0392 2.92502 44.8037 2.91525 44.6495 2.88269L44.6268 2.90115L44.5605 3.3418C44.7288 3.38413 44.9969 3.39823 45.1 3.39823C45.5363 3.39823 45.8738 3.30381 46.0659 3.13124C46.1973 3.31466 46.3611 3.36568 46.6195 3.36568C46.6227 3.36568 46.6249 3.36459 46.6281 3.36459V3.36568C47.2566 3.36568 47.6462 3.17791 47.6462 2.42793V0.169325L47.6039 0.145447L47.1806 0.258324Z" fill="#41766D"/>
<path d="M48.6662 0.145447L48.2354 0.258324V3.37653L48.2679 3.39607L48.6945 3.30598L48.6999 0.169325L48.6662 0.145447Z" fill="#41766D"/>
</svg>
