<svg width="64" height="64" viewBox="0 0 64 64" fill="none" xmlns="http://www.w3.org/2000/svg">
<path fill-rule="evenodd" clip-rule="evenodd" d="M31.5489 42.5499C32.3639 42.4419 34.5729 42.2899 37.7099 43.1429C37.6931 43.885 37.8271 44.6228 38.1038 45.3116C38.3806 46.0004 38.7943 46.6258 39.3199 47.1499L53.8159 61.6459C54.0819 61.9119 54.5059 62.0999 55.1039 61.9809C55.8999 61.8219 57.5269 60.7629 59.1189 59.1709C60.7109 57.5789 61.7699 55.9519 61.9279 55.1569C62.0479 54.5579 61.8599 54.1339 61.5939 53.8679L47.0979 39.3719C46.5736 38.8465 45.9482 38.4329 45.2594 38.1562C44.5707 37.8794 43.833 37.7453 43.0909 37.7619C42.2379 34.6249 42.3899 32.4169 42.4979 31.6009C44.7379 25.2649 43.3249 17.9209 38.2589 12.8559C31.2349 5.83093 19.8279 5.83093 12.8039 12.8559C5.77891 19.8799 5.77891 31.2869 12.8039 38.3109C17.8689 43.3769 25.2129 44.7899 31.5489 42.5499ZM40.5819 35.4619C39.9067 36.4883 39.1283 37.4429 38.2589 38.3109C37.3909 39.1803 36.4363 39.9587 35.4099 40.6339C36.2239 40.7439 37.1299 40.9179 38.1159 41.1809C38.3925 40.5036 38.8019 39.8886 39.3199 39.3719C39.8364 38.8542 40.4511 38.4448 41.1279 38.1679C40.8891 37.2783 40.7067 36.3745 40.5819 35.4619ZM14.9249 14.9769C20.7789 9.12293 30.2839 9.12293 36.1379 14.9769C41.9919 20.8309 41.9919 30.3359 36.1379 36.1899C30.2839 42.0439 20.7789 42.0439 14.9249 36.1899C9.07091 30.3359 9.07091 20.8309 14.9249 14.9769ZM25.2919 31.9669C25.4534 31.9671 25.6134 31.999 25.7625 32.0609C25.9117 32.1229 26.0472 32.2136 26.1614 32.3279C26.2755 32.4422 26.366 32.5779 26.4277 32.7272C26.4894 32.8764 26.521 33.0364 26.5209 33.1979C26.5208 33.3595 26.4888 33.5194 26.4269 33.6686C26.365 33.8177 26.2742 33.9533 26.1599 34.0674C26.0456 34.1815 25.91 34.272 25.7607 34.3337C25.6114 34.3954 25.4514 34.4271 25.2899 34.4269C24.9637 34.4267 24.6509 34.2968 24.4205 34.066C24.19 33.8351 24.0606 33.5221 24.0609 33.1959C24.0612 32.8697 24.191 32.557 24.4219 32.3265C24.6527 32.096 24.9657 31.9667 25.2919 31.9669ZM23.4129 22.4349C23.3899 21.4819 23.7479 20.7859 24.2999 20.3779C25.1679 19.7379 26.4649 19.7649 27.1689 20.5579C27.4709 20.8989 27.6459 21.3809 27.6509 21.9909C27.6629 23.4539 26.9769 24.3089 26.3049 25.1939C25.4009 26.3869 24.4979 27.6129 24.3859 29.6599C24.3715 29.9249 24.4628 30.1847 24.64 30.3823C24.8171 30.5799 25.0655 30.699 25.3304 30.7134C25.5954 30.7279 25.8552 30.6365 26.0528 30.4594C26.2503 30.2822 26.3695 30.0339 26.3839 29.7689C26.4679 28.2139 27.2119 27.3079 27.8989 26.4019C28.8189 25.1889 29.6679 23.9789 29.6509 21.9749C29.6409 20.7969 29.2479 19.8879 28.6639 19.2299C27.2999 17.6939 24.7949 17.5279 23.1129 18.7679C22.1049 19.5119 21.3719 20.7439 21.4129 22.4819C21.4191 22.7472 21.5305 22.999 21.7224 23.1822C21.9144 23.3653 22.1712 23.4647 22.4364 23.4584C22.7016 23.4522 22.9535 23.3409 23.1366 23.1489C23.3198 22.957 23.4191 22.7001 23.4129 22.4349ZM49.6729 17.9529L57.6729 15.9529C57.8022 15.9229 57.9243 15.8675 58.032 15.7898C58.1397 15.7122 58.2308 15.6139 58.3001 15.5006C58.3694 15.3873 58.4154 15.2614 58.4355 15.1302C58.4556 14.999 58.4494 14.865 58.4172 14.7362C58.385 14.6074 58.3275 14.4863 58.248 14.38C58.1685 14.2737 58.0686 14.1842 57.9542 14.1169C57.8397 14.0496 57.713 14.0057 57.5815 13.9879C57.4499 13.97 57.3161 13.9785 57.1879 14.0129L49.1879 16.0129C48.9346 16.0809 48.7182 16.2456 48.5852 16.4716C48.4522 16.6977 48.4133 16.9669 48.4769 17.2213C48.5405 17.4757 48.7015 17.695 48.9252 17.8318C49.1489 17.9687 49.4174 18.0122 49.6729 17.9529ZM48.0189 11.7919L59.0189 3.79193C59.2335 3.63599 59.3773 3.40119 59.4187 3.1392C59.4602 2.87722 59.3959 2.60949 59.2399 2.39493C59.1627 2.28869 59.0653 2.1987 58.9533 2.1301C58.8413 2.0615 58.7169 2.01563 58.5872 1.9951C58.3252 1.95366 58.0575 2.01799 57.8429 2.17393L46.8429 10.1739C46.6283 10.3299 46.4845 10.5647 46.4431 10.8267C46.4016 11.0887 46.466 11.3564 46.6219 11.5709C46.7779 11.7855 47.0126 11.9293 47.2746 11.9708C47.5366 12.0122 47.8043 11.9479 48.0189 11.7919ZM43.2879 8.49693L46.2879 3.49693C46.4244 3.26951 46.4649 2.9972 46.4006 2.7399C46.3362 2.4826 46.1723 2.26139 45.9449 2.12493C45.7175 1.98848 45.4452 1.94796 45.1879 2.01228C44.9306 2.07661 44.7094 2.24051 44.5729 2.46793L41.5729 7.46793C41.4365 7.69536 41.3959 7.96767 41.4603 8.22497C41.5246 8.48227 41.6885 8.70348 41.9159 8.83993C42.1433 8.97639 42.4156 9.01691 42.6729 8.95258C42.9302 8.88826 43.1514 8.72436 43.2879 8.49693Z" fill="black"/>
</svg>
