<svg width="40" height="41" viewBox="0 0 40 41" fill="none" xmlns="http://www.w3.org/2000/svg">
<path d="M8.74996 20.4999C8.13189 20.4999 7.52771 20.6832 7.0138 21.0266C6.4999 21.3699 6.09936 21.858 5.86283 22.429C5.62631 23 5.56443 23.6284 5.685 24.2346C5.80558 24.8408 6.10321 25.3976 6.54025 25.8346C6.97729 26.2717 7.53411 26.5693 8.1403 26.6899C8.74649 26.8104 9.37483 26.7486 9.94584 26.512C10.5169 26.2755 11.0049 25.875 11.3483 25.3611C11.6917 24.8472 11.875 24.243 11.875 23.6249C11.874 22.7964 11.5444 22.0021 10.9586 21.4163C10.3728 20.8304 9.57846 20.5009 8.74996 20.4999ZM8.74996 25.4999C8.37912 25.4999 8.01661 25.3899 7.70826 25.1839C7.39992 24.9779 7.1596 24.6851 7.01768 24.3424C6.87577 23.9998 6.83864 23.6228 6.91099 23.2591C6.98333 22.8954 7.16191 22.5613 7.42413 22.2991C7.68636 22.0369 8.02045 21.8583 8.38416 21.7859C8.74788 21.7136 9.12488 21.7507 9.46749 21.8926C9.8101 22.0345 10.1029 22.2749 10.309 22.5832C10.515 22.8916 10.625 23.2541 10.625 23.6249C10.6244 24.122 10.4267 24.5986 10.0752 24.9501C9.72367 25.3016 9.24707 25.4994 8.74996 25.4999ZM14.375 27.3749C13.7569 27.3749 13.1527 27.5582 12.6388 27.9016C12.1249 28.2449 11.7244 28.733 11.4878 29.304C11.2513 29.875 11.1894 30.5034 11.31 31.1096C11.4306 31.7158 11.7282 32.2726 12.1653 32.7096C12.6023 33.1467 13.1591 33.4443 13.7653 33.5649C14.3715 33.6854 14.9998 33.6236 15.5708 33.387C16.1419 33.1505 16.6299 32.75 16.9733 32.2361C17.3167 31.7222 17.5 31.118 17.5 30.4999C17.499 29.6714 17.1694 28.8771 16.5836 28.2913C15.9978 27.7054 15.2035 27.3759 14.375 27.3749ZM14.375 32.3749C14.0041 32.3749 13.6416 32.2649 13.3333 32.0589C13.0249 31.8529 12.7846 31.5601 12.6427 31.2174C12.5008 30.8748 12.4636 30.4978 12.536 30.1341C12.6083 29.7704 12.7869 29.4363 13.0491 29.1741C13.3114 28.9119 13.6455 28.7333 14.0092 28.6609C14.3729 28.5886 14.7499 28.6257 15.0925 28.7676C15.4351 28.9095 15.7279 29.1499 15.934 29.4582C16.14 29.7666 16.25 30.1291 16.25 30.4999C16.2494 30.997 16.0517 31.4736 15.7002 31.8251C15.3487 32.1766 14.8721 32.3744 14.375 32.3749ZM10.625 17.9999C11.243 17.9999 11.8472 17.8166 12.3611 17.4733C12.875 17.1299 13.2756 16.6418 13.5121 16.0708C13.7486 15.4998 13.8105 14.8714 13.6899 14.2653C13.5693 13.6591 13.2717 13.1022 12.8347 12.6652C12.3976 12.2282 11.8408 11.9305 11.2346 11.81C10.6284 11.6894 10.0001 11.7513 9.42907 11.9878C8.85805 12.2243 8.37 12.6248 8.02662 13.1388C7.68324 13.6527 7.49996 14.2568 7.49996 14.8749C7.50093 15.7034 7.83048 16.4977 8.41632 17.0835C9.00216 17.6694 9.79646 17.9989 10.625 17.9999ZM10.625 12.9999C10.9958 12.9999 11.3583 13.1099 11.6667 13.3159C11.975 13.5219 12.2153 13.8148 12.3572 14.1574C12.4991 14.5 12.5363 14.877 12.4639 15.2407C12.3916 15.6044 12.213 15.9385 11.9508 16.2007C11.6886 16.463 11.3545 16.6415 10.9908 16.7139C10.627 16.7862 10.25 16.7491 9.90743 16.6072C9.56482 16.4653 9.27198 16.2249 9.06595 15.9166C8.85993 15.6083 8.74996 15.2457 8.74996 14.8749C8.7505 14.3778 8.94822 13.9012 9.29973 13.5497C9.65125 13.1982 10.1278 13.0005 10.625 12.9999ZM18.75 13.6249C19.368 13.6249 19.9722 13.4416 20.4861 13.0983C21 12.7549 21.4006 12.2668 21.6371 11.6958C21.8736 11.1248 21.9355 10.4964 21.8149 9.89025C21.6943 9.28406 21.3967 8.72724 20.9597 8.2902C20.5226 7.85316 19.9658 7.55553 19.3596 7.43495C18.7534 7.31438 18.1251 7.37626 17.5541 7.61278C16.9831 7.84931 16.495 8.24985 16.1516 8.76375C15.8082 9.27766 15.625 9.88184 15.625 10.4999C15.6259 11.3284 15.9555 12.1227 16.5413 12.7085C17.1272 13.2944 17.9215 13.6239 18.75 13.6249ZM18.75 8.62491C19.1208 8.62491 19.4833 8.73488 19.7917 8.9409C20.1 9.14693 20.3403 9.43977 20.4822 9.78238C20.6241 10.125 20.6613 10.502 20.5889 10.8657C20.5166 11.2294 20.338 11.5635 20.0758 11.8257C19.8136 12.088 19.4795 12.2665 19.1158 12.3389C18.752 12.4112 18.375 12.3741 18.0324 12.2322C17.6898 12.0903 17.397 11.8499 17.191 11.5416C16.9849 11.2333 16.875 10.8707 16.875 10.4999C16.8755 10.0028 17.0732 9.5262 17.4247 9.17468C17.7762 8.82317 18.2528 8.62545 18.75 8.62491ZM38.352 3.39786C36.749 1.79485 31.9688 5.5006 29.036 8.25661C26.9642 6.49989 24.4989 5.26932 21.8496 4.66949C19.2003 4.06965 16.4454 4.11828 13.8189 4.81123C11.1925 5.50419 8.77215 6.82099 6.76362 8.64972C4.7551 10.4785 3.21776 12.7651 2.28226 15.3152C1.34676 17.8654 1.04076 20.6037 1.39025 23.2975C1.73975 25.9912 2.73442 28.5608 4.28972 30.7878C5.84502 33.0147 7.91498 34.8333 10.3237 36.089C12.7324 37.3446 15.4086 38.0001 18.125 37.9999C19.9072 37.9999 21.3067 37.3883 21.9659 36.3214C22.3803 35.6513 22.6898 34.4818 21.809 32.7204C21.4963 32.1504 21.3297 31.5118 21.324 30.8616C21.3184 30.2115 21.4739 29.5701 21.7767 28.9948C22.4316 27.9352 23.7622 27.3749 25.625 27.3749C30.2606 27.3749 35 26.6321 35 21.1249C34.9964 18.3645 34.3158 15.6472 33.0178 13.211C35.7947 10.3547 40.0495 5.09654 38.352 3.39786ZM37.4682 4.28165C37.8595 4.7034 36.3922 8.07559 31.7688 12.6984C30.645 13.8263 29.4537 14.8848 28.2014 15.8681C27.6071 14.9346 26.8153 14.1428 25.8818 13.5484C26.8651 12.2962 27.9236 11.1049 29.0515 9.98111C33.6749 5.3577 37.0477 3.89163 37.4682 4.28165ZM23.8282 16.6798C24.2075 15.9373 24.644 15.2253 25.1337 14.5505C25.974 15.0683 26.6815 15.7758 27.1994 16.6162C26.5245 17.1059 25.8126 17.5424 25.07 17.9217C24.7596 17.4158 24.3341 16.9903 23.8282 16.6798ZM24.375 19.8749C24.375 21.3532 22.835 22.9999 20.625 22.9999C19.2758 23.0583 17.9541 22.6068 16.9226 21.7353C18.2452 21.449 18.8403 20.3315 19.3414 19.3909C20.0073 18.1409 20.4858 17.3749 21.875 17.3749C22.5378 17.3756 23.1733 17.6392 23.642 18.1079C24.1107 18.5766 24.3743 19.2121 24.375 19.8749ZM25.625 26.1249C22.6959 26.1249 21.3372 27.3279 20.7135 28.3374C20.294 29.0927 20.0721 29.9416 20.0681 30.8055C20.0642 31.6694 20.2784 32.5204 20.6909 33.2794C21.1914 34.2798 21.2628 35.0824 20.9027 35.6647C20.4827 36.344 19.4445 36.7499 18.125 36.7499C15.613 36.754 13.137 36.1524 10.9069 34.9961C8.67689 33.8398 6.7585 32.1629 5.3144 30.1074C3.87029 28.052 2.94305 25.6787 2.61126 23.1887C2.27946 20.6987 2.55291 18.1654 3.40842 15.8036C4.26392 13.4417 5.67626 11.321 7.52572 9.62107C9.37518 7.92116 11.6072 6.69222 14.0327 6.03843C16.4581 5.38463 19.0054 5.32525 21.4587 5.86532C23.9119 6.4054 26.1988 7.529 28.1255 9.14088C25.5939 11.6787 23.6059 14.2646 22.6674 16.2109C22.407 16.1542 22.1414 16.1253 21.875 16.1249C19.6643 16.1249 18.8739 17.6099 18.2385 18.8031C17.5555 20.0855 17.1337 20.7416 15.7275 20.5085C15.6138 20.4895 15.4971 20.5024 15.3902 20.5457C15.2834 20.589 15.1906 20.661 15.1221 20.7537C15.0537 20.8464 15.0122 20.9563 15.0022 21.0711C14.9923 21.186 15.0143 21.3013 15.0659 21.4045C15.1239 21.5204 16.5356 24.2499 20.625 24.2499C23.6157 24.2499 25.625 21.9879 25.625 19.8749C25.6245 19.6085 25.5957 19.3428 25.5389 19.0825C27.9531 17.7608 30.1599 16.0916 32.0888 14.1284C33.179 16.2997 33.7478 18.6953 33.75 21.1249C33.75 24.7229 31.4721 26.1249 25.625 26.1249Z" fill="#5B5B5B"/>
</svg>
