<svg width="40" height="41" viewBox="0 0 40 41" fill="none" xmlns="http://www.w3.org/2000/svg">
<g clip-path="url(#clip0_20744_9224)">
<path d="M10.8327 13.8333C10.8327 16.1333 10.6493 16.8167 11.3493 17.1C12.0493 17.3833 12.0993 17.1 15.341 13.8333H20.8327C21.2747 13.8333 21.6986 13.6577 22.0112 13.3452C22.3238 13.0326 22.4993 12.6087 22.4993 12.1667V10.5H24.716C25.216 11.0583 26.1327 11.975 27.741 13.5917C27.8582 13.7073 28.007 13.7856 28.1687 13.8168C28.3303 13.8479 28.4976 13.8305 28.6493 13.7667C29.3577 13.475 29.166 12.8667 29.166 10.5C29.608 10.5 30.032 10.3244 30.3445 10.0118C30.6571 9.69928 30.8327 9.27536 30.8327 8.83333V2.16667C30.8327 1.72464 30.6571 1.30072 30.3445 0.988155C30.032 0.675595 29.608 0.5 29.166 0.5H19.166C18.724 0.5 18.3001 0.675595 17.9875 0.988155C17.6749 1.30072 17.4993 1.72464 17.4993 2.16667V3.83333H10.8327C10.3907 3.83333 9.96673 4.00893 9.65417 4.32149C9.34161 4.63405 9.16602 5.05797 9.16602 5.5V12.1667C9.16602 12.6087 9.34161 13.0326 9.65417 13.3452C9.96673 13.6577 10.3907 13.8333 10.8327 13.8333ZM19.166 2.16667H29.166V8.83333C27.591 8.83333 27.4993 8.53333 27.4993 10.9917C25.441 8.93333 25.4577 8.83333 24.9993 8.83333H22.4993V5.5C22.4993 5.05797 22.3238 4.63405 22.0112 4.32149C21.6986 4.00893 21.2747 3.83333 20.8327 3.83333H19.166V2.16667ZM10.8327 5.5H20.8327V12.1667C14.6077 12.1667 14.7577 12.0667 14.4077 12.4083L12.4993 14.325V13C12.4993 12.779 12.4116 12.567 12.2553 12.4107C12.099 12.2545 11.887 12.1667 11.666 12.1667H10.8327V5.5Z" fill="#5B5B5B"/>
<path d="M16.6667 8.99983C16.6667 8.77882 16.5789 8.56685 16.4226 8.41057C16.2663 8.25429 16.0543 8.1665 15.8333 8.1665C15.6123 8.1665 15.4004 8.25429 15.2441 8.41057C15.0878 8.56685 15 8.77882 15 8.99983C15 9.22084 15.0878 9.4328 15.2441 9.58908C15.4004 9.74537 15.6123 9.83316 15.8333 9.83316C16.0543 9.83316 16.2663 9.74537 16.4226 9.58908C16.5789 9.4328 16.6667 9.22084 16.6667 8.99983ZM17.5667 9.14983C17.64 9.32836 17.773 9.47589 17.9431 9.56724C18.1131 9.65859 18.3095 9.6881 18.4989 9.65072C18.6882 9.61334 18.8587 9.5114 18.9813 9.36229C19.1038 9.21319 19.1708 9.02617 19.1708 8.83316C19.1708 8.64016 19.1038 8.45314 18.9813 8.30403C18.8587 8.15493 18.6882 8.05298 18.4989 8.01561C18.3095 7.97823 18.1131 8.00773 17.9431 8.09909C17.773 8.19044 17.64 8.33797 17.5667 8.5165C17.4833 8.71938 17.4833 8.94694 17.5667 9.14983ZM14.1667 8.83316C14.1667 8.61215 14.0789 8.40019 13.9226 8.24391C13.7663 8.08763 13.5543 7.99983 13.3333 7.99983C13.1123 7.99983 12.9004 8.08763 12.7441 8.24391C12.5878 8.40019 12.5 8.61215 12.5 8.83316C12.5 9.05418 12.5878 9.26614 12.7441 9.42242C12.9004 9.5787 13.1123 9.6665 13.3333 9.6665C13.5543 9.6665 13.7663 9.5787 13.9226 9.42242C14.0789 9.26614 14.1667 9.05418 14.1667 8.83316ZM24.7583 4.90816C24.6806 4.83046 24.5884 4.76883 24.4869 4.72678C24.3854 4.68473 24.2765 4.66309 24.1667 4.66309C23.9447 4.66309 23.7319 4.75124 23.575 4.90816C23.4181 5.06508 23.3299 5.27791 23.3299 5.49983C23.3299 5.72175 23.4181 5.93458 23.575 6.0915C23.7319 6.24842 23.9447 6.33657 24.1667 6.33657C24.3886 6.33657 24.6014 6.24842 24.7583 6.0915C24.9153 5.93458 25.0034 5.72175 25.0034 5.49983C25.0034 5.27791 24.9153 5.06508 24.7583 4.90816ZM26.6667 6.33316C26.8034 6.33237 26.9378 6.29796 27.058 6.23297C27.1783 6.16799 27.2807 6.07442 27.3562 5.96051C27.4318 5.8466 27.4782 5.71585 27.4913 5.57979C27.5044 5.44373 27.4839 5.30653 27.4314 5.18029C27.379 5.05405 27.2964 4.94264 27.1907 4.85588C27.0851 4.76912 26.9598 4.70968 26.8257 4.68279C26.6917 4.6559 26.5531 4.6624 26.4222 4.7017C26.2913 4.741 26.1721 4.81191 26.075 4.90816C25.9575 5.02472 25.8773 5.17364 25.8448 5.33593C25.8122 5.49822 25.8287 5.66653 25.8922 5.8194C25.9557 5.97227 26.0632 6.10277 26.2012 6.19427C26.3391 6.28577 26.5011 6.33413 26.6667 6.33316ZM15.8333 24.6665C15.8333 25.4906 16.0777 26.2962 16.5355 26.9814C16.9934 27.6666 17.6441 28.2006 18.4055 28.516C19.1668 28.8314 20.0046 28.9139 20.8129 28.7531C21.6211 28.5923 22.3636 28.1955 22.9463 27.6128C23.529 27.0301 23.9258 26.2876 24.0866 25.4794C24.2474 24.6711 24.1649 23.8333 23.8495 23.072C23.5341 22.3106 23.0001 21.6599 22.3149 21.202C21.6297 20.7442 20.8241 20.4998 20 20.4998C18.8949 20.4998 17.8351 20.9388 17.0537 21.7202C16.2723 22.5016 15.8333 23.5614 15.8333 24.6665ZM22.5 24.6665C22.5 25.1609 22.3534 25.6443 22.0787 26.0554C21.804 26.4665 21.4135 26.787 20.9567 26.9762C20.4999 27.1654 19.9972 27.2149 19.5123 27.1185C19.0273 27.022 18.5819 26.7839 18.2322 26.4343C17.8826 26.0846 17.6445 25.6392 17.548 25.1542C17.4516 24.6693 17.5011 24.1666 17.6903 23.7098C17.8795 23.253 18.2 22.8625 18.6111 22.5878C19.0222 22.3131 19.5055 22.1665 20 22.1665C20.663 22.1665 21.2989 22.4299 21.7678 22.8987C22.2366 23.3676 22.5 24.0035 22.5 24.6665Z" fill="#5B5B5B"/>
<path d="M35.8333 28C33.45 28 34.0667 27.7583 32.5 29.325C30.9 27.725 31.5333 28 29.1667 28C28.2761 28.0045 27.4105 28.2942 26.6966 28.8266C25.9828 29.359 25.4582 30.1061 25.2 30.9583C24.622 30.6622 23.9828 30.5052 23.3333 30.5C20.95 30.5 21.5667 30.2583 20 31.825C18.4 30.225 19.0333 30.5 16.6667 30.5C16.0172 30.5052 15.378 30.6622 14.8 30.9583C14.5418 30.1061 14.0172 29.359 13.3034 28.8266C12.5895 28.2942 11.7239 28.0045 10.8333 28C8.45 28 9.06667 27.7583 7.5 29.325C5.9 27.725 6.53333 28 4.16667 28C3.0616 28 2.00179 28.439 1.22039 29.2204C0.438987 30.0018 0 31.0616 0 32.1667L0 37.1667C0 37.3877 0.0877974 37.5996 0.244078 37.7559C0.400358 37.9122 0.61232 38 0.833333 38H12.5V39.6667C12.5 39.8877 12.5878 40.0996 12.7441 40.2559C12.9004 40.4122 13.1123 40.5 13.3333 40.5H26.6667C26.8877 40.5 27.0996 40.4122 27.2559 40.2559C27.4122 40.0996 27.5 39.8877 27.5 39.6667V38H39.1667C39.3877 38 39.5996 37.9122 39.7559 37.7559C39.9122 37.5996 40 37.3877 40 37.1667V32.1667C40 31.6195 39.8922 31.0777 39.6828 30.5722C39.4734 30.0666 39.1665 29.6073 38.7796 29.2204C38.3927 28.8335 37.9334 28.5266 37.4278 28.3172C36.9223 28.1078 36.3805 28 35.8333 28ZM1.66667 36.3333V32.1667C1.66667 31.5036 1.93006 30.8677 2.3989 30.3989C2.86774 29.9301 3.50363 29.6667 4.16667 29.6667H5.49167L6.90833 31.0917C6.9858 31.1698 7.07797 31.2318 7.17952 31.2741C7.28107 31.3164 7.38999 31.3382 7.5 31.3382C7.61001 31.3382 7.71893 31.3164 7.82048 31.2741C7.92203 31.2318 8.0142 31.1698 8.09167 31.0917L9.50833 29.6667H10.8333C11.4964 29.6667 12.1323 29.9301 12.6011 30.3989C13.0699 30.8677 13.3333 31.5036 13.3333 32.1667C12.81 32.897 12.5195 33.7684 12.5 34.6667V36.3333H1.66667ZM25.8333 38.8333H14.1667V34.6667C14.1667 34.0036 14.4301 33.3677 14.8989 32.8989C15.3677 32.4301 16.0036 32.1667 16.6667 32.1667H17.9917L19.4083 33.5917C19.4858 33.6698 19.578 33.7318 19.6795 33.7741C19.7811 33.8164 19.89 33.8382 20 33.8382C20.11 33.8382 20.2189 33.8164 20.3205 33.7741C20.422 33.7318 20.5142 33.6698 20.5917 33.5917L22.0083 32.1667H23.3333C23.9964 32.1667 24.6323 32.4301 25.1011 32.8989C25.5699 33.3677 25.8333 34.0036 25.8333 34.6667V38.8333ZM38.3333 36.3333H27.5V34.6667C27.4868 33.7673 27.1958 32.894 26.6667 32.1667C26.6667 31.5036 26.9301 30.8677 27.3989 30.3989C27.8677 29.9301 28.5036 29.6667 29.1667 29.6667H30.4917L31.9083 31.0917C31.9858 31.1698 32.078 31.2318 32.1795 31.2741C32.2811 31.3164 32.39 31.3382 32.5 31.3382C32.61 31.3382 32.7189 31.3164 32.8205 31.2741C32.922 31.2318 33.0142 31.1698 33.0917 31.0917L34.5083 29.6667H35.8333C36.4964 29.6667 37.1323 29.9301 37.6011 30.3989C38.0699 30.8677 38.3333 31.5036 38.3333 32.1667V36.3333ZM28.3333 22.1667C28.3333 22.9908 28.5777 23.7963 29.0355 24.4815C29.4934 25.1667 30.1441 25.7008 30.9055 26.0162C31.6668 26.3315 32.5046 26.414 33.3129 26.2533C34.1211 26.0925 34.8636 25.6957 35.4463 25.1129C36.029 24.5302 36.4258 23.7878 36.5866 22.9795C36.7474 22.1713 36.6649 21.3335 36.3495 20.5722C36.0341 19.8108 35.5001 19.1601 34.8149 18.7022C34.1297 18.2444 33.3241 18 32.5 18C31.3949 18 30.3351 18.439 29.5537 19.2204C28.7723 20.0018 28.3333 21.0616 28.3333 22.1667ZM32.5 19.6667C32.9945 19.6667 33.4778 19.8133 33.8889 20.088C34.3 20.3627 34.6205 20.7531 34.8097 21.21C34.9989 21.6668 35.0484 22.1694 34.952 22.6544C34.8555 23.1393 34.6174 23.5848 34.2678 23.9344C33.9181 24.2841 33.4727 24.5222 32.9877 24.6186C32.5028 24.7151 32.0001 24.6656 31.5433 24.4764C31.0865 24.2871 30.696 23.9667 30.4213 23.5556C30.1466 23.1445 30 22.6611 30 22.1667C30 21.5036 30.2634 20.8677 30.7322 20.3989C31.2011 19.9301 31.837 19.6667 32.5 19.6667ZM7.5 26.3333C8.32409 26.3333 9.12967 26.089 9.81488 25.6311C10.5001 25.1733 11.0341 24.5225 11.3495 23.7612C11.6649 22.9998 11.7474 22.162 11.5866 21.3538C11.4258 20.5455 11.029 19.8031 10.4463 19.2204C9.86356 18.6377 9.12113 18.2408 8.31288 18.0801C7.50462 17.9193 6.66684 18.0018 5.90549 18.3172C5.14413 18.6325 4.49338 19.1666 4.03554 19.8518C3.5777 20.537 3.33333 21.3426 3.33333 22.1667C3.33333 23.2717 3.77232 24.3315 4.55372 25.1129C5.33512 25.8943 6.39493 26.3333 7.5 26.3333ZM7.5 19.6667C7.99445 19.6667 8.4778 19.8133 8.88893 20.088C9.30005 20.3627 9.62048 20.7531 9.8097 21.21C9.99892 21.6668 10.0484 22.1694 9.95196 22.6544C9.8555 23.1393 9.6174 23.5848 9.26777 23.9344C8.91814 24.2841 8.47268 24.5222 7.98773 24.6186C7.50277 24.7151 7.00011 24.6656 6.54329 24.4764C6.08648 24.2871 5.69603 23.9667 5.42133 23.5556C5.14662 23.1445 5 22.6611 5 22.1667C5 21.5036 5.26339 20.8677 5.73223 20.3989C6.20107 19.9301 6.83696 19.6667 7.5 19.6667Z" fill="#5B5B5B"/>
</g>
<defs>
<clipPath id="clip0_20744_9224">
<rect width="40" height="40" fill="white" transform="translate(0 0.5)"/>
</clipPath>
</defs>
</svg>
