<svg width="40" height="41" viewBox="0 0 40 41" fill="none" xmlns="http://www.w3.org/2000/svg">
<path d="M37.5 1.33301H2.5C1.83696 1.33301 1.20107 1.5964 0.732233 2.06524C0.263392 2.53408 0 3.16997 0 3.83301L0 28.833C0 29.496 0.263392 30.1319 0.732233 30.6008C1.20107 31.0696 1.83696 31.333 2.5 31.333H16.7417L16 34.6663H14.1667C13.7246 34.6663 13.3007 34.8419 12.9882 35.1545C12.6756 35.4671 12.5 35.891 12.5 36.333V38.833C12.5 39.054 12.5878 39.266 12.7441 39.4223C12.9004 39.5785 13.1123 39.6663 13.3333 39.6663H26.6667C26.8877 39.6663 27.0996 39.5785 27.2559 39.4223C27.4122 39.266 27.5 39.054 27.5 38.833V36.333C27.5 35.891 27.3244 35.4671 27.0118 35.1545C26.6993 34.8419 26.2754 34.6663 25.8333 34.6663H24L23.2583 31.333H37.5C38.163 31.333 38.7989 31.0696 39.2678 30.6008C39.7366 30.1319 40 29.496 40 28.833V3.83301C40 3.16997 39.7366 2.53408 39.2678 2.06524C38.7989 1.5964 38.163 1.33301 37.5 1.33301ZM1.66667 3.83301C1.66667 3.61199 1.75446 3.40003 1.91074 3.24375C2.06702 3.08747 2.27899 2.99967 2.5 2.99967H37.5C37.721 2.99967 37.933 3.08747 38.0893 3.24375C38.2455 3.40003 38.3333 3.61199 38.3333 3.83301V24.6663H1.66667V3.83301ZM25.8333 37.9997H14.1667V36.333H25.8333V37.9997ZM22.2917 34.6663H17.7083L18.4417 31.333H21.5583L22.2917 34.6663ZM38.3333 28.833C38.3333 29.054 38.2455 29.266 38.0893 29.4223C37.933 29.5785 37.721 29.6663 37.5 29.6663H2.5C2.27899 29.6663 2.06702 29.5785 1.91074 29.4223C1.75446 29.266 1.66667 29.054 1.66667 28.833V26.333H38.3333V28.833Z" fill="#5B5B5B"/>
<path d="M19.4084 28.5915C19.5057 28.6881 19.6252 28.7592 19.7565 28.7985C19.8878 28.8379 20.0268 28.8442 20.1611 28.817C20.2954 28.7898 20.421 28.7299 20.5266 28.6426C20.6323 28.5553 20.7148 28.4433 20.7668 28.3165C20.8497 28.113 20.8489 27.8851 20.7647 27.6822C20.6804 27.4793 20.5194 27.3179 20.3168 27.2331C20.1388 27.1597 19.9409 27.1502 19.7566 27.2062C19.5724 27.2621 19.4133 27.3802 19.3062 27.5403C19.1992 27.7003 19.1509 27.8925 19.1695 28.0841C19.1882 28.2757 19.2726 28.455 19.4084 28.5915ZM32.5001 19.6665H18.3334C18.3334 19.4454 18.2456 19.2335 18.0894 19.0772C17.9331 18.9209 17.7211 18.8331 17.5001 18.8331C17.2791 18.8331 17.0671 18.9209 16.9108 19.0772C16.7546 19.2335 16.6668 19.4454 16.6668 19.6665H14.1668C13.9458 19.6665 13.7338 19.7543 13.5775 19.9105C13.4212 20.0668 13.3334 20.2788 13.3334 20.4998C13.3334 20.7208 13.4212 20.9328 13.5775 21.0891C13.7338 21.2453 13.9458 21.3331 14.1668 21.3331H16.6668C16.6668 21.5541 16.7546 21.7661 16.9108 21.9224C17.0671 22.0787 17.2791 22.1665 17.5001 22.1665C17.7211 22.1665 17.9331 22.0787 18.0894 21.9224C18.2456 21.7661 18.3334 21.5541 18.3334 21.3331H32.5001C32.7211 21.3331 32.9331 21.2453 33.0894 21.0891C33.2456 20.9328 33.3334 20.7208 33.3334 20.4998C33.3334 20.2788 33.2456 20.0668 33.0894 19.9105C32.9331 19.7543 32.7211 19.6665 32.5001 19.6665ZM11.2084 19.7581C7.59177 17.9498 7.58343 17.7998 7.04177 18.0915C6.5001 18.3831 6.66677 18.6331 6.66677 22.1665C6.66677 22.3875 6.75456 22.5994 6.91084 22.7557C7.06712 22.912 7.27909 22.9998 7.5001 22.9998C7.78343 22.9998 7.60843 23.0415 11.2084 21.2415C11.3449 21.1715 11.4595 21.0653 11.5395 20.9344C11.6195 20.8036 11.6618 20.6532 11.6618 20.4998C11.6618 20.3464 11.6195 20.196 11.5395 20.0652C11.4595 19.9343 11.3449 19.8281 11.2084 19.7581ZM8.33343 20.8165V20.1831L8.96677 20.4998L8.33343 20.8165ZM20.0001 17.1665C24.5918 17.1665 27.6001 13.2581 26.4168 9.75813C26.3752 9.6336 26.3049 9.52064 26.2114 9.42847C26.1179 9.33629 26.004 9.26749 25.8789 9.22769C25.7538 9.18789 25.6211 9.1782 25.4915 9.19942C25.362 9.22064 25.2393 9.27216 25.1334 9.3498C24.8847 9.52691 24.5921 9.63228 24.2875 9.6544C23.9829 9.67653 23.6781 9.61455 23.4064 9.47524C23.1347 9.33593 22.9064 9.12465 22.7466 8.86446C22.5868 8.60426 22.5015 8.30516 22.5001 7.9998C22.5001 7.16646 23.0751 7.0248 22.8418 6.38313C22.7997 6.26254 22.7305 6.15323 22.6394 6.06364C22.5484 5.97406 22.438 5.90659 22.3168 5.86646C17.9918 4.44146 13.3334 7.2748 13.3334 11.3331C13.3334 14.5498 16.3251 17.1665 20.0001 17.1665ZM20.9168 7.24146C20.7865 7.8001 20.8027 8.38289 20.9636 8.93347C21.1245 9.48405 21.4248 9.98378 21.8354 10.3843C22.246 10.7849 22.753 11.0727 23.3074 11.2199C23.8618 11.3672 24.4449 11.3688 25.0001 11.2248C25.0584 13.7248 22.6251 15.4998 20.0001 15.4998C17.2418 15.4998 15.0001 13.6331 15.0001 11.3331C15.0001 8.6748 17.9168 6.76646 20.9168 7.24146Z" fill="#5B5B5B"/>
<path d="M18.0161 10.4333C18.1816 10.5012 18.3645 10.5142 18.5378 10.4701C18.7112 10.4261 18.8658 10.3275 18.9788 10.1889C19.0917 10.0502 19.1571 9.87892 19.1652 9.70025C19.1734 9.52158 19.1238 9.34504 19.0238 9.19672C18.9239 9.04841 18.7789 8.93618 18.6102 8.87664C18.4416 8.8171 18.2582 8.81339 18.0873 8.86607C17.9164 8.91876 17.767 9.02503 17.6611 9.16919C17.5552 9.31335 17.4986 9.48774 17.4995 9.66659C17.5003 9.83112 17.5498 9.99171 17.6417 10.1281C17.7337 10.2646 17.8639 10.3707 18.0161 10.4333ZM16.9078 12.7583C17.0016 12.844 17.1138 12.9072 17.2358 12.9429C17.3577 12.9787 17.4863 12.986 17.6115 12.9644C17.7368 12.9429 17.8554 12.8929 17.9584 12.8184C18.0614 12.7439 18.146 12.6469 18.2057 12.5347C18.2654 12.4225 18.2987 12.2981 18.3029 12.1711C18.3072 12.0441 18.2823 11.9177 18.2302 11.8018C18.1782 11.6858 18.1003 11.5833 18.0025 11.5021C17.9047 11.4209 17.7897 11.3632 17.6661 11.3333C17.4864 11.2898 17.2973 11.3073 17.1286 11.383C16.96 11.4588 16.8213 11.5885 16.7344 11.7517C16.6475 11.9149 16.6174 12.1024 16.6488 12.2847C16.6802 12.4669 16.7713 12.6335 16.9078 12.7583ZM19.2328 14.1499C19.284 14.2779 19.3662 14.3912 19.472 14.4797C19.5778 14.5681 19.7039 14.6289 19.839 14.6566C19.9741 14.6843 20.1139 14.6781 20.246 14.6384C20.378 14.5988 20.4982 14.527 20.5957 14.4295C20.6932 14.332 20.765 14.2118 20.8046 14.0798C20.8442 13.9477 20.8505 13.8079 20.8228 13.6728C20.7951 13.5377 20.7343 13.4116 20.6459 13.3058C20.5574 13.2 20.4441 13.1178 20.3161 13.0666C20.1647 13.006 19.9988 12.9911 19.839 13.0239C19.6792 13.0567 19.5325 13.1357 19.4172 13.251C19.3018 13.3663 19.2229 13.513 19.1901 13.6728C19.1573 13.8326 19.1722 13.9985 19.2328 14.1499ZM22.1828 13.7666C22.3351 13.8303 22.503 13.8474 22.665 13.8156C22.8271 13.7837 22.976 13.7045 23.0929 13.5879C23.2099 13.4712 23.2895 13.3225 23.3218 13.1605C23.354 12.9986 23.3374 12.8307 23.274 12.6782C23.2107 12.5257 23.1035 12.3954 22.9659 12.304C22.8284 12.2125 22.6669 12.164 22.5017 12.1645C22.3366 12.1651 22.1753 12.2147 22.0384 12.307C21.9015 12.3994 21.7951 12.5303 21.7328 12.6833C21.6499 12.8867 21.6506 13.1146 21.7349 13.3175C21.8192 13.5204 21.9801 13.6818 22.1828 13.7666Z" fill="#5B5B5B"/>
</svg>
