<svg width="40" height="41" viewBox="0 0 40 41" fill="none" xmlns="http://www.w3.org/2000/svg">
<path d="M18.1175 1.74707C17.9928 1.74682 17.8709 1.78387 17.7674 1.85347C17.664 1.92307 17.5837 2.02203 17.5369 2.13763C17.4901 2.25323 17.479 2.38017 17.505 2.50214C17.5309 2.62411 17.5928 2.73553 17.6825 2.82207L19.1875 4.32457C10.6 4.75207 3.75005 11.8408 3.75005 20.5333C3.7424 23.7723 4.70929 26.9387 6.52504 29.6208C7.69336 31.3506 9.1828 32.84 10.9125 34.0083C11.7775 34.5921 12.7025 35.0958 13.675 35.5071C13.7512 35.5429 13.8337 35.5629 13.9178 35.5661C14.0018 35.5692 14.0857 35.5554 14.1642 35.5253C14.2428 35.4953 14.3145 35.4497 14.375 35.3913C14.4356 35.3329 14.4837 35.2629 14.5165 35.1855C14.5493 35.108 14.5662 35.0247 14.5661 34.9406C14.566 34.8565 14.5489 34.7733 14.5158 34.6959C14.4828 34.6186 14.4344 34.5487 14.3737 34.4905C14.313 34.4323 14.2412 34.3869 14.1625 34.3571C12.3807 33.6034 10.7617 32.5116 9.39505 31.1421C7.99944 29.7509 6.89267 28.0976 6.13841 26.2772C5.38414 24.4567 4.99727 22.5051 5.00005 20.5346C5.00005 12.5646 11.2 6.07457 19.04 5.57832L17.6825 6.93707C17.6245 6.99518 17.5785 7.06415 17.5471 7.14004C17.5158 7.21594 17.4996 7.29727 17.4997 7.37939C17.4998 7.46151 17.516 7.54282 17.5475 7.61866C17.5789 7.69451 17.6251 7.76342 17.6832 7.82145C17.7413 7.87947 17.8103 7.92549 17.8861 7.95686C17.962 7.98823 18.0434 8.00435 18.1255 8.00429C18.2076 8.00424 18.2889 7.988 18.3648 7.95652C18.4406 7.92504 18.5095 7.87893 18.5675 7.82082L21.0675 5.32082C21.1259 5.26274 21.1723 5.19369 21.2039 5.11765C21.2355 5.0416 21.2518 4.96005 21.2518 4.8777C21.2518 4.79534 21.2355 4.71379 21.2039 4.63775C21.1723 4.5617 21.1259 4.49265 21.0675 4.43457L18.5675 1.93707C18.5091 1.87681 18.4392 1.82893 18.3619 1.79629C18.2846 1.76365 18.2015 1.74691 18.1175 1.74707ZM26.02 5.50957C25.8793 5.52058 25.7465 5.57889 25.6431 5.67502C25.5398 5.77115 25.472 5.89943 25.4508 6.03898C25.4297 6.17854 25.4564 6.32114 25.5266 6.44359C25.5968 6.56603 25.7064 6.6611 25.8375 6.71332C27.6195 7.46695 29.2385 8.55874 30.605 9.92832C31.9995 11.3198 33.1056 12.9728 33.8598 14.7927C34.614 16.6125 35.0015 18.5634 35 20.5333C35 28.5233 28.7663 35.0233 20.8938 35.4871L22.3175 34.0646C22.4078 33.9767 22.4694 33.8636 22.4942 33.7402C22.5191 33.6167 22.5061 33.4886 22.4569 33.3727C22.4077 33.2568 22.3246 33.1584 22.2186 33.0905C22.1125 33.0225 21.9884 32.9882 21.8625 32.9921C21.7003 32.9964 21.5461 33.0636 21.4325 33.1796L18.9325 35.6796C18.8743 35.7376 18.8282 35.8066 18.7967 35.8825C18.7651 35.9585 18.7489 36.0399 18.7489 36.1221C18.7489 36.2043 18.7651 36.2857 18.7967 36.3616C18.8282 36.4375 18.8743 36.5065 18.9325 36.5646L21.4325 39.0646C21.4906 39.1227 21.5595 39.1688 21.6353 39.2003C21.7112 39.2318 21.7925 39.248 21.8746 39.248C21.9567 39.2481 22.0381 39.232 22.1139 39.2006C22.1898 39.1692 22.2588 39.1232 22.3169 39.0652C22.375 39.0072 22.4211 38.9383 22.4526 38.8624C22.4841 38.7866 22.5003 38.7053 22.5004 38.6231C22.5005 38.541 22.4843 38.4597 22.453 38.3838C22.4216 38.3079 22.3756 38.2389 22.3175 38.1808L20.875 36.7396C29.435 36.2808 36.25 29.2046 36.25 20.5333C36.2572 17.2952 35.2903 14.1298 33.475 11.4483C31.7106 8.83622 29.2272 6.79128 26.325 5.56082C26.2488 5.52788 26.1668 5.51046 26.0838 5.50957C26.063 5.50853 26.0409 5.50853 26.02 5.50957ZM20 10.5346C14.485 10.5346 10 15.0183 10 20.5346C10 26.0496 14.485 30.5346 20 30.5346C25.515 30.5346 30 26.0496 30 20.5346C30 15.0183 25.515 10.5346 20 10.5346ZM20 11.7846C24.84 11.7846 28.75 15.6933 28.75 20.5346C28.75 25.3733 24.84 29.2846 20 29.2846C15.16 29.2846 11.25 25.3733 11.25 20.5346C11.25 15.6933 15.16 11.7846 20 11.7846ZM19.5575 14.2496V15.6971C19.165 15.7458 18.8088 15.8396 18.4913 15.9808C18.1738 16.1208 17.9038 16.3008 17.6788 16.5196C17.4574 16.7411 17.283 17.0052 17.1663 17.2958C17.047 17.6112 16.9876 17.9461 16.9913 18.2833C16.9913 18.6733 17.06 19.0171 17.1913 19.3158C17.3313 19.6133 17.5263 19.8758 17.7813 20.1033C18.0413 20.3321 18.3538 20.5308 18.7188 20.7033C19.0875 20.8683 19.5038 21.0158 19.9663 21.1446C20.3125 21.2571 20.6075 21.3783 20.85 21.5008C21.0975 21.6233 21.2975 21.7558 21.4475 21.9008C21.6038 22.0458 21.715 22.2008 21.785 22.3671C21.8538 22.5333 21.89 22.7171 21.89 22.9146C21.89 23.1521 21.8475 23.3646 21.76 23.5583C21.6725 23.7471 21.545 23.9083 21.3775 24.0446C21.215 24.1758 21.015 24.2796 20.7713 24.3546C20.2898 24.4897 19.7813 24.4966 19.2963 24.3746C19.0776 24.3176 18.8738 24.2139 18.6988 24.0708C18.5102 23.913 18.3619 23.7124 18.2663 23.4858C18.1563 23.2396 18.1038 22.9308 18.1038 22.5571H16.5775C16.5775 23.0533 16.655 23.4796 16.8113 23.8346C16.9675 24.1846 17.1738 24.4783 17.4338 24.7108C17.7 24.9433 18.0038 25.1208 18.345 25.2433C18.6863 25.3658 19.0375 25.4483 19.4013 25.4871V26.7496H20.6075V25.4871C21.0413 25.4433 21.4313 25.3558 21.7775 25.2246C22.1238 25.0921 22.4188 24.9158 22.6613 24.6958C22.9038 24.4771 23.0925 24.2183 23.225 23.9208C23.3575 23.6171 23.4225 23.2796 23.4225 22.9021C23.4225 22.5158 23.36 22.1758 23.2325 21.8808C23.1031 21.5846 22.9107 21.3202 22.6688 21.1058C22.3942 20.8644 22.0844 20.6663 21.75 20.5183C21.3442 20.3316 20.9241 20.1773 20.4938 20.0571C20.1738 19.9583 19.861 19.8376 19.5575 19.6958C19.3388 19.5889 19.1347 19.4545 18.95 19.2958C18.8044 19.1693 18.6891 19.0117 18.6125 18.8346C18.487 18.4457 18.487 18.0272 18.6125 17.6383C18.6825 17.4508 18.7825 17.2883 18.9163 17.1571C19.0628 17.0168 19.2375 16.9094 19.4288 16.8421C19.6313 16.7671 19.8688 16.7296 20.1463 16.7296C20.4125 16.7296 20.6488 16.7796 20.8575 16.8808C21.065 16.9821 21.2388 17.1221 21.3775 17.3008C21.515 17.4808 21.62 17.6958 21.69 17.9408C21.765 18.1871 21.8025 18.4546 21.8025 18.7496H23.32C23.32 17.8583 23.0963 17.1583 22.6513 16.6446C22.2125 16.1271 21.59 15.8146 20.7813 15.7046V14.2496H19.5575Z" fill="#5B5B5B"/>
</svg>
