<svg width="40" height="41" viewBox="0 0 40 41" fill="none" xmlns="http://www.w3.org/2000/svg">
<g clip-path="url(#clip0_20744_9216)">
<path d="M36.6673 4.66667H30.0007V1.33333C30.0007 1.11232 29.9129 0.900358 29.7566 0.744078C29.6003 0.587797 29.3883 0.5 29.1673 0.5H12.5007C11.8376 0.5 11.2017 0.763392 10.7329 1.23223C10.264 1.70107 10.0007 2.33696 10.0007 3V4.66667H3.33398C2.67094 4.66667 2.03506 4.93006 1.56622 5.3989C1.09738 5.86774 0.833984 6.50363 0.833984 7.16667V31.3333C0.833984 31.9964 1.09738 32.6323 1.56622 33.1011C2.03506 33.5699 2.67094 33.8333 3.33398 33.8333H17.5007L16.9423 35.5H15.0007C14.5586 35.5 14.1347 35.6756 13.8221 35.9882C13.5096 36.3007 13.334 36.7246 13.334 37.1667V39.6667C13.334 39.8877 13.4218 40.0996 13.5781 40.2559C13.7343 40.4122 13.9463 40.5 14.1673 40.5H25.834C26.055 40.5 26.267 40.4122 26.4232 40.2559C26.5795 40.0996 26.6673 39.8877 26.6673 39.6667V37.1667C26.6673 36.7246 26.4917 36.3007 26.1792 35.9882C25.8666 35.6756 25.4427 35.5 25.0007 35.5H23.1007L22.5423 33.8333H36.6673C37.3304 33.8333 37.9662 33.5699 38.4351 33.1011C38.9039 32.6323 39.1673 31.9964 39.1673 31.3333V7.16667C39.1673 6.50363 38.9039 5.86774 38.4351 5.3989C37.9662 4.93006 37.3304 4.66667 36.6673 4.66667ZM28.334 22.1667V23.8333H12.5007C12.2796 23.8333 12.0677 23.7455 11.9114 23.5893C11.7551 23.433 11.6673 23.221 11.6673 23C11.6673 22.779 11.7551 22.567 11.9114 22.4107C12.0677 22.2545 12.2796 22.1667 12.5007 22.1667H28.334ZM28.334 20.5H15.0007V2.16667H28.334V20.5ZM11.6673 3C11.6673 2.77899 11.7551 2.56702 11.9114 2.41074C12.0677 2.25446 12.2796 2.16667 12.5007 2.16667H13.334V20.5C12.774 20.4408 12.2078 20.4918 11.6673 20.65V3ZM2.50065 7.16667C2.50065 6.94565 2.58845 6.73369 2.74473 6.57741C2.90101 6.42113 3.11297 6.33333 3.33398 6.33333H10.0007V23C10.0007 23.663 10.264 24.2989 10.7329 24.7678C11.2017 25.2366 11.8376 25.5 12.5007 25.5H29.1673C29.3883 25.5 29.6003 25.4122 29.7566 25.2559C29.9129 25.0996 30.0007 24.8877 30.0007 24.6667V6.33333H36.6673C36.8883 6.33333 37.1003 6.42113 37.2566 6.57741C37.4129 6.73369 37.5006 6.94565 37.5006 7.16667V27.1667H2.50065V7.16667ZM25.0007 38.8333H15.0007V37.1667H25.0007V38.8333ZM21.3423 35.5H18.659L19.209 33.8333H20.834L21.3423 35.5ZM37.5006 31.3333C37.5006 31.5543 37.4129 31.7663 37.2566 31.9226C37.1003 32.0789 36.8883 32.1667 36.6673 32.1667H3.33398C3.11297 32.1667 2.90101 32.0789 2.74473 31.9226C2.58845 31.7663 2.50065 31.5543 2.50065 31.3333V28.8333H37.5006V31.3333Z" fill="#5B5B5B"/>
<path d="M19.4083 31.092C19.5251 31.2079 19.6736 31.2865 19.8351 31.3181C19.9966 31.3497 20.1638 31.3328 20.3156 31.2696C20.4675 31.2063 20.5973 31.0995 20.6885 30.9626C20.7798 30.8257 20.8285 30.6649 20.8285 30.5003C20.8285 30.3358 20.7798 30.175 20.6885 30.0381C20.5973 29.9012 20.4675 29.7944 20.3156 29.7311C20.1638 29.6678 19.9966 29.6509 19.8351 29.6825C19.6736 29.7141 19.5251 29.7928 19.4083 29.9087C19.3302 29.9861 19.2682 30.0783 19.2259 30.1798C19.1836 30.2814 19.1618 30.3903 19.1618 30.5003C19.1618 30.6103 19.1836 30.7193 19.2259 30.8208C19.2682 30.9224 19.3302 31.0145 19.4083 31.092ZM18.3333 14.667H25C25.221 14.667 25.433 14.5792 25.5893 14.4229C25.7455 14.2666 25.8333 14.0547 25.8333 13.8337C25.8333 13.6126 25.7455 13.4007 25.5893 13.2444C25.433 13.0881 25.221 13.0003 25 13.0003H18.3333C18.1123 13.0003 17.9004 13.0881 17.7441 13.2444C17.5878 13.4007 17.5 13.6126 17.5 13.8337C17.5 14.0547 17.5878 14.2666 17.7441 14.4229C17.9004 14.5792 18.1123 14.667 18.3333 14.667ZM23.3333 16.3337H20C19.779 16.3337 19.567 16.4215 19.4107 16.5777C19.2545 16.734 19.1667 16.946 19.1667 17.167C19.1667 17.388 19.2545 17.6 19.4107 17.7562C19.567 17.9125 19.779 18.0003 20 18.0003H23.3333C23.5543 18.0003 23.7663 17.9125 23.9226 17.7562C24.0789 17.6 24.1667 17.388 24.1667 17.167C24.1667 16.946 24.0789 16.734 23.9226 16.5777C23.7663 16.4215 23.5543 16.3337 23.3333 16.3337ZM18.3333 9.66699H25C25.221 9.66699 25.433 9.57919 25.5893 9.42291C25.7455 9.26663 25.8333 9.05467 25.8333 8.83366V5.50033C25.8333 5.27931 25.7455 5.06735 25.5893 4.91107C25.433 4.75479 25.221 4.66699 25 4.66699H18.3333C18.1123 4.66699 17.9004 4.75479 17.7441 4.91107C17.5878 5.06735 17.5 5.27931 17.5 5.50033V8.83366C17.5 9.05467 17.5878 9.26663 17.7441 9.42291C17.9004 9.57919 18.1123 9.66699 18.3333 9.66699ZM19.1667 6.33366H24.1667V8.00033H19.1667V6.33366Z" fill="#5B5B5B"/>
</g>
<defs>
<clipPath id="clip0_20744_9216">
<rect width="40" height="40" fill="white" transform="translate(0 0.5)"/>
</clipPath>
</defs>
</svg>
