<svg width="40" height="40" viewBox="0 0 40 40" fill="none" xmlns="http://www.w3.org/2000/svg">
<path d="M6.25 4.375V5.625C6.24901 5.95622 6.117 6.27358 5.88279 6.50779C5.64858 6.742 5.33122 6.87401 5 6.875H3.75C3.41878 6.87401 3.10142 6.742 2.86721 6.50779C2.633 6.27358 2.50099 5.95622 2.5 5.625V1.875C2.50099 1.54378 2.633 1.22642 2.86721 0.992209C3.10142 0.758003 3.41878 0.625989 3.75 0.625H5C5.33122 0.625989 5.64858 0.758003 5.88279 0.992209C6.117 1.22642 6.24901 1.54378 6.25 1.875V4.375ZM37.5 1.875V5.625C37.499 5.95622 37.367 6.27358 37.1328 6.50779C36.8986 6.742 36.5812 6.87401 36.25 6.875H35C34.6688 6.87401 34.3514 6.742 34.1172 6.50779C33.883 6.27358 33.751 5.95622 33.75 5.625V1.875C33.751 1.54378 33.883 1.22642 34.1172 0.992209C34.3514 0.758003 34.6688 0.625989 35 0.625H36.25C36.5812 0.625989 36.8986 0.758003 37.1328 0.992209C37.367 1.22642 37.499 1.54378 37.5 1.875Z" fill="#F0B110"/>
<path d="M35 5V0.625C34.6688 0.625989 34.3514 0.758003 34.1172 0.992209C33.883 1.22642 33.751 1.54378 33.75 1.875V5.625C33.751 5.95622 33.883 6.27358 34.1172 6.50779C34.3514 6.742 34.6688 6.87401 35 6.875H36.25C36.5812 6.87401 36.8986 6.742 37.1328 6.50779C37.367 6.27358 37.499 5.95622 37.5 5.625H35.625C35.4592 5.625 35.3003 5.55915 35.1831 5.44194C35.0658 5.32473 35 5.16576 35 5ZM3.75 5V0.625C3.41878 0.625989 3.10142 0.758003 2.86721 0.992209C2.633 1.22642 2.50099 1.54378 2.5 1.875V5.625C2.50099 5.95622 2.633 6.27358 2.86721 6.50779C3.10142 6.742 3.41878 6.87401 3.75 6.875H5C5.33122 6.87401 5.64858 6.742 5.88279 6.50779C6.117 6.27358 6.24901 5.95622 6.25 5.625H4.375C4.20924 5.625 4.05027 5.55915 3.93306 5.44194C3.81585 5.32473 3.75 5.16576 3.75 5Z" fill="#F3C372"/>
<path d="M33.75 2.5V5H6.25V2.5H33.75ZM25.625 14.925L22.8125 17.8062L23.475 21.875L20 19.9562L16.525 21.875L17.1875 17.8062L14.375 14.925L18.2625 14.3313L20 10.625L21.7375 14.3313L25.625 14.925Z" fill="#F0B110"/>
<path d="M33.75 5.625V38.4125C33.7498 38.6677 33.6484 38.9124 33.4679 39.0929C33.2874 39.2734 33.0427 39.3748 32.7875 39.375C32.6012 39.3742 32.419 39.32 32.2625 39.2188L20 31.25L7.7375 39.2188C7.58104 39.32 7.39884 39.3742 7.2125 39.375C6.95728 39.3748 6.71256 39.2734 6.53209 39.0929C6.35162 38.9124 6.25017 38.6677 6.25 38.4125V5H8.75V35.625L20 28.125L31.25 35.625V5H33.75V5.625Z" fill="#A9B9B6"/>
<path d="M31.25 5V35.625L20 28.125L8.75 35.625V5H31.25ZM22.8125 17.8062L25.625 14.925L21.7375 14.3313L20 10.625L18.2625 14.3313L14.375 14.925L17.1875 17.8062L16.525 21.875L20 19.9563L23.475 21.875L22.8125 17.8062Z" fill="#E6EAE9"/>
<path d="M6.25 2.5V5H33.75V2.5H32.5C32.5 2.83152 32.3683 3.14946 32.1339 3.38388C31.8995 3.6183 31.5815 3.75 31.25 3.75H8.75C8.41848 3.75 8.10054 3.6183 7.86612 3.38388C7.6317 3.14946 7.5 2.83152 7.5 2.5H6.25Z" fill="#F0B110"/>
<path d="M18.2625 14.3313L14.375 14.925L17.1875 17.8062L16.525 21.875L20 19.9563V10.625L18.2625 14.3313Z" fill="#F0B110"/>
<path d="M33.75 6.875V5H31.25V6.875H33.75ZM8.75 35.625V5H6.25V38.4125C6.25017 38.6677 6.35162 38.9124 6.53209 39.0929C6.71256 39.2734 6.95728 39.3748 7.2125 39.375C7.39884 39.3742 7.58104 39.32 7.7375 39.2188L20 31.25V28.125L8.75 35.625Z" fill="#809B96"/>
<path d="M20 28.125V19.9563L16.525 21.875L17.1875 17.8062L14.375 14.925L18.2625 14.3313L20 10.625V9.375C20 8.71196 20.2634 8.07607 20.7322 7.60723C21.2011 7.13839 21.837 6.875 22.5 6.875H31.25V5H8.75V35.625L20 28.125Z" fill="#E6EAE9"/>
<path d="M30.625 5V34.4575L20.3469 27.605C20.2442 27.5365 20.1235 27.4999 20 27.4999C19.8765 27.4999 19.7558 27.5365 19.6531 27.605L9.375 34.4575V5H8.75V35.625L20 28.125L31.25 35.625V5H30.625Z" fill="#43766D"/>
<path d="M37.5 2.5C37.5 2.15482 37.2202 1.875 36.875 1.875C36.5298 1.875 36.25 2.15482 36.25 2.5V4.375C36.25 4.72018 36.5298 5 36.875 5C37.2202 5 37.5 4.72018 37.5 4.375V2.5Z" fill="#F3C372"/>
<path d="M6.25 2.5C6.25 2.15482 5.97018 1.875 5.625 1.875C5.27982 1.875 5 2.15482 5 2.5V4.375C5 4.72018 5.27982 5 5.625 5C5.97018 5 6.25 4.72018 6.25 4.375V2.5Z" fill="#F3C372"/>
</svg>
