<svg width="41" height="40" viewBox="0 0 41 40" fill="none" xmlns="http://www.w3.org/2000/svg">
<path d="M25.8756 30.625H15.4629C17.0006 28.195 17.8923 25.439 18.0596 22.6L20.6692 21.25L23.2789 22.6C23.4462 25.439 24.3379 28.195 25.8756 30.625Z" fill="#F0B110"/>
<path d="M23.2783 22.6L20.6686 21.25L18.059 22.6L12.2213 25.625L14.1607 16.25L7.00195 10L16.1131 8.75L20.6686 0.625L24.5734 8.75L34.3353 10L27.1766 16.25L29.116 25.625L23.2783 22.6Z" fill="#F3C372"/>
<path d="M12.209 30.625H29.1296V35.625H12.209V30.625Z" fill="#2A4A44"/>
<path d="M10.2559 35.625H31.0813V39.375H10.2559V35.625Z" fill="#335B54"/>
<path d="M12.209 30.625V35.625H29.1296V33.75H17.4153C16.7249 33.75 16.0628 33.4866 15.5746 33.0178C15.0864 32.5489 14.8122 31.913 14.8122 31.25V30.625H12.209Z" fill="#43766D"/>
<path d="M10.2559 35.625V39.375H31.0813V38.125H14.8114C14.2936 38.125 13.797 37.9275 13.4309 37.5758C13.0647 37.2242 12.859 36.7473 12.859 36.25V35.625H10.2559Z" fill="#43766D"/>
<path d="M23.2712 32.5H18.0649C17.7054 32.5 17.4141 32.7798 17.4141 33.125C17.4141 33.4702 17.7054 33.75 18.0649 33.75H23.2712C23.6306 33.75 23.922 33.4702 23.922 33.125C23.922 32.7798 23.6306 32.5 23.2712 32.5Z" fill="white"/>
<path d="M20.6588 28.75C20.3683 28.7499 20.0814 28.6875 19.8191 28.5674C19.5569 28.4472 19.3258 28.2724 19.1429 28.0556C18.9599 27.8388 18.8297 27.5855 18.7616 27.3143C18.6935 27.043 18.6894 26.7605 18.7494 26.4875C19.1073 24.8819 19.3677 23.125 19.3677 23.125L20.6692 22.5L23.4026 23.8125C23.3468 23.4098 23.3056 23.0054 23.2789 22.6L20.6692 21.25L18.0596 22.6C17.8923 25.439 17.0006 28.195 15.4629 30.625H25.8756C25.4702 30.0284 25.1154 29.4013 24.8148 28.75H20.6588Z" fill="#F3C372"/>
<path d="M20.6688 0.625L16.1133 8.75L20.6688 13.75V0.625Z" fill="#F0B110"/>
<path d="M27.1759 16.25L34.3347 10L20.668 13.75L27.1759 16.25Z" fill="#F0B110"/>
<path d="M34.3347 10L24.5727 8.75L20.668 13.75L34.3347 10Z" fill="#F3C372"/>
<path d="M16.1131 8.75L7.00195 10L20.6686 13.75L16.1131 8.75ZM24.5734 8.75L20.6686 0.625V13.75L24.5734 8.75Z" fill="#F3C372"/>
<path d="M20.668 21.25L23.2777 22.6L29.1153 25.625L29.1101 25.5994L20.668 13.75V21.25Z" fill="#F0B110"/>
<path d="M20.668 13.75L29.1101 25.5994L27.1759 16.25L20.668 13.75Z" fill="#F3C372"/>
<path d="M12.2259 25.5994L12.2207 25.625L18.0583 22.6L20.668 21.25V13.75L12.2259 25.5994Z" fill="#F0B110"/>
<path d="M14.1607 16.25L12.2266 25.5994L20.6687 13.75L14.1607 16.25Z" fill="#F3C372"/>
<path d="M7.00195 10L14.1607 16.25L20.6686 13.75L7.00195 10Z" fill="#F0B110"/>
</svg>
