<svg width="41" height="40" viewBox="0 0 41 40" fill="none" xmlns="http://www.w3.org/2000/svg">
<g clip-path="url(#clip0_6449_90645)">
<path d="M31.584 34.375L26.584 39.375V34.375H31.584ZM14.084 34.375V39.375L9.08398 34.375H14.084Z" fill="#43766D"/>
<path d="M9.08398 34.375L14.084 39.375H0.958984L3.45898 36.25L0.958984 33.125H9.08398V34.375ZM39.709 33.125L37.209 36.25L39.709 39.375H26.584L31.584 34.375V33.125H39.709Z" fill="#3B6961"/>
<path d="M31.584 34.375H9.08398V28.125H31.584V34.375Z" fill="#809B96"/>
<path d="M27.209 25.625V28.125H13.459V25.625H27.209Z" fill="#F0B110"/>
<path d="M24.709 7.71875L22.5215 9.95625L23.0402 13.125L20.334 11.6313L17.6277 13.125L18.1465 9.95625L15.959 7.71875L18.984 7.25625L20.334 4.375L21.684 7.25625L24.709 7.71875Z" fill="white"/>
<path d="M30.959 8.75V5H29.084V10.625C29.0827 11.1066 29.043 11.5873 28.9652 12.0625C29.5675 11.744 30.0714 11.2672 30.4227 10.6835C30.774 10.0998 30.9595 9.43128 30.959 8.75ZM9.70899 5V8.75C9.7093 9.43194 9.89497 10.101 10.2462 10.6855C10.5973 11.2701 11.1008 11.7482 11.7027 12.0687C11.625 11.5914 11.5852 11.1086 11.584 10.625V5H9.70899ZM11.584 3.125V0.625H29.084V3.125H32.834V9.375C32.8349 10.6298 32.3634 11.8389 31.5134 12.7618C30.6634 13.6848 29.4971 14.254 28.2465 14.3562C27.6862 15.5399 26.8675 16.5827 25.8507 17.4081C24.834 18.2334 23.645 18.8201 22.3715 19.125C22.6527 20.7125 23.3527 23.8188 24.709 25.625H15.959C17.3152 23.8188 18.0152 20.7125 18.2965 19.125C17.0229 18.8201 15.834 18.2334 14.8172 17.4081C13.8005 16.5827 12.9818 15.5399 12.4215 14.3562C11.1709 14.254 10.0046 13.6848 9.15459 12.7618C8.30457 11.8389 7.83311 10.6298 7.83399 9.375V3.125H11.584ZM22.5215 9.95625L24.709 7.71875L21.684 7.25625L20.334 4.375L18.984 7.25625L15.959 7.71875L18.1465 9.95625L17.6277 13.125L20.334 11.6313L23.0402 13.125L22.5215 9.95625Z" fill="#F3C372"/>
<path d="M15.334 10.625V0.625H11.584V3.125H7.83399V9.375C7.83311 10.6298 8.30457 11.8389 9.15459 12.7618C10.0046 13.6848 11.1709 14.254 12.4215 14.3562C12.9818 15.5399 13.8005 16.5827 14.8172 17.4081C15.834 18.2334 17.0229 18.8201 18.2965 19.125C18.0152 20.7125 17.3152 23.8188 15.959 25.625H24.709C23.3746 23.8481 22.6771 20.8169 22.3865 19.2075C20.3992 18.8145 18.6098 17.7441 17.3236 16.1789C16.0375 14.6138 15.3343 12.6508 15.334 10.625ZM9.70899 8.75V5H11.584V10.625C11.5852 11.1086 11.625 11.5914 11.7027 12.0687C11.1008 11.7482 10.5973 11.2701 10.2462 10.6855C9.89497 10.101 9.7093 9.43194 9.70899 8.75ZM29.084 3.125V5H30.959V8.75C30.9595 9.43128 30.774 10.0998 30.4227 10.6835C30.0714 11.2672 29.5675 11.744 28.9652 12.0625C28.9821 11.9581 28.9909 11.8512 29.004 11.7456C28.8828 12.6915 28.6066 13.6108 28.1865 14.4669C28.2052 14.4288 28.2284 14.3944 28.249 14.3562C29.4991 14.2534 30.6648 13.684 31.5143 12.7611C32.3638 11.8381 32.8349 10.6294 32.834 9.375V3.125H29.084Z" fill="#F0B110"/>
<path d="M11.7027 12.0687C11.1008 11.7482 10.5973 11.2701 10.2462 10.6855C9.89497 10.101 9.7093 9.43194 9.70899 8.75V5H11.584V3.125H7.83399V9.375C7.83311 10.6298 8.30457 11.8389 9.15459 12.7618C10.0046 13.6848 11.1709 14.254 12.4215 14.3562C12.4396 14.3944 12.4627 14.4288 12.484 14.4669C12.0607 13.6048 11.7834 12.6785 11.6634 11.7256C11.6746 11.84 11.6846 11.9556 11.7027 12.0687Z" fill="#F3C372"/>
<path d="M13.459 25.625V28.125H27.209V26.875H17.209C16.8775 26.875 16.5595 26.7433 16.3251 26.5089C16.0907 26.2745 15.959 25.9565 15.959 25.625H13.459Z" fill="#F3C372"/>
<path d="M25.959 30.625H14.709C14.3638 30.625 14.084 30.9048 14.084 31.25C14.084 31.5952 14.3638 31.875 14.709 31.875H25.959C26.3042 31.875 26.584 31.5952 26.584 31.25C26.584 30.9048 26.3042 30.625 25.959 30.625Z" fill="white"/>
</g>
<defs>
<clipPath id="clip0_6449_90645">
<rect width="40" height="40" fill="white" transform="translate(0.333984)"/>
</clipPath>
</defs>
</svg>
